<?xml version="1.0" standalone="no"?>
<!DOCTYPE svg PUBLIC "-//W3C//DTD SVG 20010904//EN"
 "http://www.w3.org/TR/2001/REC-SVG-20010904/DTD/svg10.dtd">
<svg version="1.0" xmlns="http://www.w3.org/2000/svg"
 width="1897.000000pt" height="918.000000pt" viewBox="0 0 1897.000000 918.000000"
 preserveAspectRatio="xMidYMid meet">

<g transform="translate(0.000000,918.000000) scale(0.100000,-0.100000)"
fill="#000000" stroke="none">
<path d="M0 8560 l0 -620 9485 0 9485 0 0 620 0 620 -9485 0 -9485 0 0 -620z
m5134 449 c-9 -30 -21 -58 -26 -64 -8 -7 -9 -5 -5 7 3 9 11 36 17 60 13 47 20
62 26 55 2 -2 -3 -28 -12 -58z m1006 57 c0 -2 -7 -9 -15 -16 -13 -11 -14 -10
-9 4 5 14 24 23 24 12z m7455 -16 c-14 -15 -15 -20 -4 -20 10 0 11 -2 2 -8 -6
-4 -13 -23 -16 -42 l-4 -35 -1 38 c-1 20 -6 37 -12 37 -5 0 0 11 12 25 12 14
26 25 31 25 6 0 2 -9 -8 -20z m-8730 1 c3 -6 -7 -9 -22 -8 -34 2 -39 -26 -6
-31 12 -2 27 -10 33 -18 26 -30 -32 -59 -70 -34 -11 8 -6 9 20 8 25 -2 35 1
35 12 0 8 -9 16 -20 18 -34 7 -46 22 -34 43 10 20 53 26 64 10z m410 -2 c4 -6
-4 -9 -21 -7 -42 4 -45 -27 -4 -36 26 -5 31 -10 28 -28 -2 -17 -11 -24 -32
-26 -16 -2 -34 2 -40 8 -8 9 -5 10 14 6 14 -4 32 -2 40 4 13 9 13 11 0 20 -8
5 -23 10 -33 10 -23 0 -33 26 -17 45 14 17 56 20 65 4z m416 -16 c13 -36 -2
-77 -30 -81 -31 -5 -43 9 -43 51 0 46 7 57 38 57 17 0 27 -8 35 -27z m96 -26
c2 -53 -9 -64 -52 -53 -22 6 -24 10 -20 54 2 26 4 48 4 50 1 2 16 2 34 0 31
-3 32 -5 34 -51z m121 41 c17 -17 15 -73 -3 -88 -22 -18 -48 -8 -59 22 -19 53
27 101 62 66z m101 -2 c17 -20 10 -77 -11 -90 -26 -16 -52 4 -56 43 -4 36 12
61 38 61 10 0 23 -6 29 -14z m321 -35 c0 -39 4 -51 18 -54 9 -3 -1 -5 -23 -5
-22 0 -32 2 -22 5 12 3 17 15 17 43 0 33 -3 38 -17 33 -16 -6 -16 -5 -4 10 23
28 31 19 31 -32z m116 18 c1 -14 4 -31 8 -38 11 -17 -12 -41 -40 -41 -27 0
-47 29 -34 50 5 8 6 18 3 23 -11 19 7 38 34 35 22 -2 28 -8 29 -29z m136 6
c23 -51 -20 -106 -57 -75 -18 15 -20 71 -3 88 20 20 48 14 60 -13z m99 -2 c13
-36 -2 -77 -30 -81 -31 -5 -43 9 -43 51 0 46 7 57 38 57 17 0 27 -8 35 -27z
m2062 20 c-40 -5 -44 -30 -5 -35 23 -3 27 -8 27 -33 0 -24 -5 -31 -24 -33 -13
-2 -28 2 -35 8 -8 9 -6 11 10 6 29 -9 50 16 29 34 -12 10 -18 10 -30 0 -13
-11 -15 -7 -15 24 0 35 1 36 38 34 36 -1 36 -1 5 -5z m95 0 c-33 -5 -37 -30
-7 -35 31 -4 46 -32 30 -52 -15 -18 -56 -21 -66 -5 -4 6 4 9 22 7 22 -2 28 1
28 17 0 15 -6 19 -22 18 -19 -2 -23 2 -23 27 0 27 3 30 33 29 30 -2 30 -2 5
-6z m160 -16 c2 -11 -8 -32 -23 -47 l-27 -28 28 -5 c24 -3 23 -4 -9 -6 l-39
-1 27 31 c31 37 29 65 -3 62 -14 -2 -21 1 -17 8 11 17 59 6 63 -14z m72 -26
c0 -39 4 -51 18 -54 9 -3 -1 -5 -23 -5 -22 0 -32 2 -22 5 12 3 17 15 17 43 0
33 -3 38 -17 33 -16 -6 -16 -5 -4 10 23 28 31 19 31 -32z m162 23 c22 -47 -34
-108 -66 -73 -8 9 -7 10 8 5 20 -7 46 9 46 29 0 8 -9 10 -25 7 -17 -3 -27 1
-31 12 -18 47 47 67 68 20z m86 14 c7 -7 12 -26 12 -43 0 -17 -5 -36 -12 -43
-15 -15 -55 -16 -64 -1 -5 9 1 10 19 5 20 -5 29 -2 37 13 14 27 14 28 -19 23
-20 -3 -30 1 -35 13 -13 35 35 60 62 33z m104 -13 c16 -36 0 -79 -31 -83 -13
-2 -28 2 -35 9 -8 9 -7 11 7 6 23 -8 47 2 47 19 0 8 -10 14 -25 14 -14 0 -28
7 -31 15 -18 46 47 65 68 20z m86 13 c7 -7 12 -26 12 -43 0 -17 -5 -36 -12
-43 -15 -15 -45 -15 -54 0 -5 8 -2 9 11 5 19 -8 45 8 45 28 0 8 -9 10 -25 7
-17 -3 -27 1 -31 12 -14 37 25 63 54 34z m174 -13 c16 -36 0 -79 -31 -83 -13
-2 -28 2 -35 9 -8 9 -7 11 7 6 23 -8 47 2 47 19 0 8 -10 14 -25 14 -14 0 -28
7 -31 15 -18 46 47 65 68 20z m86 13 c7 -7 12 -26 12 -43 0 -17 -5 -36 -12
-43 -15 -15 -45 -15 -54 0 -5 8 -2 9 11 5 19 -8 45 8 45 28 0 8 -9 10 -25 7
-17 -3 -27 1 -31 12 -14 37 25 63 54 34z m104 -13 c16 -36 0 -79 -31 -83 -13
-2 -28 2 -35 9 -8 9 -7 11 7 6 23 -8 47 2 47 19 0 8 -10 14 -25 14 -14 0 -28
7 -31 15 -18 46 47 65 68 20z m100 -1 c22 -47 -34 -108 -66 -73 -8 9 -7 10 8
5 20 -7 46 9 46 29 0 8 -9 10 -25 7 -17 -3 -27 1 -31 12 -18 47 47 67 68 20z
m1997 -26 c12 -28 19 -53 16 -56 -2 -3 -7 3 -11 12 -8 22 -60 21 -73 -1 -6
-10 -11 -12 -11 -6 0 17 42 103 51 103 3 0 16 -23 28 -52z m270 -10 c11 -27
16 -48 12 -48 -5 0 -11 7 -15 15 -8 21 -62 20 -70 -1 -4 -9 -9 -14 -12 -11 -3
3 7 29 21 57 15 30 30 49 35 44 5 -5 18 -30 29 -56z m51 13 c0 -30 5 -52 13
-55 6 -3 3 -5 -8 -3 -17 2 -20 11 -23 55 -2 32 1 52 7 52 6 0 11 -21 11 -49z
m185 19 c0 -20 -6 -26 -27 -28 -20 -2 -28 -9 -28 -22 0 -10 -4 -22 -10 -25 -6
-4 -10 15 -10 50 l0 56 38 -3 c32 -3 37 -6 37 -28z m451 -3 c1 -15 4 -30 7
-33 4 -4 2 -15 -4 -25 -10 -20 -53 -26 -64 -10 -3 6 7 9 22 8 35 -3 45 29 12
41 l-23 9 23 6 c14 3 20 10 16 17 -4 7 -18 9 -32 5 -17 -4 -22 -2 -18 5 4 6
19 10 33 8 22 -2 27 -8 28 -31z m100 22 c3 -6 2 -15 -4 -21 -7 -7 -7 -16 1
-28 21 -35 -27 -65 -63 -39 -12 8 -9 9 11 5 32 -7 57 15 37 31 -7 6 -20 13
-28 16 -10 3 -7 6 8 6 14 1 22 6 19 14 -2 6 -14 11 -26 10 -13 -2 -20 1 -16 7
8 13 52 13 61 -1z m93 -3 c17 -20 10 -77 -11 -90 -26 -16 -52 4 -56 43 -4 36
12 61 38 61 10 0 23 -6 29 -14z m186 -41 l0 -50 -37 -3 -38 -3 0 56 0 56 38
-3 37 -3 0 -50z m153 24 c15 -1 15 -2 0 -6 -11 -3 -18 -14 -18 -28 0 -13 8
-29 18 -35 15 -10 15 -10 -3 -8 -14 2 -21 12 -23 33 -2 16 -9 33 -15 37 -9 6
-9 8 1 8 6 0 13 8 13 18 1 16 2 16 6 0 2 -10 12 -19 21 -19z m659 15 c3 -9 1
-24 -5 -34 -7 -12 -7 -21 0 -28 6 -6 8 -16 5 -24 -3 -8 -9 -3 -17 15 -7 15
-21 27 -31 27 -12 0 -19 -9 -22 -27 -2 -16 -5 -2 -6 30 l-1 57 35 0 c24 0 38
-5 42 -16z m49 -80 c-3 -8 -13 -14 -23 -14 -17 1 -17 1 0 11 12 7 18 24 19 57
l1 47 4 -44 c3 -24 2 -50 -1 -57z m-1500 71 c9 -8 11 -15 5 -15 -18 0 -12 -48
7 -59 15 -9 15 -10 -4 -11 -23 0 -34 17 -34 52 0 35 -35 17 -38 -20 -5 -46
-22 -40 -22 8 0 38 2 40 30 40 17 0 30 5 30 10 0 14 9 12 26 -5z m-4003 -26
c22 -2 22 -2 0 -6 -15 -3 -23 -12 -24 -26 -2 -22 -2 -22 -6 1 -2 12 -12 23
-21 23 -15 1 -15 2 1 6 9 2 18 12 18 21 1 15 2 15 6 0 2 -10 14 -19 26 -19z
m-3705 -1 c3 -14 -3 -18 -28 -18 -28 0 -31 -2 -20 -15 8 -10 21 -13 33 -9 13
4 17 2 13 -5 -16 -26 -66 -4 -66 29 0 39 61 54 68 18z m92 -19 c0 -21 -3 -44
-6 -53 -7 -18 -49 -22 -59 -6 -4 7 2 9 19 4 16 -4 26 -2 26 5 0 6 -9 11 -20
11 -27 0 -44 34 -30 60 8 14 20 20 40 18 27 -2 30 -5 30 -39z m308 29 c20 -20
14 -28 -19 -28 -20 0 -29 -4 -26 -12 2 -7 14 -13 26 -12 11 0 21 -3 21 -8 0
-17 -50 -7 -60 12 -22 40 26 80 58 48z m48 -5 c12 -17 13 -17 19 0 4 9 12 17
17 17 6 0 5 -7 -2 -15 -10 -12 -10 -21 -2 -40 7 -14 8 -25 3 -25 -5 0 -12 7
-15 16 -6 15 -8 15 -26 -1 -21 -19 -29 -8 -9 12 8 8 8 17 0 32 -14 25 -3 28
15 4z m424 13 c0 -3 -4 -8 -10 -11 -5 -3 -10 -1 -10 4 0 6 5 11 10 11 6 0 10
-2 10 -4z m308 -37 c3 -34 1 -36 -25 -35 -37 1 -40 37 -3 46 15 4 20 9 13 13
-6 4 -19 4 -29 0 -12 -4 -15 -3 -10 6 4 7 18 11 29 9 17 -2 23 -11 25 -39z
m82 32 c0 -5 -9 -7 -20 -4 -26 7 -26 -14 1 -22 25 -8 22 -38 -5 -43 -10 -2
-23 1 -30 8 -8 9 -4 10 17 5 34 -9 36 8 2 23 -16 7 -23 17 -19 27 6 16 54 21
54 6z m5828 -19 c6 17 14 29 17 26 7 -6 -21 -78 -29 -78 -8 0 -36 57 -36 72 1
7 9 -2 18 -20 l18 -32 12 32z m279 -34 c-2 -13 -4 -3 -4 22 0 25 2 35 4 23 2
-13 2 -33 0 -45z m231 40 c3 -14 -3 -18 -23 -18 -17 0 -25 -5 -22 -12 2 -7 13
-13 25 -12 12 0 19 -3 16 -8 -15 -23 -64 1 -64 32 0 39 61 54 68 18z m206 0
c8 -13 8 -23 0 -35 -28 -45 -89 -9 -64 38 13 24 48 22 64 -3z m631 -18 c0 -38
-24 -52 -50 -30 -31 25 -9 73 30 68 16 -2 20 -11 20 -38z m143 -1 c3 -34 1
-36 -25 -35 -37 1 -40 37 -3 46 15 4 20 9 13 13 -6 4 -19 4 -29 0 -12 -4 -15
-3 -10 6 4 7 18 11 29 9 17 -2 23 -11 25 -39z m137 1 c0 -38 -24 -52 -50 -30
-31 25 -9 73 30 68 16 -2 20 -11 20 -38z m103 9 c5 -43 -14 -79 -43 -79 -14 0
-25 4 -25 8 0 5 10 8 21 8 12 -1 24 5 26 12 3 8 -1 10 -11 6 -20 -8 -46 13
-46 35 0 46 73 55 78 10z m82 16 c26 -32 -13 -81 -47 -59 -35 22 -23 74 17 74
10 0 23 -7 30 -15z m-8317 -22 c-7 -2 -19 -2 -25 0 -7 3 -2 5 12 5 14 0 19 -2
13 -5z m4040 0 c-7 -2 -21 -2 -30 0 -10 3 -4 5 12 5 17 0 24 -2 18 -5z m4380
0 c-7 -2 -19 -2 -25 0 -7 3 -2 5 12 5 14 0 19 -2 13 -5z m-8138 -33 c3 -5 1
-10 -4 -10 -6 0 -11 5 -11 10 0 6 2 10 4 10 3 0 8 -4 11 -10z m6975 -6 c0 -8
-4 -12 -10 -9 -5 3 -10 10 -10 16 0 5 5 9 10 9 6 0 10 -7 10 -16z m402 -16
c-9 -9 -12 -7 -12 12 0 19 3 21 12 12 9 -9 9 -15 0 -24z m-8192 -448 c0 -18
-7 -20 -70 -20 l-70 0 0 -40 0 -40 65 0 c58 0 65 -2 65 -20 0 -18 -7 -20 -65
-20 l-64 0 -3 -57 c-2 -47 -6 -58 -22 -61 -10 -2 -22 2 -27 10 -10 15 -12 228
-3 252 5 13 24 16 100 16 87 0 94 -1 94 -20z m98 -93 c3 -104 4 -108 27 -117
15 -6 25 -17 25 -30 0 -16 -7 -20 -33 -20 -63 0 -72 15 -75 140 -4 127 -1 143
30 138 22 -3 23 -8 26 -111z m727 88 c14 -13 25 -31 25 -39 0 -23 -22 -66 -34
-66 -6 0 -3 -5 7 -11 46 -27 39 -108 -12 -129 -15 -6 -63 -10 -107 -8 l-79 3
-3 124 c-1 69 0 131 2 138 4 9 30 13 91 13 78 0 88 -2 110 -25z m125 -74 c0
-105 5 -131 24 -131 18 0 35 -21 29 -36 -7 -19 -63 -18 -85 3 -16 14 -18 33
-18 140 l0 123 25 0 c25 0 25 0 25 -99z m4967 13 c2 -7 -10 -11 -34 -10 -49 1
-51 -22 -4 -38 72 -24 63 -80 -12 -74 -22 2 -42 8 -44 15 -3 8 8 10 36 6 33
-5 41 -3 41 10 0 10 -12 19 -27 23 -51 12 -69 44 -41 72 15 15 80 12 85 -4z
m163 -4 c0 -16 7 -20 30 -20 37 0 55 -35 40 -75 -8 -21 -16 -25 -50 -25 l-40
0 0 70 c0 40 4 70 10 70 6 0 10 -9 10 -20z m570 6 c6 -8 10 -25 8 -38 -2 -18
-12 -25 -45 -32 -36 -8 -43 -14 -43 -33 0 -13 -4 -23 -10 -23 -6 0 -10 30 -10
70 l0 70 44 0 c26 0 48 -6 56 -14z m300 -54 l0 -69 -40 -1 c-34 -2 -42 2 -52
23 -8 19 -8 31 1 51 9 22 17 25 41 22 26 -4 30 -1 30 19 0 13 5 23 10 23 6 0
10 -29 10 -68z m718 33 c4 -33 -18 -55 -55 -55 -18 0 -23 -6 -23 -25 0 -16 -6
-25 -15 -25 -12 0 -15 15 -15 71 l0 70 53 -3 c49 -3 52 -4 55 -33z m706 20 c8
-8 18 -24 21 -36 7 -22 -12 -79 -26 -79 -5 0 -4 -9 3 -20 17 -27 1 -38 -18
-12 -8 12 -24 22 -35 22 -29 0 -59 36 -59 70 0 57 75 94 114 55z m286 -44 c0
-42 4 -60 14 -64 11 -5 16 4 18 35 5 62 28 62 28 0 l0 -50 -37 1 -38 2 -3 68
c-2 42 1 67 8 67 6 0 10 -25 10 -59z m60 49 c0 -5 -7 -10 -15 -10 -8 0 -15 5
-15 10 0 6 7 10 15 10 8 0 15 -4 15 -10z m115 -61 l0 -64 -33 -3 c-41 -4 -62
12 -62 47 0 33 17 51 47 51 17 0 23 6 23 21 0 12 5 19 13 17 8 -3 12 -26 12
-69z m225 3 l0 -69 -37 -1 c-45 -2 -63 12 -63 47 0 33 17 51 46 51 13 0 24 8
27 20 3 11 10 20 16 20 7 0 11 -26 11 -68z m-8731 34 c12 -13 23 -36 24 -52
l2 -29 -67 -3 c-52 -2 -68 -6 -68 -18 0 -24 45 -39 85 -27 26 8 37 8 45 -2 18
-21 -27 -45 -83 -45 -40 0 -53 5 -78 29 -65 66 -20 171 73 171 34 0 50 -6 67
-24z m128 -3 l23 -28 23 28 c24 29 67 37 67 12 0 -8 -13 -29 -29 -47 l-29 -34
29 -34 c53 -65 21 -100 -36 -40 l-29 30 -24 -30 c-23 -30 -55 -39 -67 -20 -4
6 7 28 24 49 37 47 38 51 6 81 -14 13 -25 32 -25 42 0 28 41 22 67 -9z m734
-2 c23 -23 29 -38 29 -71 0 -118 -177 -141 -206 -26 -3 14 -3 38 0 52 19 76
120 102 177 45z m194 19 c4 -6 13 -5 24 2 10 6 26 8 36 5 15 -6 16 -20 13
-118 -3 -107 -4 -112 -31 -135 -45 -38 -167 -30 -167 11 0 22 14 25 53 13 47
-14 87 1 87 34 0 17 -3 19 -12 10 -7 -7 -29 -12 -50 -12 -56 0 -88 37 -88 100
0 64 32 100 89 100 22 0 43 -4 46 -10z m5725 -5 c0 -8 7 -15 15 -15 8 0 15 -4
15 -10 0 -5 -7 -10 -15 -10 -10 0 -15 -10 -15 -29 0 -21 6 -31 23 -36 19 -6
20 -8 4 -12 -32 -8 -47 5 -47 40 0 18 -5 38 -12 45 -9 9 -9 12 0 12 7 0 12 7
12 15 0 8 5 15 10 15 6 0 10 -7 10 -15z m-1078 -40 c17 -37 -3 -75 -40 -75
-35 0 -52 16 -52 50 0 34 17 50 52 50 21 0 32 -7 40 -25z m198 14 c0 -5 -6 -9
-14 -9 -10 0 -16 -13 -18 -37 -5 -58 -28 -54 -28 5 0 48 1 49 30 50 17 0 30
-4 30 -9z m88 -1 c23 -23 13 -38 -24 -38 -45 0 -42 -24 4 -28 39 -4 33 -22 -7
-22 -34 0 -51 17 -51 50 0 31 17 50 45 50 12 0 26 -5 33 -12z m405 -5 c-16
-11 -23 -25 -23 -50 0 -45 -24 -40 -28 6 -5 49 3 61 40 60 33 0 33 0 11 -16z
m109 -8 c17 -37 -3 -75 -40 -75 -35 0 -52 16 -52 50 0 34 17 50 52 50 21 0 32
-7 40 -25z m160 -12 c2 -30 7 -38 23 -38 16 0 21 8 23 38 5 54 22 45 22 -11
l0 -49 -37 -1 c-20 -1 -41 4 -45 11 -11 17 -10 87 1 87 6 0 11 -17 13 -37z
m250 12 c17 -37 -3 -75 -40 -75 -35 0 -52 16 -52 50 0 34 17 50 52 50 21 0 32
-7 40 -25z m93 16 c3 -5 -9 -11 -27 -13 l-33 -4 33 -13 c25 -10 32 -19 30 -35
-3 -24 -53 -35 -71 -17 -8 8 -2 11 21 11 18 0 32 5 32 10 0 6 -8 10 -19 10
-24 0 -43 23 -35 44 7 17 59 23 69 7z m398 -8 c-16 -11 -23 -25 -23 -50 0 -45
-24 -40 -28 6 -5 49 3 61 40 60 33 0 33 0 11 -16z m107 -2 c15 -29 13 -31 -25
-31 -26 0 -35 -4 -35 -16 0 -12 7 -15 30 -12 19 3 29 1 27 -6 -2 -6 -18 -12
-35 -14 -26 -3 -34 1 -44 22 -17 39 3 76 41 76 20 0 34 -7 41 -19z m95 10 c3
-5 -7 -11 -22 -13 -22 -2 -28 -8 -28 -28 0 -20 6 -26 30 -30 28 -5 29 -6 10
-18 -11 -6 -14 -12 -7 -12 6 0 12 -7 12 -15 0 -9 -9 -15 -22 -14 -13 0 -18 3
-11 6 8 3 4 13 -12 31 -27 29 -33 70 -13 90 14 14 54 16 63 3z m101 -16 c15
-23 15 -27 0 -50 -29 -44 -86 -28 -86 25 0 53 57 69 86 25z m404 -15 c0 -33 3
-40 20 -40 17 0 20 7 20 41 0 28 4 39 13 37 7 -3 12 -22 12 -49 l0 -44 -40 0
-40 0 -3 48 c-2 28 1 47 7 47 6 0 11 -18 11 -40z m168 -13 l3 -48 -38 3 c-33
3 -38 6 -38 28 0 20 6 26 28 28 37 4 34 22 -4 22 -19 0 -28 4 -24 11 4 5 21 9
38 7 31 -3 32 -5 35 -51z m326 37 c3 -9 6 -30 6 -48 0 -30 -3 -33 -34 -34 -41
-2 -65 20 -46 43 7 8 23 15 36 15 13 0 24 5 24 10 0 6 -14 10 -31 10 -17 0
-28 4 -24 10 10 16 62 12 69 -6z m224 4 c23 -23 13 -38 -23 -38 -25 0 -35 -4
-35 -16 0 -11 8 -15 31 -12 17 2 32 -1 33 -7 1 -13 -55 -18 -73 -6 -8 5 -14
24 -14 41 0 17 6 36 14 41 20 12 53 11 67 -3z"/>
<path d="M5642 9038 c-17 -17 -15 -53 3 -68 22 -19 37 0 33 40 -3 37 -17 47
-36 28z"/>
<path d="M5737 9043 c-13 -12 -7 -23 13 -23 11 0 20 7 20 15 0 15 -21 21 -33
8z"/>
<path d="M5731 8996 c-9 -10 -8 -16 4 -26 21 -17 51 6 34 26 -6 8 -15 14 -19
14 -4 0 -13 -6 -19 -14z"/>
<path d="M5867 9043 c-11 -10 -8 -71 3 -78 16 -10 40 14 40 39 0 32 -27 56
-43 39z"/>
<path d="M5964 9036 c-9 -22 0 -69 13 -73 20 -7 37 36 24 63 -12 27 -29 31
-37 10z"/>
<path d="M6395 9040 c-8 -12 20 -24 35 -15 6 3 8 11 5 16 -8 12 -32 12 -40 -1z"/>
<path d="M6394 8995 c-4 -9 -2 -21 4 -27 15 -15 44 -1 40 19 -4 23 -36 29 -44
8z"/>
<path d="M6532 9038 c-17 -17 -15 -53 3 -68 22 -19 37 0 33 40 -3 37 -17 47
-36 28z"/>
<path d="M6632 9038 c-17 -17 -15 -53 3 -68 22 -19 37 0 33 40 -3 37 -17 47
-36 28z"/>
<path d="M9175 9040 c-4 -7 -3 -16 3 -22 14 -14 45 -2 40 15 -6 16 -34 21 -43
7z"/>
<path d="M9274 9039 c-10 -17 13 -36 27 -22 12 12 4 33 -11 33 -5 0 -12 -5
-16 -11z"/>
<path d="M9377 9044 c-14 -14 -7 -35 11 -32 9 2 17 10 17 17 0 16 -18 25 -28
15z"/>
<path d="M9465 9041 c-8 -15 3 -31 21 -31 9 0 14 7 12 17 -4 20 -24 28 -33 14z"/>
<path d="M9637 9044 c-14 -14 -7 -35 11 -32 9 2 17 10 17 17 0 16 -18 25 -28
15z"/>
<path d="M9725 9041 c-8 -15 3 -31 21 -31 9 0 14 7 12 17 -4 20 -24 28 -33 14z"/>
<path d="M9827 9044 c-14 -14 -7 -35 11 -32 9 2 17 10 17 17 0 16 -18 25 -28
15z"/>
<path d="M9915 9040 c-4 -7 -3 -16 3 -22 14 -14 45 -2 40 15 -6 16 -34 21 -43
7z"/>
<path d="M11930 9033 c0 -6 -3 -18 -6 -27 -4 -12 0 -16 15 -16 12 0 21 4 21 8
0 13 -29 48 -30 35z"/>
<path d="M12192 9020 c-7 -19 -6 -26 5 -28 22 -5 27 5 16 30 l-11 23 -10 -25z"/>
<path d="M12420 9030 c0 -16 5 -21 23 -18 12 2 22 10 22 18 0 8 -10 16 -22 18
-18 3 -23 -2 -23 -18z"/>
<path d="M13074 9036 c-9 -22 0 -69 13 -73 20 -7 37 36 24 63 -12 27 -29 31
-37 10z"/>
<path d="M13240 9030 c0 -17 5 -21 28 -18 16 2 27 9 27 18 0 9 -11 16 -27 18
-23 3 -28 -1 -28 -18z"/>
<path d="M13240 8980 c0 -17 5 -21 28 -18 16 2 27 9 27 18 0 9 -11 16 -27 18
-23 3 -28 -1 -28 -18z"/>
<path d="M14050 9030 c0 -17 5 -21 28 -18 16 2 27 9 27 18 0 9 -11 16 -27 18
-23 3 -28 -1 -28 -18z"/>
<path d="M4910 9010 c0 -5 9 -10 21 -10 11 0 17 5 14 10 -3 6 -13 10 -21 10
-8 0 -14 -4 -14 -10z"/>
<path d="M4994 9006 c-8 -22 3 -49 19 -43 6 2 12 14 12 27 0 27 -22 39 -31 16z"/>
<path d="M5315 9010 c-3 -5 3 -10 14 -10 12 0 21 5 21 10 0 6 -6 10 -14 10 -8
0 -18 -4 -21 -10z"/>
<path d="M6095 8981 c-3 -5 -1 -12 5 -16 12 -7 30 2 30 16 0 12 -27 12 -35 0z"/>
<path d="M12515 9010 c-3 -5 3 -10 15 -10 12 0 18 5 15 10 -3 6 -10 10 -15 10
-5 0 -12 -4 -15 -10z"/>
<path d="M12714 9006 c-8 -22 3 -49 19 -43 6 2 12 14 12 27 0 27 -22 39 -31
16z"/>
<path d="M13350 9005 c-11 -13 -11 -19 3 -33 20 -19 41 -5 35 24 -4 24 -22 28
-38 9z"/>
<path d="M13493 8978 c2 -7 10 -13 17 -13 7 0 15 6 18 13 2 7 -5 12 -18 12
-13 0 -20 -5 -17 -12z"/>
<path d="M13630 9005 c-11 -13 -11 -19 3 -33 20 -19 41 -5 35 24 -4 24 -22 28
-38 9z"/>
<path d="M13720 9005 c-11 -13 -11 -19 3 -33 20 -19 41 -5 35 24 -4 24 -22 28
-38 9z"/>
<path d="M13814 9006 c-8 -22 3 -49 19 -43 6 2 12 14 12 27 0 27 -22 39 -31
16z"/>
<path d="M5690 8430 c0 -39 1 -40 36 -40 45 0 74 15 74 40 0 25 -29 40 -74 40
-35 0 -36 -1 -36 -40z"/>
<path d="M5690 8310 l0 -40 41 0 c50 0 79 15 79 40 0 25 -29 40 -79 40 l-41 0
0 -40z"/>
<path d="M11094 8366 c-9 -24 4 -48 23 -44 12 2 18 12 18 28 0 29 -32 41 -41
16z"/>
<path d="M11582 8398 c4 -27 26 -34 52 -15 25 18 12 37 -25 37 -26 0 -30 -3
-27 -22z"/>
<path d="M11886 8365 c-8 -22 4 -45 24 -45 20 0 32 23 24 45 -4 8 -14 15 -24
15 -10 0 -20 -7 -24 -15z"/>
<path d="M12600 8394 c0 -24 3 -25 27 -19 35 8 37 11 30 30 -4 8 -18 15 -32
15 -20 0 -25 -5 -25 -26z"/>
<path d="M13304 8406 c-3 -8 -4 -29 -2 -48 2 -26 8 -34 26 -36 13 -2 30 2 38
8 17 15 19 61 2 78 -16 16 -57 15 -64 -2z"/>
<path d="M13774 8366 c-9 -24 4 -48 23 -44 12 2 18 12 18 28 0 29 -32 41 -41
16z"/>
<path d="M13994 8365 c-9 -23 3 -45 26 -45 16 0 20 7 20 30 0 23 -4 30 -20 30
-11 0 -23 -7 -26 -15z"/>
<path d="M5242 8378 c-21 -21 -13 -28 33 -28 25 0 45 4 45 8 0 15 -24 32 -45
32 -12 0 -26 -5 -33 -12z"/>
<path d="M6096 8374 c-33 -33 -10 -104 33 -104 27 0 41 21 41 60 0 56 -39 79
-74 44z"/>
<path d="M6338 8379 c-21 -12 -25 -78 -6 -97 30 -30 78 0 78 48 0 29 -22 60
-43 60 -7 0 -20 -5 -29 -11z"/>
<path d="M10974 8365 c-9 -23 3 -45 26 -45 16 0 20 7 20 30 0 23 -4 30 -20 30
-11 0 -23 -7 -26 -15z"/>
<path d="M11275 8370 c-4 -6 5 -10 19 -10 14 0 26 5 26 10 0 6 -9 10 -19 10
-11 0 -23 -4 -26 -10z"/>
<path d="M11774 8365 c-9 -23 3 -45 26 -45 16 0 20 7 20 30 0 23 -4 30 -20 30
-11 0 -23 -7 -26 -15z"/>
<path d="M12184 8365 c-9 -23 3 -45 26 -45 16 0 20 7 20 30 0 23 -4 30 -20 30
-11 0 -23 -7 -26 -15z"/>
<path d="M12790 8370 c0 -5 9 -10 20 -10 11 0 20 5 20 10 0 6 -9 10 -20 10
-11 0 -20 -4 -20 -10z"/>
<path d="M12984 8366 c-9 -24 4 -48 23 -44 12 2 18 12 18 28 0 29 -32 41 -41
16z"/>
<path d="M13578 8342 c-10 -2 -18 -8 -18 -13 0 -13 27 -11 35 2 9 13 4 16 -17
11z"/>
<path d="M13908 8342 c-10 -2 -18 -8 -18 -13 0 -13 27 -11 35 2 9 13 4 16 -17
11z"/>
<path d="M14110 8370 c0 -5 12 -10 26 -10 14 0 23 4 19 10 -3 6 -15 10 -26 10
-10 0 -19 -4 -19 -10z"/>
<path d="M4826 7264 c-9 -24 -7 -297 3 -312 5 -8 17 -12 27 -10 17 3 20 16 24
116 l5 113 85 -110 c85 -110 115 -135 131 -110 5 8 9 80 9 160 0 118 -3 149
-15 159 -8 7 -21 10 -30 7 -11 -5 -15 -30 -17 -117 l-3 -111 -79 101 c-43 56
-85 107 -93 115 -19 20 -39 19 -47 -1z"/>
<path d="M6322 7267 c-8 -9 6 -50 54 -157 36 -80 71 -151 78 -159 29 -29 50
-2 119 150 67 149 75 184 40 177 -18 -3 -43 -47 -102 -178 l-33 -75 -19 40
c-10 22 -37 79 -59 128 -38 85 -56 101 -78 74z"/>
<path d="M6915 7257 c-4 -14 -5 -82 -3 -152 3 -120 4 -128 27 -146 34 -27 85
-22 89 9 3 16 -2 22 -16 22 -35 0 -41 23 -44 156 -3 125 -4 129 -25 132 -17 2
-24 -3 -28 -21z"/>
<path d="M5224 7165 c-39 -20 -56 -51 -58 -103 -1 -52 19 -87 59 -107 41 -19
78 -19 115 0 42 22 60 53 60 107 0 38 -6 54 -28 79 -34 38 -99 49 -148 24z
m106 -54 c5 -11 10 -34 10 -51 0 -49 -16 -70 -54 -70 -42 0 -61 22 -61 70 0
21 7 45 14 54 19 23 78 21 91 -3z"/>
<path d="M5434 7165 c-8 -21 74 -215 94 -222 26 -11 42 10 89 115 35 79 43
106 34 115 -20 20 -43 -5 -75 -81 -16 -40 -32 -70 -34 -67 -3 2 -19 37 -36 77
-31 73 -59 97 -72 63z"/>
<path d="M5744 7165 c-39 -20 -56 -51 -58 -103 -1 -52 19 -87 59 -107 41 -19
78 -19 115 0 42 22 60 53 60 107 0 38 -6 54 -28 79 -34 38 -99 49 -148 24z
m106 -54 c5 -11 10 -34 10 -51 0 -49 -16 -70 -54 -70 -42 0 -61 22 -61 70 0
21 7 45 14 54 19 23 78 21 91 -3z"/>
<path d="M6015 7170 c-33 -13 -47 -36 -43 -71 3 -34 23 -47 101 -63 18 -4 27
-13 27 -26 0 -26 -39 -35 -85 -20 -45 15 -69 0 -43 -26 41 -41 157 -24 178 26
21 50 -3 72 -102 94 -19 4 -28 13 -28 26 0 25 39 36 81 21 34 -12 49 -8 49 14
0 27 -90 44 -135 25z"/>
<path d="M6683 7165 c-59 -25 -38 -51 28 -36 49 11 79 0 79 -28 0 -16 -10 -19
-61 -23 -66 -5 -89 -21 -89 -63 0 -57 76 -93 126 -60 24 16 26 16 38 -1 8 -10
20 -15 30 -11 13 5 16 21 16 86 0 44 -5 91 -11 104 -21 46 -92 60 -156 32z
m107 -134 c0 -23 -25 -51 -45 -51 -28 0 -45 13 -45 35 0 26 11 33 58 34 25 1
32 -3 32 -18z"/>
<path d="M7110 7162 c-74 -36 -78 -159 -7 -202 84 -51 187 4 187 100 0 94 -92
147 -180 102z m104 -48 c21 -20 20 -83 -1 -106 -37 -41 -103 -9 -103 52 0 59
65 93 104 54z"/>
<path d="M7344 7167 c-2 -7 -3 -60 -2 -118 3 -104 3 -104 28 -104 24 0 25 3
30 80 5 84 10 90 73 109 9 3 17 15 17 26 0 24 -35 27 -67 5 -18 -13 -22 -13
-33 0 -15 19 -39 19 -46 2z"/>
<path d="M7570 7163 c-77 -40 -77 -164 0 -204 59 -32 150 -18 158 24 3 15 -3
16 -57 10 -51 -5 -65 -3 -81 12 -39 35 -26 45 59 45 44 0 82 4 85 8 9 15 -13
78 -33 96 -29 26 -90 30 -131 9z m104 -45 c22 -31 12 -38 -50 -38 -60 0 -72
16 -32 44 31 22 64 20 82 -6z"/>
<path d="M7830 7173 c-30 -11 -50 -37 -50 -64 0 -37 23 -58 71 -65 21 -4 47
-13 56 -20 17 -13 17 -15 -2 -30 -14 -11 -30 -13 -55 -9 -58 11 -73 11 -77 -3
-6 -15 55 -42 97 -42 64 0 114 49 96 95 -6 18 -65 45 -94 45 -11 0 -25 7 -32
16 -11 12 -10 18 3 32 14 14 23 14 59 5 45 -12 58 -10 58 12 0 24 -88 43 -130
28z"/>
<path d="M8204 7170 c-40 -16 -64 -59 -64 -112 0 -41 5 -54 28 -78 37 -37 93
-48 147 -29 23 8 40 20 40 29 0 12 -13 14 -66 12 -60 -4 -68 -2 -83 19 -9 13
-16 27 -16 31 0 4 37 8 82 10 91 3 101 12 78 67 -20 50 -90 74 -146 51z m90
-46 c31 -31 20 -44 -39 -44 -41 0 -55 4 -55 14 0 22 29 46 55 46 13 0 31 -7
39 -16z"/>
<path d="M4832 6788 c-19 -19 -17 -302 3 -318 30 -25 45 -4 45 60 l0 60 55 0
c64 0 119 20 134 48 14 26 14 87 1 113 -19 34 -64 49 -148 49 -47 0 -83 -5
-90 -12z m182 -60 c21 -30 20 -44 -4 -68 -15 -15 -33 -20 -75 -20 l-55 0 0 55
0 55 59 0 c51 0 62 -3 75 -22z"/>
<path d="M6064 6786 c-10 -26 4 -46 31 -46 23 0 26 4 23 28 -3 31 -44 45 -54
18z"/>
<path d="M6617 6794 c-4 -4 -7 -34 -7 -66 l0 -59 -30 16 c-44 23 -78 19 -110
-14 -52 -51 -52 -131 0 -183 32 -31 66 -36 110 -13 25 13 29 13 34 -1 4 -9 15
-14 28 -12 23 3 23 4 23 168 0 158 -1 165 -20 168 -12 2 -24 0 -28 -4z m-23
-160 c21 -20 20 -83 -1 -106 -37 -41 -103 -9 -103 52 0 59 65 93 104 54z"/>
<path d="M7167 6794 c-4 -4 -7 -34 -7 -66 l0 -59 -30 16 c-44 23 -78 19 -110
-14 -52 -51 -52 -131 0 -183 32 -31 66 -36 110 -13 25 13 29 13 34 -1 4 -9 15
-14 28 -12 23 3 23 4 23 168 0 158 -1 165 -20 168 -12 2 -24 0 -28 -4z m-23
-160 c21 -20 20 -83 -1 -106 -37 -41 -103 -9 -103 52 0 59 65 93 104 54z"/>
<path d="M8082 6788 c-6 -6 -12 -36 -12 -65 l0 -52 -29 17 c-23 13 -37 14 -66
7 -53 -14 -79 -52 -79 -115 0 -63 26 -101 79 -115 29 -7 43 -6 65 7 25 14 29
14 43 1 9 -9 23 -13 31 -10 14 6 16 28 14 169 -3 136 -5 163 -18 166 -9 1 -21
-3 -28 -10z m-22 -157 c5 -11 10 -34 10 -51 0 -49 -16 -70 -54 -70 -42 0 -61
22 -61 70 0 21 7 45 14 54 19 23 78 21 91 -3z"/>
<path d="M8686 6790 c-39 -12 -66 -38 -87 -85 -49 -107 8 -224 118 -241 54 -8
120 10 137 38 18 30 -4 39 -52 22 -34 -11 -52 -12 -82 -4 -52 14 -70 42 -70
110 0 68 18 96 70 110 31 8 47 7 80 -6 45 -18 68 -9 56 21 -13 36 -104 54
-170 35z"/>
<path d="M8963 6785 c-40 -17 -69 -71 -59 -109 8 -33 56 -63 114 -72 80 -12
106 -59 47 -86 -20 -9 -38 -9 -78 0 -80 19 -82 19 -85 -4 -4 -25 31 -43 99
-51 58 -7 112 11 139 44 47 60 9 117 -95 142 -74 18 -98 39 -79 69 19 29 58
37 114 23 57 -15 75 -9 60 19 -20 37 -119 51 -177 25z"/>
<path d="M9285 6793 c-59 -15 -91 -71 -72 -126 11 -33 43 -51 119 -67 64 -13
73 -20 64 -55 -9 -35 -65 -44 -129 -21 -36 13 -52 15 -60 7 -32 -32 55 -76
136 -68 82 7 133 64 111 124 -10 28 -49 48 -140 72 -45 12 -60 32 -44 61 14
26 64 34 117 20 31 -9 47 -10 55 -2 34 34 -79 74 -157 55z"/>
<path d="M5130 6681 c-15 -29 -13 -183 4 -206 26 -36 43 -12 48 69 4 83 10 95
60 105 24 5 33 12 33 26 0 28 -32 31 -65 6 -27 -20 -28 -20 -33 -1 -7 26 -33
26 -47 1z"/>
<path d="M5364 6691 c-68 -30 -87 -135 -35 -193 27 -30 35 -33 86 -33 51 0 59
3 86 33 24 26 29 41 29 82 0 68 -36 110 -100 116 -25 2 -55 0 -66 -5z m97 -57
c17 -20 16 -88 -1 -109 -15 -18 -71 -20 -88 -3 -15 15 -16 82 -2 109 13 24 72
26 91 3z"/>
<path d="M5597 6693 c-4 -3 -7 -75 -7 -160 0 -133 2 -154 16 -160 25 -9 44 24
44 74 0 44 0 44 22 29 28 -20 61 -20 97 -2 33 18 51 54 51 106 0 52 -18 88
-51 106 -37 19 -69 18 -98 -2 -22 -16 -24 -16 -33 0 -9 16 -29 21 -41 9z m141
-49 c16 -11 22 -25 22 -55 0 -58 -14 -79 -54 -79 -37 0 -51 12 -58 50 -8 38 5
73 32 87 32 16 31 16 58 -3z"/>
<path d="M5880 6681 c-15 -29 -13 -183 4 -206 26 -36 43 -12 48 69 4 83 10 95
60 105 24 5 33 12 33 26 0 28 -32 31 -65 6 -27 -20 -28 -20 -33 -1 -7 26 -33
26 -47 1z"/>
<path d="M6072 6688 c-19 -19 -16 -202 3 -218 8 -7 22 -10 30 -6 23 8 18 229
-5 234 -9 1 -21 -3 -28 -10z"/>
<path d="M6230 6683 c-77 -40 -77 -164 0 -204 59 -32 150 -18 158 24 3 15 -3
16 -57 10 -51 -5 -65 -3 -81 12 -39 35 -26 45 59 45 44 0 82 4 85 8 9 15 -13
78 -33 96 -29 26 -90 30 -131 9z m104 -45 c22 -31 12 -38 -50 -38 -60 0 -72
16 -32 44 31 22 64 20 82 -6z"/>
<path d="M6768 6689 c-18 -7 -28 -18 -28 -31 0 -18 4 -19 36 -14 19 4 41 9 48
12 18 7 61 -30 52 -44 -4 -7 -27 -12 -51 -12 -79 0 -115 -30 -101 -86 11 -44
92 -69 131 -40 17 12 21 12 31 -2 6 -9 18 -13 28 -9 25 10 23 176 -2 207 -21
26 -99 36 -144 19z m107 -141 c-18 -58 -95 -64 -95 -7 0 21 14 27 63 28 35 1
38 -1 32 -21z"/>
<path d="M7328 6684 c-54 -29 -73 -105 -42 -165 16 -32 66 -59 109 -59 38 0
95 27 95 44 0 13 -10 15 -58 10 -66 -7 -102 6 -102 36 0 18 7 20 80 20 78 0
80 1 80 24 0 85 -86 132 -162 90z m93 -34 c10 -6 19 -20 19 -30 0 -18 -7 -20
-55 -20 -59 0 -68 10 -38 42 18 20 45 23 74 8z"/>
<path d="M7590 6693 c-30 -11 -50 -37 -50 -64 0 -37 23 -58 71 -65 21 -4 47
-13 56 -20 17 -13 17 -15 -2 -30 -14 -11 -30 -13 -55 -9 -58 11 -73 11 -77 -3
-6 -15 55 -42 97 -42 64 0 114 49 96 95 -6 18 -65 45 -94 45 -11 0 -25 7 -32
16 -11 12 -10 18 3 32 14 14 23 14 59 5 45 -12 58 -10 58 12 0 24 -88 43 -130
28z"/>
<path d="M8240 6683 c-77 -40 -77 -164 0 -204 59 -32 150 -18 158 24 3 15 -3
16 -57 10 -51 -5 -65 -3 -81 12 -39 35 -26 45 59 45 44 0 82 4 85 8 9 15 -13
78 -33 96 -29 26 -90 30 -131 9z m104 -45 c22 -31 12 -38 -50 -38 -60 0 -72
16 -32 44 31 22 64 20 82 -6z"/>
<path d="M4690 5770 c0 -7 1607 -10 4800 -10 3193 0 4800 3 4800 10 0 7 -1607
10 -4800 10 -3193 0 -4800 -3 -4800 -10z"/>
<path d="M9530 5141 c0 -11 4 -21 9 -21 18 0 21 18 6 30 -13 10 -15 9 -15 -9z"/>
<path d="M9664 4955 c0 -115 2 -161 3 -102 2 59 2 154 0 210 -1 56 -3 8 -3
-108z"/>
<path d="M9804 5135 c-3 -13 -1 -38 4 -54 6 -17 7 -45 2 -68 -4 -21 -7 -74 -5
-118 1 -44 3 -188 5 -321 2 -229 1 -242 -19 -275 -40 -66 -40 -154 1 -239 18
-36 22 -61 21 -122 -1 -43 3 -78 8 -78 5 0 9 10 9 21 0 18 2 19 15 9 17 -14
19 -47 5 -86 -12 -31 6 -66 21 -42 7 10 9 10 9 -1 0 -11 3 -11 15 -1 8 7 15 9
15 6 0 -4 10 -1 23 5 19 11 20 10 10 -3 -16 -19 -128 -78 -149 -78 -8 0 -12
-4 -9 -10 3 -5 25 -9 48 -8 32 1 49 9 76 35 48 47 53 31 5 -19 -26 -27 -32
-39 -19 -34 11 4 16 4 12 0 -4 -4 -3 -12 3 -18 14 -18 0 -32 -62 -60 -31 -14
-58 -30 -60 -35 -1 -6 -30 -38 -64 -73 -54 -57 -63 -72 -87 -153 -27 -90 -32
-130 -21 -172 9 -31 24 -19 25 20 0 29 1 30 9 9 6 -13 6 -33 0 -50 -9 -25 -9
-26 5 -8 8 11 15 14 15 8 0 -16 -22 -54 -38 -67 -7 -6 -12 -15 -11 -20 1 -6
-1 -22 -5 -37 -5 -18 -3 -38 8 -59 9 -18 16 -39 16 -47 0 -8 10 -30 21 -49 18
-29 20 -37 8 -45 -10 -7 -8 -8 9 -5 13 3 21 3 18 0 -8 -8 14 -45 40 -66 13
-10 26 -34 30 -55 4 -20 14 -46 23 -56 9 -11 10 -16 4 -12 -15 8 -18 -10 -4
-18 5 -3 7 -16 3 -28 -3 -11 -1 -19 4 -16 5 4 9 -23 9 -60 1 -37 2 -132 4
-212 3 -188 -5 -615 -15 -755 -5 -60 -8 -207 -9 -325 0 -160 -2 -204 -9 -170
-5 25 -18 51 -28 58 -12 9 -16 19 -10 30 4 9 5 42 2 72 l-5 55 -15 -74 c-21
-104 -40 -105 -42 -2 -1 45 -2 91 -2 104 -1 16 4 21 17 19 19 -3 19 -6 17 127
-1 61 -8 116 -20 155 -37 120 -52 232 -65 500 -3 60 -8 113 -11 118 -3 4 -54
8 -115 8 -103 0 -109 -1 -109 -21 0 -19 5 -20 88 -18 l87 2 5 -60 c3 -33 10
-66 17 -74 9 -11 13 -109 16 -349 3 -184 3 -323 0 -307 -4 25 -8 27 -48 27
-24 0 -47 5 -51 11 -4 8 3 9 25 4 19 -4 31 -3 31 3 0 13 -100 35 -132 30 -19
-3 -14 -7 22 -20 l45 -17 -44 2 c-31 1 -46 -3 -54 -14 -19 -29 -1 -49 43 -49
46 0 80 -14 80 -33 0 -10 -18 -13 -62 -13 -56 1 -63 -1 -66 -20 -6 -39 33 -59
109 -58 77 2 88 6 69 29 -11 13 -10 18 6 30 10 8 22 15 27 15 4 0 7 -38 7 -85
0 -64 -3 -85 -13 -85 -8 0 -20 11 -27 25 -8 15 -19 24 -28 20 -7 -3 -38 -5
-68 -5 -32 0 -53 -4 -49 -9 3 -6 -4 -15 -16 -22 -38 -20 -1 -30 105 -27 62 2
97 -1 95 -7 -3 -6 -46 -9 -111 -6 l-108 3 0 -516 0 -516 1100 0 1100 0 0 850
0 850 -222 1 c-164 0 -216 3 -195 11 19 7 25 14 19 21 -20 26 -29 88 -20 141
3 22 -41 39 -63 25 -8 -5 -24 -9 -37 -9 -30 0 -53 -53 -50 -117 3 -53 11 -60
68 -64 19 -1 -44 -5 -140 -9 -96 -4 -176 -6 -178 -4 -2 1 -8 35 -13 76 -5 40
-14 91 -19 113 -5 22 -21 106 -35 186 -23 133 -24 148 -10 175 8 16 20 52 26
80 10 45 9 59 -10 115 -11 34 -21 75 -21 89 0 26 51 113 73 127 7 4 6 -1 -2
-10 -12 -16 -7 -17 66 -17 84 0 100 5 82 26 -13 16 5 54 26 54 8 0 18 15 23
32 11 44 37 48 59 9 14 -24 22 -29 43 -24 17 3 31 -1 39 -11 20 -24 -4 -49
-41 -44 -18 3 -27 0 -25 -6 2 -6 19 -12 38 -14 19 -2 38 -8 44 -13 5 -5 54 -9
110 -9 84 1 104 4 123 20 14 11 20 24 16 31 -4 8 -3 9 4 5 15 -9 54 12 46 25
-12 20 17 37 68 37 57 1 70 8 46 26 -10 7 -15 16 -11 19 3 4 -43 7 -103 7 -61
0 -114 4 -119 9 -11 10 -272 16 -320 8 -16 -3 -50 -12 -74 -21 -53 -20 -52
-20 -44 0 3 9 34 29 67 45 34 16 86 51 116 79 30 28 83 64 118 80 34 17 62 33
62 36 0 8 -99 -1 -122 -11 -13 -5 -18 -3 -18 7 0 18 34 51 43 41 4 -3 7 1 7
10 0 9 10 23 22 31 22 16 22 16 -8 16 -17 0 -39 -7 -50 -15 -10 -8 -25 -15
-33 -15 -19 0 25 47 51 56 23 7 24 24 1 24 -10 0 -49 -30 -87 -65 l-69 -65 6
35 c3 19 1 37 -4 40 -11 7 -32 -41 -31 -69 1 -11 -12 -33 -29 -50 -26 -27 -49
-79 -49 -113 0 -7 -4 -13 -8 -13 -14 0 -132 -111 -132 -124 0 -7 -9 -21 -19
-30 -11 -10 -17 -24 -14 -32 3 -8 1 -14 -5 -14 -6 0 -12 5 -14 12 -3 7 -12 9
-22 5 -22 -9 -18 -53 5 -51 13 1 16 -6 14 -33 -2 -19 -6 -37 -9 -40 -6 -6 -26
41 -26 61 0 15 -78 126 -88 126 -8 0 -52 63 -52 74 0 5 8 -1 18 -12 9 -11 29
-28 44 -37 l27 -17 -9 34 c-6 18 -10 55 -10 82 0 53 -18 126 -32 126 -4 0 -8
7 -8 15 0 8 -7 15 -16 15 -8 0 -13 4 -10 8 3 4 -8 13 -24 19 l-28 10 14 -33
c8 -19 12 -34 10 -34 -7 0 -76 133 -80 155 -7 32 -46 118 -52 112 -3 -3 6 -28
20 -56 15 -28 23 -51 19 -51 -13 1 -67 121 -68 151 -3 51 -61 112 -155 159
-25 12 -48 28 -52 34 -7 11 46 66 63 66 5 0 9 5 9 11 0 6 10 23 21 37 21 26
21 26 14 3 -5 -17 -4 -22 5 -16 7 4 4 -7 -6 -24 -10 -18 -30 -39 -44 -46 -22
-13 -23 -14 -5 -14 32 -1 109 50 149 98 44 53 69 98 61 111 -3 5 0 8 7 5 20
-8 43 54 53 144 3 29 12 66 20 82 8 15 15 36 15 46 0 9 29 45 64 78 36 34 66
72 68 86 5 28 -17 79 -34 79 -6 0 -4 -8 5 -18 19 -20 24 -67 6 -57 -5 4 -8 12
-6 18 5 15 -22 65 -39 71 -19 7 -119 -51 -116 -68 1 -8 -24 11 -57 42 -74 71
-207 153 -250 154 -17 1 -42 -4 -54 -9 -12 -6 -43 -18 -69 -28 -26 -9 -66 -29
-90 -45 -23 -16 -45 -26 -48 -23 -3 3 1 8 8 10 9 4 12 93 12 399 0 386 0 394
-20 394 -13 0 -22 -9 -26 -25z m726 -938 c-18 -17 -28 -24 -21 -14 11 13 11
17 1 17 -10 0 -10 3 0 15 7 8 16 12 21 9 5 -3 9 0 9 5 0 6 -5 11 -11 11 -5 0
-7 5 -3 11 4 7 12 6 22 -5 15 -15 14 -19 -18 -49z m-226 -462 c-4 -8 -11 -15
-16 -15 -6 0 -5 6 2 15 7 8 14 15 16 15 2 0 1 -7 -2 -15z m-34 -44 c-10 -20
-30 -37 -30 -27 0 6 33 46 38 46 1 0 -2 -9 -8 -19z m-45 -51 c-3 -5 -11 -10
-16 -10 -6 0 -7 5 -4 10 3 6 11 10 16 10 6 0 7 -4 4 -10z m-221 -89 c11 -1 16
-6 13 -15 -4 -9 3 -16 19 -20 13 -4 24 -11 24 -17 0 -6 -6 -9 -14 -6 -8 3 -16
1 -18 -5 -2 -6 -19 -13 -38 -15 -19 -3 -44 -6 -55 -8 -11 -1 -30 -3 -42 -4
-13 0 -23 -7 -23 -15 0 -7 -6 -19 -14 -25 -8 -7 -17 -30 -21 -52 -4 -21 -11
-41 -16 -45 -5 -3 -7 -9 -4 -14 3 -5 3 -21 -1 -35 -5 -19 -9 -23 -15 -14 -5 8
-3 16 4 21 16 10 3 20 -17 12 -10 -4 -14 -13 -11 -23 3 -9 -1 -26 -9 -36 -10
-14 -11 -24 -4 -32 7 -9 7 -13 -1 -13 -6 0 -11 -7 -11 -15 0 -8 6 -15 12 -15
7 0 3 -7 -9 -15 -15 -10 -19 -23 -17 -45 3 -21 -1 -30 -11 -30 -11 0 -13 16
-10 88 2 48 7 101 10 117 4 17 7 40 8 53 1 12 5 22 9 22 3 0 9 17 13 39 4 24
19 51 38 72 19 19 25 30 15 26 -10 -3 -18 -3 -18 2 0 14 28 33 39 26 9 -5 53
9 101 34 8 5 24 7 35 6 11 -1 28 -3 39 -4z m517 -618 c5 -13 5 -23 1 -23 -11
1 -56 102 -59 130 -1 23 28 -32 58 -107z m6 -55 c-3 -8 -6 -5 -6 6 -1 11 2 17
5 13 3 -3 4 -12 1 -19z m303 -67 c-5 -11 -15 -23 -21 -27 -6 -3 -3 5 6 20 20
30 30 35 15 7z m660 15 c0 -3 -4 -8 -10 -11 -5 -3 -10 -1 -10 4 0 6 5 11 10
11 6 0 10 -2 10 -4z m-700 -86 c0 -5 -5 -10 -11 -10 -5 0 -7 5 -4 10 3 6 8 10
11 10 2 0 4 -4 4 -10z m280 -877 c0 -31 -3 -53 -7 -49 -10 10 -10 106 -1 106
5 0 8 -25 8 -57z m17 -35 c-3 -8 -6 -5 -6 6 -1 11 2 17 5 13 3 -3 4 -12 1 -19z
m-289 -163 c-3 -3 -9 2 -12 12 -6 14 -5 15 5 6 7 -7 10 -15 7 -18z m25 -142
c8 -52 14 -82 26 -121 6 -19 6 -30 0 -27 -5 4 -9 13 -9 21 0 8 -5 14 -11 14
-5 0 -7 4 -4 10 3 5 2 18 -3 27 -14 28 -25 113 -14 113 6 0 12 -17 15 -37z
m-901 -1083 c-6 -41 -12 -38 -12 6 0 19 4 33 8 30 5 -3 7 -19 4 -36z"/>
<path d="M9900 3510 c-17 -4 -21 -8 -12 -14 7 -4 9 -12 6 -18 -4 -7 -2 -8 5
-4 6 4 9 12 6 17 -4 5 8 9 24 9 17 0 31 4 31 8 0 9 -26 10 -60 2z"/>
<path d="M9830 3490 c0 -13 11 -13 30 0 12 8 11 10 -7 10 -13 0 -23 -4 -23
-10z"/>
<path d="M9780 3330 c-13 -8 -12 -10 3 -10 9 0 17 5 17 10 0 12 -1 12 -20 0z"/>
<path d="M10000 5156 c0 -2 7 -9 15 -16 12 -10 15 -10 15 4 0 9 -7 16 -15 16
-8 0 -15 -2 -15 -4z"/>
<path d="M10060 5152 c0 -22 39 -42 83 -42 35 0 47 -4 47 -15 0 -8 -8 -15 -17
-15 -14 0 -15 -2 -4 -12 11 -10 14 -10 18 0 7 18 83 16 83 -3 0 -23 80 -21 80
3 1 9 7 0 15 -21 15 -43 26 -57 32 -41 2 6 10 20 18 30 13 17 14 -26 15 -338
0 -204 4 -359 9 -362 5 -4 11 -2 13 4 1 5 2 192 0 415 l-2 405 -195 0 c-107 0
-195 -4 -195 -8z"/>
<path d="M11890 4526 l0 -635 28 -4 27 -4 -27 -2 -28 -1 0 -455 c0 -250 3
-455 8 -455 4 0 13 9 20 21 11 17 11 20 0 13 -14 -8 20 32 67 80 17 17 36 44
43 60 7 16 16 26 19 22 8 -8 34 14 28 24 -2 4 23 29 57 55 33 26 58 40 55 31
-10 -27 16 -18 37 12 10 15 34 39 53 54 30 23 38 25 59 16 29 -13 39 -45 31
-95 -8 -44 -35 -83 -138 -198 -80 -90 -123 -154 -208 -316 -26 -47 -61 -112
-78 -144 -18 -32 -33 -62 -33 -67 0 -17 87 51 138 106 48 53 66 79 191 272 28
45 71 99 94 121 23 22 68 69 101 104 32 35 63 63 68 61 5 -1 6 2 3 9 -8 11
102 126 117 121 4 -1 8 5 8 14 0 8 5 12 10 9 6 -4 9 -3 8 2 -4 12 44 68 70 82
27 15 28 7 2 -21 -17 -19 -27 -48 -17 -48 2 0 19 21 37 48 19 26 38 50 43 53
5 3 -12 18 -36 32 -108 64 -195 189 -224 322 -21 98 -8 207 37 303 40 85 145
191 230 231 245 116 536 16 649 -223 40 -84 67 -205 55 -251 -4 -17 -2 -25 7
-25 9 0 10 -3 3 -8 -6 -4 -18 -32 -28 -62 -34 -107 -53 -137 -137 -222 l-47
-46 32 -29 c17 -17 47 -40 66 -54 19 -13 86 -63 149 -112 111 -87 116 -89 146
-78 42 15 45 14 45 -7 0 -12 -17 -26 -50 -42 -57 -27 -55 -27 -155 60 -127
111 -172 149 -225 192 l-54 45 -56 -26 -55 -26 0 -65 c-1 -73 -8 -91 -102
-252 -34 -60 -61 -108 -59 -108 2 0 23 20 47 43 48 48 73 87 83 130 4 16 17
33 31 39 14 6 25 15 25 20 0 23 57 -24 66 -54 13 -39 -4 -138 -35 -208 -11
-25 -37 -92 -57 -150 -49 -141 -55 -155 -129 -302 l-64 -128 435 0 434 0 0 35
c0 19 -3 35 -8 35 -4 0 -13 14 -21 31 -7 16 -16 28 -18 25 -9 -9 -46 44 -49
70 -1 14 -8 32 -15 40 -10 12 -10 17 -1 23 9 5 4 17 -17 39 -18 18 -32 26 -34
19 -2 -7 -4 6 -4 28 -1 28 2 34 7 20 6 -18 8 -17 23 11 8 16 27 35 41 42 22
10 24 15 16 37 -7 19 -6 27 4 31 7 3 22 21 32 40 10 19 26 37 36 40 9 3 27 22
39 42 12 20 24 39 26 41 2 3 22 -13 46 -35 59 -57 163 -144 171 -144 4 0 5 55
4 122 l-3 122 -58 12 c-53 10 -60 10 -76 -7 -23 -24 -81 -37 -81 -18 0 8 -4
20 -9 28 -8 13 -12 13 -27 0 -13 -11 -18 -11 -21 -1 -3 6 -12 12 -21 12 -14 0
-14 -2 -3 -9 9 -6 -3 -11 -39 -16 -65 -9 -80 3 -55 41 24 37 67 73 86 74 8 0
28 14 45 31 22 23 35 29 55 25 18 -3 37 3 60 20 18 13 41 24 52 24 10 0 16 4
12 9 -3 6 -19 4 -39 -4 -40 -17 -139 -28 -131 -15 3 4 -3 10 -12 12 -10 2 25
12 77 22 52 10 100 21 106 23 6 2 14 -6 17 -17 3 -13 10 -19 17 -15 8 5 8 11
-1 21 -10 12 -6 13 21 8 l31 -7 -2 186 c-2 103 -5 184 -7 182 -9 -8 -42 16
-42 30 0 8 -4 15 -10 15 -5 0 -10 4 -10 9 0 5 10 7 22 3 16 -4 19 -2 13 8 -6
10 -4 12 8 7 22 -8 28 16 26 102 -2 65 -4 71 -20 66 -13 -5 -19 -1 -19 10 0
10 7 15 18 13 15 -3 17 7 20 69 3 67 1 72 -20 79 -13 4 -40 6 -60 5 -22 -1
-38 2 -38 8 0 6 9 11 20 11 11 0 20 4 20 8 0 5 -48 9 -107 9 -69 1 -109 5
-111 12 -2 6 -17 11 -33 11 -31 0 -42 20 -11 21 13 0 12 2 -5 9 -13 5 -23 12
-23 15 0 11 63 -7 78 -21 20 -21 34 -17 27 7 -6 18 -4 20 13 15 18 -6 32 8 31
32 0 4 10 10 23 13 13 3 22 11 20 17 -1 7 5 12 14 12 10 0 14 6 10 15 -3 9 0
15 9 15 7 0 16 -13 20 -30 4 -19 13 -30 24 -30 9 0 21 -4 27 -9 5 -4 24 -11
42 -15 l33 -6 -2 180 -3 180 -27 0 c-15 0 -36 3 -46 6 -12 5 -15 4 -8 -4 6 -5
19 -13 30 -16 11 -3 1 -3 -22 -1 -47 6 -50 4 -27 -19 14 -15 14 -16 -2 -16
-16 0 -16 -1 2 -15 19 -14 18 -14 -3 -15 -12 0 -27 8 -32 18 -6 9 -11 11 -11
5 0 -7 -7 -13 -16 -13 -8 0 -12 5 -9 10 3 6 -3 10 -14 10 -12 0 -21 -4 -21
-10 0 -5 -7 -10 -15 -10 -12 0 -14 4 -5 19 6 12 6 22 1 25 -5 4 -11 1 -13 -4
-2 -6 -16 -8 -35 -4 -21 4 -30 11 -26 20 3 8 2 14 -1 14 -11 0 -45 -34 -41
-41 3 -3 -7 -6 -22 -6 -24 0 -25 1 -9 13 16 11 15 13 -11 16 -15 2 -29 10 -31
18 -3 19 47 39 81 33 14 -3 27 0 31 5 3 5 0 9 -7 9 -6 -1 -29 3 -49 7 -40 9
-52 26 -18 26 10 0 24 8 29 18 10 16 10 16 11 0 0 -10 7 -18 15 -18 7 0 19 8
24 18 6 9 11 12 11 5 0 -7 15 -12 39 -11 22 0 45 -3 52 -7 8 -5 10 -4 5 3 -10
17 23 15 54 -3 14 -8 32 -14 40 -14 8 0 2 6 -15 14 l-30 13 49 1 c51 1 57 12
9 17 -15 2 -29 8 -31 14 -2 5 -21 10 -41 10 -21 0 -41 3 -45 7 -4 4 -13 8 -19
9 -7 0 -21 2 -32 3 -43 3 10 21 60 20 28 0 73 4 100 9 l50 10 -41 1 c-22 0
-44 4 -48 8 -8 8 -137 5 -146 -4 -2 -2 2 -8 10 -13 13 -8 12 -10 -2 -10 -16 0
-22 13 -21 47 1 9 -17 11 -61 8 -33 -2 -51 -2 -38 1 12 3 20 10 17 15 -7 10
-9 10 98 17 15 1 27 6 27 11 0 5 -24 7 -53 5 -33 -3 -59 0 -70 8 -16 12 -16
14 4 26 19 12 20 12 15 -10 -6 -20 -4 -19 9 5 17 29 35 36 35 12 0 -10 10 -15
31 -15 24 0 30 4 25 15 -4 11 2 15 20 15 14 0 23 4 20 9 -4 5 0 12 6 14 7 3 3
6 -9 6 -21 1 -21 2 5 31 16 18 37 30 52 31 22 0 23 1 5 8 -19 8 -19 8 3 15 13
4 21 10 18 13 -3 4 -1 12 6 20 6 7 8 16 5 19 -5 5 -797 11 -972 8 -38 -1 -303
0 -587 3 l-518 4 0 -635z m1980 603 c-14 -6 -35 -8 -47 -6 -12 2 -20 0 -17 -4
3 -5 -24 -9 -60 -9 -36 0 -66 4 -66 9 0 11 28 15 135 18 63 2 75 0 55 -8z
m-886 -75 c18 -12 18 -14 -10 -25 -16 -6 -37 -15 -46 -20 -28 -14 -45 -11 -51
10 -5 21 10 54 23 46 5 -3 11 -1 14 4 7 11 43 3 70 -15z m353 -50 c-2 -2 -39
-5 -82 -6 -56 -2 -79 1 -82 10 -3 7 -22 12 -44 12 -23 0 -38 4 -34 10 3 5 19
7 34 4 16 -4 32 -1 35 5 9 14 53 15 58 1 2 -5 14 -11 28 -12 19 -2 24 1 22 15
-2 13 4 17 28 17 16 0 31 6 32 13 1 6 3 -5 5 -27 3 -21 3 -40 0 -42z m133 60
c0 -2 -13 -4 -30 -4 -16 0 -30 4 -30 8 0 5 14 7 30 4 17 -2 30 -6 30 -8z
m-1090 -14 c12 -8 10 -9 -7 -7 -12 2 -26 6 -29 10 -11 11 19 8 36 -3z m95 0
c-3 -5 -11 -10 -16 -10 -6 0 -7 5 -4 10 3 6 11 10 16 10 6 0 7 -4 4 -10z m-42
-7 c-7 -2 -19 -2 -25 0 -7 3 -2 5 12 5 14 0 19 -2 13 -5z m949 -1 c15 -6 15
-9 2 -27 -13 -17 -16 -18 -24 -5 -21 32 -12 45 22 32z m406 -39 c16 -16 16
-16 -1 -10 -10 4 -33 7 -50 8 -31 1 -31 1 -7 9 37 12 40 12 58 -7z m-214 -5
c-3 -4 6 -8 20 -8 14 0 26 -5 26 -10 0 -6 -11 -8 -26 -4 -19 5 -25 4 -20 -5 4
-6 2 -11 -4 -11 -6 0 -10 7 -8 16 2 10 -3 19 -9 21 -7 3 -13 -2 -13 -11 0 -16
-12 -21 -23 -10 -11 11 17 33 40 31 12 -1 19 -5 17 -9z m-507 -20 c-3 -8 -6
-5 -6 6 -1 11 2 17 5 13 3 -3 4 -12 1 -19z m-157 2 c0 -5 -4 -10 -10 -10 -5 0
-10 5 -10 10 0 6 5 10 10 10 6 0 10 -4 10 -10z m805 0 c-3 -5 -16 -10 -28 -9
-20 1 -20 2 3 9 14 4 26 8 28 9 2 1 0 -3 -3 -9z m-623 -28 c-12 -2 -22 -7 -22
-12 0 -4 8 -6 19 -3 21 5 33 -7 23 -24 -10 -16 -64 -20 -69 -5 -3 8 2 10 14 6
17 -5 17 -5 -1 10 -21 17 -14 36 15 36 14 0 18 4 13 13 -5 7 0 6 11 -3 18 -14
18 -15 -3 -18z m555 2 c-3 -3 -12 -4 -19 -1 -8 3 -5 6 6 6 11 1 17 -2 13 -5z
m-687 -14 c0 -5 -2 -10 -4 -10 -3 0 -8 5 -11 10 -3 6 -1 10 4 10 6 0 11 -4 11
-10z m348 -13 c31 0 32 -1 19 -20 -18 -27 -44 -43 -54 -34 -4 5 -2 12 6 16 9
6 5 14 -16 30 -18 14 -21 19 -8 14 11 -4 34 -7 53 -6z m319 7 c-3 -3 -12 -4
-19 -1 -8 3 -5 6 6 6 11 1 17 -2 13 -5z m-52 -24 c3 -5 -1 -10 -10 -10 -9 0
-13 5 -10 10 3 6 8 10 10 10 2 0 7 -4 10 -10z m45 0 c0 -5 -4 -10 -10 -10 -5
0 -10 5 -10 10 0 6 5 10 10 10 6 0 10 -4 10 -10z m51 -18 c-7 -2 -18 1 -23 6
-8 8 -4 9 13 5 13 -4 18 -8 10 -11z m-1156 -12 c8 -12 -42 -12 -70 0 -16 7
-11 9 22 9 23 1 45 -3 48 -9z m1058 3 c-7 -2 -19 -2 -25 0 -7 3 -2 5 12 5 14
0 19 -2 13 -5z m-386 -29 c-15 -8 -25 -19 -22 -24 3 -5 -5 -16 -17 -24 -35
-25 -44 -19 -14 9 14 13 26 31 26 40 0 10 9 15 28 15 l27 -1 -28 -15z m391 10
c12 -4 22 -11 22 -16 0 -5 -5 -6 -12 -2 -6 4 -20 -4 -33 -20 -18 -22 -31 -28
-81 -32 -41 -3 -54 -1 -44 6 12 7 8 10 -17 10 -43 0 -54 20 -11 21 35 1 90 15
73 19 -5 2 6 6 25 10 49 10 52 10 78 4z m-1098 -14 c0 -5 14 -10 31 -10 20 0
29 -4 26 -12 -2 -7 -10 -12 -17 -10 -7 1 -18 -2 -24 -7 -9 -7 -17 -2 -30 19
-15 26 -15 30 -2 30 9 0 16 -4 16 -10z m1173 3 c-7 -2 -19 -2 -25 0 -7 3 -2 5
12 5 14 0 19 -2 13 -5z m123 -2 c-4 -5 0 -11 6 -14 7 -2 -5 -3 -27 -1 -74 5
-80 7 -35 14 25 4 49 8 53 8 5 1 6 -2 3 -7z m-440 -16 c11 -8 14 -15 7 -15
-22 0 -14 -18 10 -23 12 -2 -8 -5 -45 -6 -38 0 -68 3 -68 9 0 5 7 7 16 3 13
-5 15 -2 9 16 -6 20 -4 22 14 16 12 -4 21 -2 21 4 0 15 13 14 36 -4z m-121 -1
c13 -5 14 -8 3 -15 -10 -7 -10 -9 0 -9 6 0 12 -4 12 -10 0 -20 -45 -3 -48 18
-4 23 5 27 33 16z m-116 -38 c-11 -9 -100 -15 -94 -6 3 6 27 10 52 10 26 0 44
-2 42 -4z m308 -2 c-3 -3 -12 -4 -19 -1 -8 3 -5 6 6 6 11 1 17 -2 13 -5z m327
0 c9 -3 16 -10 16 -14 0 -8 -50 -4 -125 10 -36 7 -34 8 27 9 36 1 73 -2 82 -5z
m84 -21 c-10 -2 -26 -2 -35 0 -10 3 -2 5 17 5 19 0 27 -2 18 -5z m-43 -23 c3
-5 1 -10 -4 -10 -6 0 -11 5 -11 10 0 6 2 10 4 10 3 0 8 -4 11 -10z m-665 -9
c0 -5 -6 -12 -12 -14 -7 -3 -3 -6 10 -6 30 -1 28 -17 -3 -23 -13 -3 -22 -1
-19 4 3 4 -5 12 -18 17 -18 8 -19 10 -5 10 10 1 15 6 12 11 -3 6 3 10 14 10
12 0 21 -4 21 -9z m70 -5 c0 -9 -8 -12 -25 -8 -28 5 -24 22 6 22 10 0 19 -6
19 -14z m206 -6 c8 0 14 -4 14 -9 0 -8 -30 -8 -58 -2 -1 1 3 7 10 15 7 8 15
10 16 5 2 -5 10 -9 18 -9z m-760 -27 c16 -21 18 -43 5 -43 -5 0 -11 10 -13 23
-2 16 -9 21 -23 19 -16 -2 -17 -1 -5 7 20 14 21 14 36 -6z m589 -13 c-3 -5
-12 -10 -18 -10 -7 0 -6 4 3 10 19 12 23 12 15 0z m155 3 c-14 -3 -30 -9 -37
-14 -6 -6 -14 -6 -17 -1 -9 15 5 22 43 21 28 -1 30 -3 11 -6z m-760 -13 c0 -5
-7 -7 -15 -4 -8 4 -15 8 -15 10 0 2 7 4 15 4 8 0 15 -4 15 -10z m310 -10 c0
-5 -4 -10 -9 -10 -6 0 -13 5 -16 10 -3 6 1 10 9 10 9 0 16 -4 16 -10z m537
-16 c-3 -3 -12 -4 -19 -1 -8 3 -5 6 6 6 11 1 17 -2 13 -5z m-321 -86 c4 -5 -2
-8 -14 -8 -12 0 -22 -6 -22 -14 0 -9 -7 -12 -20 -9 -19 5 -23 22 -8 33 11 8
55 6 64 -2z m704 8 c0 -2 -7 -6 -15 -10 -8 -3 -15 -1 -15 4 0 6 7 10 15 10 8
0 15 -2 15 -4z m-640 -26 c0 -5 -7 -10 -15 -10 -8 0 -15 5 -15 10 0 6 7 10 15
10 8 0 15 -4 15 -10z m-40 -4 c0 -11 -19 -15 -25 -6 -3 5 1 10 9 10 9 0 16 -2
16 -4z m-63 -32 c-3 -3 -12 -4 -19 -1 -8 3 -5 6 6 6 11 1 17 -2 13 -5z m913
-96 c0 -5 -9 -8 -20 -8 -19 0 -28 28 -13 43 6 7 32 -21 33 -35z m-1285 22 c-3
-5 -12 -10 -18 -10 -7 0 -6 4 3 10 19 12 23 12 15 0z m1335 -5 c0 -17 -2 -18
-25 -9 -13 5 -14 8 -3 15 19 13 28 11 28 -6z m-1880 -25 c0 -5 -2 -10 -4 -10
-3 0 -8 5 -11 10 -3 6 -1 10 4 10 6 0 11 -4 11 -10z m47 -6 c-3 -3 -12 -4 -19
-1 -8 3 -5 6 6 6 11 1 17 -2 13 -5z m543 -11 c0 -1 -9 -7 -20 -13 -16 -8 -20
-8 -20 4 0 9 8 14 20 13 11 -1 20 -2 20 -4z m1090 -53 c0 -5 -7 -10 -16 -10
-8 0 -12 5 -9 10 3 6 10 10 16 10 5 0 9 -4 9 -10z m-1213 -22 c-3 -8 -6 -5 -6
6 -1 11 2 17 5 13 3 -3 4 -12 1 -19z m-339 -40 c7 -7 33 -15 60 -19 l47 -6
-47 -2 c-26 0 -50 4 -53 10 -4 6 -17 14 -29 19 -13 6 -15 9 -5 9 8 1 20 -4 27
-11z m1337 3 c6 -11 -33 -26 -42 -17 -4 3 1 6 11 6 9 0 14 5 11 10 -3 6 -2 10
4 10 5 0 12 -4 16 -9z m-1447 -8 c-10 -2 -26 -2 -35 0 -10 3 -2 5 17 5 19 0
27 -2 18 -5z m169 1 c-3 -3 -12 -4 -19 -1 -8 3 -5 6 6 6 11 1 17 -2 13 -5z
m1298 -24 c3 -5 1 -10 -4 -10 -6 0 -11 5 -11 10 0 6 2 10 4 10 3 0 8 -4 11
-10z m-28 -43 c1 -13 -2 -15 -14 -8 -9 4 -25 7 -37 5 -12 -3 -15 -2 -8 2 6 3
10 9 7 13 -2 5 8 8 23 7 19 -1 29 -7 29 -19z m-137 -23 c0 -9 -6 -14 -12 -11
-7 2 -12 10 -10 17 2 9 -6 11 -28 7 -16 -4 -30 -2 -30 3 0 12 42 18 63 8 9 -5
17 -16 17 -24z m-1340 -48 c0 -8 -6 -17 -12 -19 -7 -3 0 -6 15 -6 19 -1 30 -8
37 -23 6 -16 9 -18 9 -7 1 9 8 20 17 23 8 3 13 10 9 16 -8 14 156 10 174 -4
10 -8 15 -8 18 1 2 7 11 9 20 6 11 -4 14 -2 9 5 -5 8 -2 10 8 6 18 -7 12 -24
-9 -24 -7 0 -15 -7 -19 -15 -3 -8 -13 -15 -21 -15 -9 0 -13 -4 -10 -10 8 -12
72 -13 77 -1 2 5 9 3 16 -5 10 -11 8 -15 -9 -24 -14 -8 -24 -8 -33 -1 -10 8
-21 5 -41 -11 -33 -25 -101 -32 -110 -10 -3 9 -10 10 -22 3 -11 -6 -24 -6 -35
0 -11 6 -19 5 -24 -2 -4 -7 -11 -2 -18 13 -7 12 -18 22 -24 21 -6 -2 -9 4 -6
12 4 8 1 15 -5 15 -6 0 -11 -6 -11 -12 0 -10 -2 -10 -8 0 -9 13 -68 6 -78 -9
-7 -12 -24 -11 -24 1 0 6 7 10 15 10 16 0 39 36 30 49 -3 5 7 14 22 19 39 14
43 14 43 -2z m-20 -87 c0 -5 -6 -8 -12 -6 -7 1 -12 -4 -10 -10 3 -16 -10 -17
-26 -1 -18 18 -14 30 8 23 12 -4 20 -2 20 5 0 6 5 8 10 5 6 -3 10 -10 10 -16z
m35 -29 c-3 -4 -15 -6 -27 -2 -21 5 -21 6 -2 12 21 8 37 3 29 -10z m1852 -2
c-3 -8 -6 -5 -6 6 -1 11 2 17 5 13 3 -3 4 -12 1 -19z m-1527 -18 c0 -5 -4 -10
-10 -10 -5 0 -10 5 -10 10 0 6 5 10 10 10 6 0 10 -4 10 -10z m1345 -10 c3 -5
17 -10 31 -10 14 0 22 4 19 10 -10 16 21 12 35 -5 17 -20 34 -19 26 2 -6 16
-6 16 11 0 10 -9 19 -26 20 -39 0 -13 -1 -17 -4 -10 -3 6 -9 10 -14 6 -5 -3
-9 0 -9 6 0 6 -10 8 -26 4 -17 -4 -25 -3 -21 3 4 6 -13 9 -44 9 -34 -1 -48 2
-45 11 3 6 0 14 -7 17 -7 2 -5 5 5 5 9 1 20 -3 23 -9z m186 -7 c0 -5 2 -16 4
-25 2 -9 -2 -19 -9 -21 -7 -3 -13 6 -14 24 -1 16 2 29 8 29 5 0 10 -3 11 -7z
m-1841 -53 c0 -5 -4 -10 -10 -10 -5 0 -10 -4 -10 -10 0 -17 40 -11 70 10 16
11 31 16 34 11 3 -5 -4 -11 -16 -14 -29 -8 -18 -18 21 -19 40 -1 52 -18 14
-19 -15 -1 -31 -1 -35 0 -4 0 -68 1 -143 2 -74 1 -135 5 -135 10 0 5 21 9 46
9 54 0 134 19 134 31 0 5 7 9 15 9 8 0 15 -4 15 -10z m1340 -26 c0 -14 -4 -22
-10 -19 -5 3 -10 17 -10 31 0 14 4 22 10 19 6 -3 10 -17 10 -31z m-1040 -20
c0 -5 -15 -9 -32 -8 -18 1 -39 -2 -45 -8 -10 -8 -13 -5 -13 9 0 16 7 19 45 19
25 -1 45 -6 45 -12z m1403 -34 c5 0 7 7 4 14 -4 10 -1 13 9 9 7 -3 14 -10 14
-16 0 -6 3 -7 6 -4 4 4 1 13 -6 22 -7 8 -8 15 -2 15 14 0 35 -28 28 -39 -3 -5
-19 -14 -36 -19 -33 -12 -43 -4 -47 38 -2 25 -2 25 9 3 6 -13 15 -23 21 -23z
m182 10 c3 -5 2 -10 -4 -10 -5 0 -13 5 -16 10 -3 6 -2 10 4 10 5 0 13 -4 16
-10z m-212 -37 c7 -10 1 -13 -27 -13 -22 0 -36 5 -36 13 0 16 44 36 49 22 2
-5 8 -16 14 -22z m162 18 c10 -17 -12 -21 -25 -6 -10 12 -10 15 3 15 9 0 18
-4 22 -9z m-48 -19 c14 11 15 10 8 -12 -5 -14 -8 -37 -7 -52 2 -27 -20 -58
-41 -58 -6 0 -2 7 9 15 13 10 14 14 4 13 -9 -2 -15 6 -17 22 -2 23 -2 23 7 5
8 -17 10 -16 9 10 -2 46 2 72 8 57 4 -10 8 -10 20 0z m-252 -12 c3 -5 -1 -10
-9 -10 -9 0 -16 5 -16 10 0 6 4 10 9 10 6 0 13 -4 16 -10z m58 -7 c-7 -2 -21
-2 -30 0 -10 3 -4 5 12 5 17 0 24 -2 18 -5z m-246 -9 c-3 -3 -12 -4 -19 -1 -8
3 -5 6 6 6 11 1 17 -2 13 -5z m325 -21 c-3 -14 0 -23 9 -23 7 0 9 3 6 7 -8 7
11 33 24 33 5 0 9 -5 9 -11 0 -5 -4 -8 -10 -4 -5 3 -7 -9 -5 -30 5 -37 -7 -47
-24 -17 -8 14 -13 15 -30 5 -21 -13 -38 -2 -26 17 3 5 1 19 -5 30 -10 19 -9
21 23 18 29 -2 33 -5 29 -25z m-67 7 c3 -5 -1 -10 -9 -10 -9 0 -16 5 -16 10 0
6 4 10 9 10 6 0 13 -4 16 -10z m265 -66 c0 -6 -7 -11 -15 -11 -8 0 -15 8 -15
18 0 10 -4 21 -10 24 -5 3 -10 14 -10 23 0 12 7 9 25 -13 13 -16 24 -35 25
-41z m-200 6 c0 -5 -2 -10 -4 -10 -3 0 -8 5 -11 10 -3 6 -1 10 4 10 6 0 11 -4
11 -10z m-125 -10 c-3 -5 -13 -10 -21 -10 -8 0 -12 5 -9 10 3 6 13 10 21 10 8
0 12 -4 9 -10z m322 -42 c13 -11 8 -28 -7 -28 -5 0 -7 6 -4 14 4 11 -1 14 -20
12 -17 -2 -26 2 -26 11 0 15 33 10 57 -9z m-590 -15 c-3 -3 -11 -2 -17 2 -9 6
-9 10 1 16 14 8 27 -7 16 -18z m78 17 c-3 -5 -2 -10 3 -10 20 0 -1 -38 -22
-42 -20 -4 -23 0 -24 29 -1 29 2 33 24 33 14 0 22 -4 19 -10z m115 -1 c0 -5
-4 -7 -10 -4 -5 3 -10 -1 -10 -9 0 -9 -4 -16 -9 -16 -6 0 -9 9 -8 20 1 20 37
30 37 9z m87 4 c-4 -3 -1 -13 5 -21 10 -11 9 -17 -6 -27 -12 -10 -16 -21 -11
-37 6 -22 6 -22 -9 -4 -9 11 -16 26 -16 33 0 7 -3 13 -6 13 -10 0 -34 -28 -34
-39 0 -6 -4 -11 -10 -11 -13 0 -13 21 0 54 6 16 17 26 30 26 11 0 20 5 20 10
0 6 10 10 22 10 12 0 18 -3 15 -7z m123 -12 c0 -22 -29 -36 -44 -21 -7 7 -5
10 7 10 20 0 23 16 5 23 -7 3 -3 6 10 6 15 1 22 -5 22 -18z m-21 -58 c-1 -10
1 -26 5 -35 4 -9 3 -25 -3 -35 -9 -15 -10 -16 -11 -2 0 9 -6 22 -14 28 -11 9
-11 17 -2 36 13 29 28 33 25 8z m-75 -9 c5 -14 4 -15 -9 -4 -17 14 -19 20 -6
20 5 0 12 -7 15 -16z m90 -110 c4 -15 2 -32 -3 -37 -8 -8 -11 -3 -11 16 0 15
-5 27 -11 27 -5 0 -7 5 -4 10 11 17 23 11 29 -16z m-301 -319 c-10 -13 -25
-24 -33 -24 -10 0 -5 8 13 24 36 32 43 32 20 0z m-46 -51 c-3 -3 -12 -4 -19
-1 -8 3 -5 6 6 6 11 1 17 -2 13 -5z m301 -61 c2 -11 -4 -27 -12 -36 -9 -9 -16
-20 -16 -25 0 -16 -23 -30 -61 -36 l-36 -5 2 44 c1 53 4 57 58 71 52 15 61 13
65 -13z m-118 -427 c0 -6 -7 -1 -15 10 -8 10 -15 23 -15 28 0 6 7 1 15 -10 8
-10 15 -23 15 -28z"/>
<path d="M13313 5033 c-18 -7 -16 -23 2 -23 8 0 15 7 15 15 0 8 -1 15 -2 14
-2 0 -9 -3 -15 -6z"/>
<path d="M12357 4108 c-14 -8 -16 -13 -6 -24 9 -11 9 -17 -1 -29 -18 -22 -3
-18 22 5 13 12 17 20 9 20 -10 0 -11 3 -2 14 15 18 1 27 -22 14z"/>
<path d="M12267 4081 c-5 -20 2 -35 19 -38 6 -1 9 10 6 28 -5 33 -17 38 -25
10z"/>
<path d="M12220 4066 c0 -14 5 -26 10 -26 6 0 10 9 10 19 0 11 -4 23 -10 26
-6 4 -10 -5 -10 -19z"/>
<path d="M13985 5140 c-3 -5 -2 -10 4 -10 5 0 13 5 16 10 3 6 2 10 -4 10 -5 0
-13 -4 -16 -10z"/>
<path d="M14032 5129 c2 -6 7 -10 11 -10 4 1 16 1 27 1 11 0 20 5 20 10 0 6
-14 10 -31 10 -17 0 -29 -5 -27 -11z"/>
<path d="M14052 5078 c7 -19 38 -22 38 -4 0 10 -9 16 -21 16 -12 0 -19 -5 -17
-12z"/>
<path d="M9404 5036 c-4 -9 -4 -29 -1 -45 3 -15 1 -33 -4 -38 -19 -19 8 -25
53 -12 l43 13 -38 10 c-34 9 -38 12 -32 35 11 42 11 43 -2 48 -7 3 -16 -3 -19
-11z"/>
<path d="M9470 5029 c0 -11 4 -18 10 -14 5 3 7 12 3 20 -7 21 -13 19 -13 -6z"/>
<path d="M14014 5020 c-5 -5 -31 -11 -59 -13 -38 -2 -31 -4 28 -5 42 -1 77 0
77 3 0 11 -38 23 -46 15z"/>
<path d="M4895 5003 c-59 -15 -91 -71 -72 -126 11 -33 43 -51 119 -67 64 -13
73 -20 64 -55 -9 -35 -65 -44 -129 -21 -36 13 -52 15 -60 7 -32 -32 55 -76
136 -68 82 7 133 64 111 124 -10 28 -49 48 -140 72 -45 12 -60 32 -44 61 14
26 64 34 117 20 31 -9 47 -10 55 -2 34 34 -79 74 -157 55z"/>
<path d="M5407 5003 c-4 -3 -7 -78 -7 -165 0 -138 2 -159 16 -165 10 -4 22 1
30 11 12 17 14 17 36 2 43 -31 114 -11 136 39 16 35 15 100 -2 134 -25 47 -91
65 -134 35 -22 -15 -22 -15 -22 31 0 66 -27 105 -53 78z m151 -155 c15 -15 16
-82 2 -109 -13 -23 -72 -26 -90 -4 -7 9 -13 33 -13 55 0 22 6 46 13 55 15 18
71 20 88 3z"/>
<path d="M14020 4980 c0 -11 14 -11 50 0 22 7 21 8 -12 9 -21 1 -38 -3 -38 -9z"/>
<path d="M9524 4915 c4 -11 -2 -15 -22 -16 -15 -1 -31 -1 -35 0 -5 1 -6 -3 -2
-9 3 -5 17 -10 30 -10 22 0 23 -4 30 -92 4 -51 5 -252 3 -446 l-3 -353 24 3
c16 2 25 10 28 26 1 13 0 21 -4 19 -14 -9 -16 790 -3 858 5 25 -2 35 -26 35
-19 0 -25 -4 -20 -15z"/>
<path d="M13860 4920 c0 -5 7 -10 16 -10 8 0 12 5 9 10 -3 6 -10 10 -16 10 -5
0 -9 -4 -9 -10z"/>
<path d="M13940 4920 c-9 -6 -10 -10 -3 -10 6 0 15 5 18 10 8 12 4 12 -15 0z"/>
<path d="M5174 4901 c-68 -30 -87 -135 -35 -193 27 -30 35 -33 86 -33 51 0 59
3 86 33 24 26 29 41 29 82 0 68 -36 110 -100 116 -25 2 -55 0 -66 -5z m97 -57
c17 -20 16 -88 -1 -109 -15 -18 -71 -20 -88 -3 -15 15 -16 82 -2 109 13 24 72
26 91 3z"/>
<path d="M5690 4891 c-15 -29 -13 -183 4 -206 26 -36 43 -12 48 69 4 83 10 95
60 105 24 5 33 12 33 26 0 28 -32 31 -65 6 -27 -20 -28 -20 -33 -1 -7 26 -33
26 -47 1z"/>
<path d="M5924 4900 c-40 -16 -64 -59 -64 -112 0 -41 5 -54 28 -78 37 -37 93
-48 147 -29 23 8 40 20 40 29 0 12 -13 14 -66 12 -60 -4 -68 -2 -83 19 -9 13
-16 27 -16 31 0 4 37 8 82 10 91 3 101 12 78 67 -20 50 -90 74 -146 51z m90
-46 c31 -31 20 -44 -39 -44 -41 0 -55 4 -55 14 0 22 29 46 55 46 13 0 31 -7
39 -16z"/>
<path d="M13730 4889 c0 -5 5 -7 10 -4 6 3 10 8 10 11 0 2 -4 4 -10 4 -5 0
-10 -5 -10 -11z"/>
<path d="M13960 4890 c0 -5 5 -10 11 -10 5 0 7 5 4 10 -3 6 -8 10 -11 10 -2 0
-4 -4 -4 -10z"/>
<path d="M14058 4894 c6 -3 10 -10 6 -15 -3 -5 2 -9 11 -9 23 0 13 24 -11 27
-10 2 -13 0 -6 -3z"/>
<path d="M13818 4873 c7 -3 16 -2 19 1 4 3 -2 6 -13 5 -11 0 -14 -3 -6 -6z"/>
<path d="M11091 4854 c0 -11 3 -14 6 -6 3 7 2 16 -1 19 -3 4 -6 -2 -5 -13z"/>
<path d="M9721 4828 c1 -7 4 -24 9 -38 l7 -25 12 28 c6 16 9 33 5 38 -8 14
-34 11 -33 -3z"/>
<path d="M11083 4730 c0 -30 2 -43 4 -27 2 15 2 39 0 55 -2 15 -4 2 -4 -28z"/>
<path d="M14058 4743 c7 -3 16 -2 19 1 4 3 -2 6 -13 5 -11 0 -14 -3 -6 -6z"/>
<path d="M11073 4575 c0 -27 2 -38 4 -22 2 15 2 37 0 50 -2 12 -4 0 -4 -28z"/>
<path d="M11055 4405 c-4 -64 -5 -118 -2 -121 2 -3 8 47 12 111 4 64 5 118 2
121 -2 3 -8 -47 -12 -111z"/>
<path d="M13940 4319 c0 -5 5 -7 10 -4 6 3 10 8 10 11 0 2 -4 4 -10 4 -5 0
-10 -5 -10 -11z"/>
<path d="M14046 4258 c3 -4 9 -8 15 -8 5 0 9 4 9 8 0 5 -7 9 -15 9 -8 0 -12
-4 -9 -9z"/>
<path d="M11042 4180 c0 -14 2 -19 5 -12 2 6 2 18 0 25 -3 6 -5 1 -5 -13z"/>
<path d="M5392 4164 c-7 -8 -8 -14 -2 -14 5 0 10 -15 10 -34 0 -19 3 -37 8
-40 4 -2 6 13 4 35 -3 32 -1 39 14 40 15 0 15 2 4 6 -8 3 -17 9 -20 13 -3 4
-11 2 -18 -6z"/>
<path d="M6388 4168 c-2 -7 -1 -29 3 -48 l6 -35 2 33 c1 23 6 32 19 33 13 0
14 2 2 6 -8 3 -18 10 -21 15 -3 5 -8 4 -11 -4z"/>
<path d="M8122 4164 c-7 -8 -8 -14 -2 -14 5 0 10 -15 10 -34 0 -19 3 -37 8
-40 4 -2 6 13 4 35 -3 32 -1 39 14 40 15 0 15 2 4 6 -8 3 -17 9 -20 13 -3 4
-11 2 -18 -6z"/>
<path d="M4912 4130 c0 -19 2 -27 5 -17 2 9 2 25 0 35 -3 9 -5 1 -5 -18z"/>
<path d="M4802 4130 c0 -14 2 -19 5 -12 2 6 2 18 0 25 -3 6 -5 1 -5 -13z"/>
<path d="M5079 4143 c-3 -22 1 -107 6 -111 3 -3 5 22 5 56 0 34 -2 62 -5 62
-3 0 -5 -3 -6 -7z"/>
<path d="M5193 4110 c0 -25 2 -35 4 -22 2 12 2 32 0 45 -2 12 -4 2 -4 -23z"/>
<path d="M5573 4110 c0 -25 2 -35 4 -22 2 12 2 32 0 45 -2 12 -4 2 -4 -23z"/>
<path d="M5630 4134 c0 -8 5 -12 10 -9 6 4 8 11 5 16 -9 14 -15 11 -15 -7z"/>
<path d="M5745 4139 c-4 -6 -5 -12 -2 -15 2 -3 7 2 10 11 7 17 1 20 -8 4z"/>
<path d="M6005 4139 c-4 -6 -5 -12 -2 -15 2 -3 7 2 10 11 7 17 1 20 -8 4z"/>
<path d="M6073 4090 c0 -36 2 -50 4 -32 2 17 2 47 0 65 -2 17 -4 3 -4 -33z"/>
<path d="M6123 4115 c0 -22 2 -30 4 -17 2 12 2 30 0 40 -3 9 -5 -1 -4 -23z"/>
<path d="M6560 4111 c0 -23 2 -41 4 -41 8 0 12 71 4 76 -4 3 -8 -13 -8 -35z"/>
<path d="M6893 4110 c0 -25 2 -35 4 -22 2 12 2 32 0 45 -2 12 -4 2 -4 -23z"/>
<path d="M7013 4110 c0 -25 2 -35 4 -22 2 12 2 32 0 45 -2 12 -4 2 -4 -23z"/>
<path d="M7060 4089 c0 -34 2 -60 5 -58 8 9 11 110 3 115 -4 3 -8 -23 -8 -57z"/>
<path d="M7513 4110 c0 -25 2 -35 4 -22 2 12 2 32 0 45 -2 12 -4 2 -4 -23z"/>
<path d="M7570 4134 c0 -8 5 -12 10 -9 6 4 8 11 5 16 -9 14 -15 11 -15 -7z"/>
<path d="M7796 4137 c3 -10 9 -15 12 -12 3 3 0 11 -7 18 -10 9 -11 8 -5 -6z"/>
<path d="M8013 4110 c0 -25 2 -35 4 -22 2 12 2 32 0 45 -2 12 -4 2 -4 -23z"/>
<path d="M8515 4139 c-4 -6 -5 -12 -2 -15 2 -3 7 2 10 11 7 17 1 20 -8 4z"/>
<path d="M8583 4090 c0 -36 2 -50 4 -32 2 17 2 47 0 65 -2 17 -4 3 -4 -33z"/>
<path d="M8693 4110 c0 -25 2 -35 4 -22 2 12 2 32 0 45 -2 12 -4 2 -4 -23z"/>
<path d="M5850 4131 c0 -6 4 -13 10 -16 6 -3 7 1 4 9 -7 18 -14 21 -14 7z"/>
<path d="M6953 4105 c0 -22 2 -30 4 -17 2 12 2 30 0 40 -3 9 -5 -1 -4 -23z"/>
<path d="M5462 4110 c0 -14 2 -19 5 -12 2 6 2 18 0 25 -3 6 -5 1 -5 -13z"/>
<path d="M5812 4110 c0 -14 2 -19 5 -12 2 6 2 18 0 25 -3 6 -5 1 -5 -13z"/>
<path d="M6450 4111 c0 -25 6 -27 13 -6 4 8 2 17 -3 20 -6 4 -10 -3 -10 -14z"/>
<path d="M6782 4110 c0 -14 2 -19 5 -12 2 6 2 18 0 25 -3 6 -5 1 -5 -13z"/>
<path d="M7240 4111 c0 -25 6 -27 13 -6 4 8 2 17 -3 20 -6 4 -10 -3 -10 -14z"/>
<path d="M7400 4111 c0 -25 6 -27 13 -6 4 8 2 17 -3 20 -6 4 -10 -3 -10 -14z"/>
<path d="M7862 4100 c0 -19 2 -27 5 -17 2 9 2 25 0 35 -3 9 -5 1 -5 -18z"/>
<path d="M7900 4111 c0 -25 6 -27 13 -6 4 8 2 17 -3 20 -6 4 -10 -3 -10 -14z"/>
<path d="M8082 4100 c0 -19 2 -27 5 -17 2 9 2 25 0 35 -3 9 -5 1 -5 -18z"/>
<path d="M8192 4110 c0 -14 2 -19 5 -12 2 6 2 18 0 25 -3 6 -5 1 -5 -13z"/>
<path d="M8352 4110 c0 -14 2 -19 5 -12 2 6 2 18 0 25 -3 6 -5 1 -5 -13z"/>
<path d="M5230 4109 c0 -5 5 -7 10 -4 6 3 10 8 10 11 0 2 -4 4 -10 4 -5 0 -10
-5 -10 -11z"/>
<path d="M6220 4109 c0 -5 5 -7 10 -4 6 3 10 8 10 11 0 2 -4 4 -10 4 -5 0 -10
-5 -10 -11z"/>
<path d="M8730 4109 c0 -5 5 -7 10 -4 6 3 10 8 10 11 0 2 -4 4 -10 4 -5 0 -10
-5 -10 -11z"/>
<path d="M13165 4083 c8 -20 13 -38 10 -41 -8 -9 -74 -8 -69 0 3 4 -2 8 -10 8
-9 0 -16 7 -16 16 0 9 -5 14 -12 12 -6 -2 -20 4 -30 14 -26 26 -36 22 -32 -11
3 -26 1 -28 -19 -24 -12 3 -28 11 -36 17 -12 9 -13 8 -8 -6 9 -25 -12 -23 -41
5 -23 20 -25 21 -17 2 9 -23 9 -24 1 -89 -3 -27 -10 -54 -17 -60 -9 -8 -10 -6
-5 8 4 13 2 17 -8 13 -8 -3 -17 1 -20 9 -11 28 -23 13 -19 -22 2 -22 15 -48
31 -65 26 -28 50 -40 37 -19 -3 6 4 10 17 10 l23 -1 -24 -19 c-23 -20 -43 -26
-38 -12 1 4 -2 9 -8 10 -5 2 -18 8 -28 14 -16 8 -17 7 -8 -10 6 -11 7 -22 4
-26 -3 -3 -1 -6 5 -6 13 0 16 -38 6 -64 -9 -24 -25 -8 -18 18 6 25 -9 36 -54
42 -19 2 -22 -1 -17 -17 4 -10 8 -31 11 -45 3 -15 10 -36 15 -47 6 -11 7 -17
2 -14 -4 3 -9 -5 -9 -18 l-2 -24 41 27 c23 15 51 36 63 47 12 12 35 27 51 35
15 8 40 22 55 32 14 10 35 18 47 18 11 0 26 9 33 20 7 11 18 20 24 20 20 0 94
60 94 77 0 14 -2 14 -20 -2 -11 -10 -20 -13 -20 -8 0 11 16 20 34 21 5 0 13 6
17 14 7 10 9 9 9 -4 0 -25 9 -22 46 13 18 17 43 36 55 43 30 15 37 36 10 29
-13 -3 -21 -1 -21 6 0 7 -4 9 -10 6 -5 -3 -10 1 -10 10 0 11 -5 15 -14 12 -8
-3 -26 9 -42 29 -40 47 -59 46 -39 -3z m0 -72 c-3 -6 -11 -11 -17 -11 -6 0 -6
6 2 15 14 17 26 13 15 -4z m-135 -11 c0 -5 -4 -10 -10 -10 -5 0 -10 5 -10 10
0 6 5 10 10 10 6 0 10 -4 10 -10z m-108 -22 c-7 -7 -12 -8 -12 -2 0 14 12 26
19 19 2 -3 -1 -11 -7 -17z m78 -44 c0 -2 -7 -4 -15 -4 -8 0 -15 4 -15 10 0 5
7 7 15 4 8 -4 15 -8 15 -10z m-95 -34 c-3 -5 -10 -10 -16 -10 -5 0 -9 5 -9 10
0 6 7 10 16 10 8 0 12 -4 9 -10z m95 6 c0 -3 -4 -8 -10 -11 -5 -3 -10 -1 -10
4 0 6 5 11 10 11 6 0 10 -2 10 -4z m50 -34 c0 -15 -2 -15 -10 -2 -13 20 -13
33 0 25 6 -3 10 -14 10 -23z m50 8 c0 -5 -7 -7 -15 -4 -8 4 -15 8 -15 10 0 2
7 4 15 4 8 0 15 -4 15 -10z m-60 -50 c-8 -5 -17 -7 -19 -4 -3 3 1 9 9 14 8 5
17 7 19 4 3 -3 -1 -9 -9 -14z m-124 -37 c-11 -11 -19 6 -11 24 8 17 8 17 12 0
3 -10 2 -21 -1 -24z"/>
<path d="M5906 4097 c3 -10 9 -15 12 -12 3 3 0 11 -7 18 -10 9 -11 8 -5 -6z"/>
<path d="M6736 4097 c3 -10 9 -15 12 -12 3 3 0 11 -7 18 -10 9 -11 8 -5 -6z"/>
<path d="M5740 4091 c0 -6 4 -13 10 -16 6 -3 7 1 4 9 -7 18 -14 21 -14 7z"/>
<path d="M6000 4091 c0 -6 4 -13 10 -16 6 -3 7 1 4 9 -7 18 -14 21 -14 7z"/>
<path d="M8510 4091 c0 -6 4 -13 10 -16 6 -3 7 1 4 9 -7 18 -14 21 -14 7z"/>
<path d="M8890 4091 c0 -6 4 -13 10 -16 6 -3 7 1 4 9 -7 18 -14 21 -14 7z"/>
<path d="M11285 4080 c-4 -12 -5 -24 -2 -27 3 -2 8 5 12 17 4 12 5 24 2 27 -3
2 -8 -5 -12 -17z"/>
<path d="M11291 4024 c0 -11 3 -14 6 -6 3 7 2 16 -1 19 -3 4 -6 -2 -5 -13z"/>
<path d="M11288 3982 c-6 -24 6 -79 14 -66 9 13 7 73 -2 79 -4 3 -10 -3 -12
-13z"/>
<path d="M11116 3933 c-21 -21 39 -31 97 -16 30 8 18 22 -18 20 -19 -1 -35 -6
-35 -10 0 -4 -8 -3 -19 2 -10 6 -21 7 -25 4z"/>
<path d="M4873 3855 c0 -33 2 -45 4 -27 2 18 2 45 0 60 -2 15 -4 0 -4 -33z"/>
<path d="M6163 3860 c0 -30 2 -43 4 -27 2 15 2 39 0 55 -2 15 -4 2 -4 -28z"/>
<path d="M6629 3888 c0 -13 -1 -38 -2 -56 -1 -19 1 -36 5 -39 5 -2 8 23 8 56
0 34 -2 61 -5 61 -3 0 -5 -10 -6 -22z"/>
<path d="M6940 3851 c0 -34 4 -60 8 -57 8 5 5 106 -3 115 -3 2 -5 -24 -5 -58z"/>
<path d="M5022 3884 c-7 -8 -8 -14 -2 -14 5 0 10 -15 10 -34 0 -19 3 -37 8
-40 4 -2 6 13 4 35 -3 32 -1 39 14 40 15 0 15 2 4 6 -8 3 -17 9 -20 13 -3 4
-11 2 -18 -6z"/>
<path d="M7212 3884 c-7 -8 -8 -14 -3 -14 5 0 12 -17 14 -37 l4 -38 1 38 c2
28 6 37 20 38 13 0 14 2 2 6 -8 3 -17 9 -20 13 -3 4 -11 2 -18 -6z"/>
<path d="M7968 3888 c-2 -7 -1 -29 3 -48 l6 -35 2 33 c1 23 6 32 19 33 13 0
14 2 2 6 -8 3 -18 10 -21 15 -3 5 -8 4 -11 -4z"/>
<path d="M9530 3889 c0 -5 5 -7 10 -4 6 3 10 8 10 11 0 2 -4 4 -10 4 -5 0 -10
-5 -10 -11z"/>
<path d="M11144 3875 c3 -9 6 -19 6 -21 0 -2 7 -4 16 -4 22 0 13 34 -10 38
-14 3 -17 0 -12 -13z"/>
<path d="M7803 3873 c9 -2 23 -2 30 0 6 3 -1 5 -18 5 -16 0 -22 -2 -12 -5z"/>
<path d="M4807 3863 c-9 -9 -9 -61 1 -66 4 -3 7 12 7 34 0 21 0 39 -1 39 0 0
-4 -3 -7 -7z"/>
<path d="M5200 3831 c0 -23 2 -41 4 -41 8 0 12 71 4 76 -4 3 -8 -13 -8 -35z"/>
<path d="M5336 3857 c3 -10 9 -15 12 -12 3 3 0 11 -7 18 -10 9 -11 8 -5 -6z"/>
<path d="M5443 3830 c0 -25 2 -35 4 -22 2 12 2 32 0 45 -2 12 -4 2 -4 -23z"/>
<path d="M5493 3830 c0 -25 2 -35 4 -22 2 12 2 32 0 45 -2 12 -4 2 -4 -23z"/>
<path d="M5715 3859 c-4 -6 -5 -12 -2 -15 2 -3 7 2 10 11 7 17 1 20 -8 4z"/>
<path d="M6075 3859 c-4 -6 -5 -12 -2 -15 2 -3 7 2 10 11 7 17 1 20 -8 4z"/>
<path d="M6330 3831 c0 -23 2 -41 4 -41 8 0 12 71 4 76 -4 3 -8 -13 -8 -35z"/>
<path d="M6895 3830 c0 -21 3 -36 8 -33 4 2 7 17 7 33 0 16 -3 31 -7 33 -5 3
-8 -12 -8 -33z"/>
<path d="M7063 3815 c0 -33 2 -45 4 -27 2 18 2 45 0 60 -2 15 -4 0 -4 -33z"/>
<path d="M7495 3830 c0 -21 3 -36 8 -33 4 2 7 17 7 33 0 16 -3 31 -7 33 -5 3
-8 -12 -8 -33z"/>
<path d="M6458 3848 c-3 -7 -1 -24 3 -38 6 -22 7 -20 8 13 1 38 -3 47 -11 25z"/>
<path d="M7018 3833 c5 -21 7 -23 10 -9 2 10 0 22 -6 28 -6 6 -7 0 -4 -19z"/>
<path d="M7540 3851 c0 -6 4 -13 10 -16 6 -3 7 1 4 9 -7 18 -14 21 -14 7z"/>
<path d="M7748 3848 c-3 -7 -1 -24 3 -38 6 -22 7 -20 8 13 1 38 -3 47 -11 25z"/>
<path d="M5090 3831 c0 -25 6 -27 13 -6 4 8 2 17 -3 20 -6 4 -10 -3 -10 -14z"/>
<path d="M5402 3820 c0 -19 2 -27 5 -17 2 9 2 25 0 35 -3 9 -5 1 -5 -18z"/>
<path d="M5562 3820 c0 -19 2 -27 5 -17 2 9 2 25 0 35 -3 9 -5 1 -5 -18z"/>
<path d="M6672 3830 c0 -14 2 -19 5 -12 2 6 2 18 0 25 -3 6 -5 1 -5 -13z"/>
<path d="M6832 3830 c0 -14 2 -19 5 -12 2 6 2 18 0 25 -3 6 -5 1 -5 -13z"/>
<path d="M7432 3830 c0 -14 2 -19 5 -12 2 6 2 18 0 25 -3 6 -5 1 -5 -13z"/>
<path d="M8097 3843 c-2 -5 -1 -19 4 -33 7 -23 7 -23 8 8 1 31 -3 40 -12 25z"/>
<path d="M5662 3820 c0 -14 2 -19 5 -12 2 6 2 18 0 25 -3 6 -5 1 -5 -13z"/>
<path d="M5862 3820 c0 -14 2 -19 5 -12 2 6 2 18 0 25 -3 6 -5 1 -5 -13z"/>
<path d="M5977 3821 c-4 -17 -3 -21 5 -13 5 5 8 16 6 23 -3 8 -7 3 -11 -10z"/>
<path d="M6282 3820 c0 -14 2 -19 5 -12 2 6 2 18 0 25 -3 6 -5 1 -5 -13z"/>
<path d="M7100 3829 c0 -5 5 -7 10 -4 6 3 10 8 10 11 0 2 -4 4 -10 4 -5 0 -10
-5 -10 -11z"/>
<path d="M6401 3814 c0 -11 3 -14 6 -6 3 7 2 16 -1 19 -3 4 -6 -2 -5 -13z"/>
<path d="M7596 3817 c3 -10 9 -15 12 -12 3 3 0 11 -7 18 -10 9 -11 8 -5 -6z"/>
<path d="M7691 3814 c0 -11 3 -14 6 -6 3 7 2 16 -1 19 -3 4 -6 -2 -5 -13z"/>
<path d="M10395 3821 c-6 -11 9 -23 19 -14 9 9 7 23 -3 23 -6 0 -12 -4 -16 -9z"/>
<path d="M5710 3811 c0 -6 4 -13 10 -16 6 -3 7 1 4 9 -7 18 -14 21 -14 7z"/>
<path d="M6070 3811 c0 -6 4 -13 10 -16 6 -3 7 1 4 9 -7 18 -14 21 -14 7z"/>
<path d="M8190 3811 c0 -6 4 -13 10 -16 6 -3 7 1 4 9 -7 18 -14 21 -14 7z"/>
<path d="M7356 3798 c3 -5 10 -6 15 -3 13 9 11 12 -6 12 -8 0 -12 -4 -9 -9z"/>
<path d="M10437 3728 c-3 -24 -6 -154 -5 -290 1 -198 3 -250 14 -259 12 -10
14 34 14 290 -1 277 -9 365 -23 259z"/>
<path d="M13020 3701 c0 -15 72 -80 88 -81 8 0 12 6 10 12 -6 18 -98 82 -98
69z"/>
<path d="M7773 3570 c0 -36 2 -50 4 -32 2 17 2 47 0 65 -2 17 -4 3 -4 -33z"/>
<path d="M5172 3604 c-7 -8 -8 -14 -3 -14 5 0 12 -17 14 -37 l4 -38 1 38 c2
28 6 37 20 38 13 0 14 2 2 6 -8 3 -17 9 -20 13 -3 4 -11 2 -18 -6z"/>
<path d="M6662 3604 c-7 -8 -8 -14 -2 -14 5 0 10 -15 10 -34 0 -19 3 -37 8
-40 4 -2 6 13 4 35 -3 32 -1 39 14 40 15 0 15 2 4 6 -8 3 -17 9 -20 13 -3 4
-11 2 -18 -6z"/>
<path d="M5833 3593 c9 -2 23 -2 30 0 6 3 -1 5 -18 5 -16 0 -22 -2 -12 -5z"/>
<path d="M9490 3574 c0 -22 3 -24 23 -19 34 11 44 24 27 35 -29 18 -50 12 -50
-16z"/>
<path d="M4800 3529 c0 -34 2 -60 5 -58 8 9 11 110 3 115 -4 3 -8 -23 -8 -57z"/>
<path d="M4925 3579 c-4 -6 -5 -12 -2 -15 2 -3 7 2 10 11 7 17 1 20 -8 4z"/>
<path d="M5133 3550 c0 -25 2 -35 4 -22 2 12 2 32 0 45 -2 12 -4 2 -4 -23z"/>
<path d="M5393 3550 c0 -25 2 -35 4 -22 2 12 2 32 0 45 -2 12 -4 2 -4 -23z"/>
<path d="M5443 3550 c0 -25 2 -35 4 -22 2 12 2 32 0 45 -2 12 -4 2 -4 -23z"/>
<path d="M5500 3574 c0 -8 5 -12 10 -9 6 4 8 11 5 16 -9 14 -15 11 -15 -7z"/>
<path d="M5723 3550 c0 -25 2 -35 4 -22 2 12 2 32 0 45 -2 12 -4 2 -4 -23z"/>
<path d="M6423 3550 c0 -25 2 -35 4 -22 2 12 2 32 0 45 -2 12 -4 2 -4 -23z"/>
<path d="M6490 3551 c0 -23 2 -41 4 -41 8 0 12 71 4 76 -4 3 -8 -13 -8 -35z"/>
<path d="M6890 3529 c0 -34 2 -60 5 -58 8 9 11 110 3 115 -4 3 -8 -23 -8 -57z"/>
<path d="M7010 3551 c0 -23 2 -41 4 -41 8 0 12 71 4 76 -4 3 -8 -13 -8 -35z"/>
<path d="M7293 3550 c0 -25 2 -35 4 -22 2 12 2 32 0 45 -2 12 -4 2 -4 -23z"/>
<path d="M7705 3579 c-4 -6 -5 -12 -2 -15 2 -3 7 2 10 11 7 17 1 20 -8 4z"/>
<path d="M8075 3579 c-4 -6 -5 -12 -2 -15 2 -3 7 2 10 11 7 17 1 20 -8 4z"/>
<path d="M8165 3579 c-4 -6 -5 -12 -2 -15 2 -3 7 2 10 11 7 17 1 20 -8 4z"/>
<path d="M8270 3551 c0 -23 2 -41 4 -41 8 0 12 71 4 76 -4 3 -8 -13 -8 -35z"/>
<path d="M8503 3550 c0 -25 2 -35 4 -22 2 12 2 32 0 45 -2 12 -4 2 -4 -23z"/>
<path d="M8645 3579 c-4 -6 -5 -12 -2 -15 2 -3 7 2 10 11 7 17 1 20 -8 4z"/>
<path d="M5030 3571 c0 -6 4 -13 10 -16 6 -3 7 1 4 9 -7 18 -14 21 -14 7z"/>
<path d="M7488 3568 c-3 -7 -1 -24 3 -38 6 -22 7 -20 8 13 1 38 -3 47 -11 25z"/>
<path d="M7920 3571 c0 -6 4 -13 10 -16 6 -3 7 1 4 9 -7 18 -14 21 -14 7z"/>
<path d="M8343 3545 c0 -22 2 -30 4 -17 2 12 2 30 0 40 -3 9 -5 -1 -4 -23z"/>
<path d="M4882 3550 c0 -14 2 -19 5 -12 2 6 2 18 0 25 -3 6 -5 1 -5 -13z"/>
<path d="M4992 3550 c0 -14 2 -19 5 -12 2 6 2 18 0 25 -3 6 -5 1 -5 -13z"/>
<path d="M6117 3563 c-2 -5 -1 -19 4 -33 7 -23 7 -23 8 8 1 31 -3 40 -12 25z"/>
<path d="M6212 3550 c0 -14 2 -19 5 -12 2 6 2 18 0 25 -3 6 -5 1 -5 -13z"/>
<path d="M6972 3550 c0 -14 2 -19 5 -12 2 6 2 18 0 25 -3 6 -5 1 -5 -13z"/>
<path d="M7877 3563 c-2 -5 -1 -19 4 -33 7 -23 7 -23 8 8 1 31 -3 40 -12 25z"/>
<path d="M8232 3550 c0 -14 2 -19 5 -12 2 6 2 18 0 25 -3 6 -5 1 -5 -13z"/>
<path d="M8382 3550 c0 -14 2 -19 5 -12 2 6 2 18 0 25 -3 6 -5 1 -5 -13z"/>
<path d="M8712 3550 c0 -14 2 -19 5 -12 2 6 2 18 0 25 -3 6 -5 1 -5 -13z"/>
<path d="M6377 3541 c-4 -17 -3 -21 5 -13 5 5 8 16 6 23 -3 8 -7 3 -11 -10z"/>
<path d="M7607 3541 c-4 -17 -3 -21 5 -13 5 5 8 16 6 23 -3 8 -7 3 -11 -10z"/>
<path d="M7386 3537 c3 -10 9 -15 12 -12 3 3 0 11 -7 18 -10 9 -11 8 -5 -6z"/>
<path d="M7431 3534 c0 -11 3 -14 6 -6 3 7 2 16 -1 19 -3 4 -6 -2 -5 -13z"/>
<path d="M7976 3537 c3 -10 9 -15 12 -12 3 3 0 11 -7 18 -10 9 -11 8 -5 -6z"/>
<path d="M4920 3531 c0 -6 4 -13 10 -16 6 -3 7 1 4 9 -7 18 -14 21 -14 7z"/>
<path d="M6730 3531 c0 -6 4 -13 10 -16 6 -3 7 1 4 9 -7 18 -14 21 -14 7z"/>
<path d="M7700 3531 c0 -6 4 -13 10 -16 6 -3 7 1 4 9 -7 18 -14 21 -14 7z"/>
<path d="M8070 3531 c0 -6 4 -13 10 -16 6 -3 7 1 4 9 -7 18 -14 21 -14 7z"/>
<path d="M8160 3531 c0 -6 4 -13 10 -16 6 -3 7 1 4 9 -7 18 -14 21 -14 7z"/>
<path d="M8640 3531 c0 -6 4 -13 10 -16 6 -3 7 1 4 9 -7 18 -14 21 -14 7z"/>
<path d="M5316 3518 c3 -5 10 -6 15 -3 13 9 11 12 -6 12 -8 0 -12 -4 -9 -9z"/>
<path d="M9440 3515 c-8 -9 -8 -15 -2 -15 12 0 26 19 19 26 -2 2 -10 -2 -17
-11z"/>
<path d="M9530 3509 c0 -5 5 -7 10 -4 6 3 10 8 10 11 0 2 -4 4 -10 4 -5 0 -10
-5 -10 -11z"/>
<path d="M9699 3473 c-13 -16 -12 -17 4 -4 9 7 17 15 17 17 0 8 -8 3 -21 -13z"/>
<path d="M12883 3421 c10 -27 8 -33 -29 -74 -21 -24 -70 -92 -107 -151 -38
-59 -88 -131 -111 -159 -74 -91 -84 -116 -20 -52 62 63 134 152 134 167 0 15
69 111 111 155 22 23 42 50 44 61 2 12 9 30 15 42 13 25 13 25 -22 34 -25 6
-26 5 -15 -23z"/>
<path d="M12951 3417 c-17 -42 -13 -67 5 -28 8 19 13 39 10 45 -2 6 -9 -2 -15
-17z"/>
<path d="M9397 3363 c-4 -3 -7 -28 -7 -55 l0 -48 43 0 c49 0 61 7 65 37 3 18
0 22 -15 16 -16 -6 -16 -4 2 17 18 21 18 23 2 17 -11 -4 -20 -1 -23 8 -6 15
-55 21 -67 8z"/>
<path d="M5503 3295 c0 -33 2 -45 4 -27 2 18 2 45 0 60 -2 15 -4 0 -4 -33z"/>
<path d="M6993 3290 c0 -36 2 -50 4 -32 2 17 2 47 0 65 -2 17 -4 3 -4 -33z"/>
<path d="M7400 3291 c0 -34 4 -60 8 -57 8 5 5 106 -3 115 -3 2 -5 -24 -5 -58z"/>
<path d="M7672 3324 c-7 -8 -8 -14 -3 -14 5 0 12 -17 14 -37 l4 -38 1 38 c2
28 6 37 20 38 13 0 14 2 2 6 -8 3 -17 9 -20 13 -3 4 -11 2 -18 -6z"/>
<path d="M5953 3313 c9 -2 23 -2 30 0 6 3 -1 5 -18 5 -16 0 -22 -2 -12 -5z"/>
<path d="M4803 3270 c0 -25 2 -35 4 -22 2 12 2 32 0 45 -2 12 -4 2 -4 -23z"/>
<path d="M4853 3270 c0 -25 2 -35 4 -22 2 12 2 32 0 45 -2 12 -4 2 -4 -23z"/>
<path d="M5075 3299 c-4 -6 -5 -12 -2 -15 2 -3 7 2 10 11 7 17 1 20 -8 4z"/>
<path d="M5140 3253 c-3 -34 -1 -58 3 -54 5 4 7 32 5 62 l-3 54 -5 -62z"/>
<path d="M5563 3270 c0 -25 2 -35 4 -22 2 12 2 32 0 45 -2 12 -4 2 -4 -23z"/>
<path d="M5683 3270 c0 -25 2 -35 4 -22 2 12 2 32 0 45 -2 12 -4 2 -4 -23z"/>
<path d="M5901 3294 c0 -11 3 -14 6 -6 3 7 2 16 -1 19 -3 4 -6 -2 -5 -13z"/>
<path d="M6280 3249 c0 -34 2 -60 5 -58 8 9 11 110 3 115 -4 3 -8 -23 -8 -57z"/>
<path d="M6400 3271 c0 -23 2 -41 4 -41 8 0 12 71 4 76 -4 3 -8 -13 -8 -35z"/>
<path d="M6475 3299 c-4 -6 -5 -12 -2 -15 2 -3 7 2 10 11 7 17 1 20 -8 4z"/>
<path d="M6580 3249 c0 -34 2 -60 5 -58 8 9 11 110 3 115 -4 3 -8 -23 -8 -57z"/>
<path d="M6703 3270 c0 -25 2 -35 4 -22 2 12 2 32 0 45 -2 12 -4 2 -4 -23z"/>
<path d="M6773 3270 c0 -25 2 -35 4 -22 2 12 2 32 0 45 -2 12 -4 2 -4 -23z"/>
<path d="M6925 3299 c-4 -6 -5 -12 -2 -15 2 -3 7 2 10 11 7 17 1 20 -8 4z"/>
<path d="M7355 3270 c0 -21 3 -36 8 -33 4 2 7 17 7 33 0 16 -3 31 -7 33 -5 3
-8 -12 -8 -33z"/>
<path d="M7523 3255 c0 -33 2 -45 4 -27 2 18 2 45 0 60 -2 15 -4 0 -4 -33z"/>
<path d="M7955 3270 c0 -21 3 -36 8 -33 4 2 7 17 7 33 0 16 -3 31 -7 33 -5 3
-8 -12 -8 -33z"/>
<path d="M5623 3265 c0 -22 2 -30 4 -17 2 12 2 30 0 40 -3 9 -5 -1 -4 -23z"/>
<path d="M7140 3291 c0 -6 4 -13 10 -16 6 -3 7 1 4 9 -7 18 -14 21 -14 7z"/>
<path d="M7478 3273 c5 -21 7 -23 10 -9 2 10 0 22 -6 28 -6 6 -7 0 -4 -19z"/>
<path d="M8000 3291 c0 -6 4 -13 10 -16 6 -3 7 1 4 9 -7 18 -14 21 -14 7z"/>
<path d="M4922 3260 c0 -19 2 -27 5 -17 2 9 2 25 0 35 -3 9 -5 1 -5 -18z"/>
<path d="M4962 3270 c0 -14 2 -19 5 -12 2 6 2 18 0 25 -3 6 -5 1 -5 -13z"/>
<path d="M5392 3270 c0 -14 2 -19 5 -12 2 6 2 18 0 25 -3 6 -5 1 -5 -13z"/>
<path d="M6237 3283 c-2 -5 -1 -19 4 -33 7 -23 7 -23 8 8 1 31 -3 40 -12 25z"/>
<path d="M6362 3270 c0 -14 2 -19 5 -12 2 6 2 18 0 25 -3 6 -5 1 -5 -13z"/>
<path d="M6542 3270 c0 -14 2 -19 5 -12 2 6 2 18 0 25 -3 6 -5 1 -5 -13z"/>
<path d="M7097 3283 c-2 -5 -1 -19 4 -33 7 -23 7 -23 8 8 1 31 -3 40 -12 25z"/>
<path d="M7292 3270 c0 -14 2 -19 5 -12 2 6 2 18 0 25 -3 6 -5 1 -5 -13z"/>
<path d="M7892 3270 c0 -14 2 -19 5 -12 2 6 2 18 0 25 -3 6 -5 1 -5 -13z"/>
<path d="M6010 3269 c0 -5 5 -7 10 -4 6 3 10 8 10 11 0 2 -4 4 -10 4 -5 0 -10
-5 -10 -11z"/>
<path d="M7560 3269 c0 -5 5 -7 10 -4 6 3 10 8 10 11 0 2 -4 4 -10 4 -5 0 -10
-5 -10 -11z"/>
<path d="M7196 3257 c3 -10 9 -15 12 -12 3 3 0 11 -7 18 -10 9 -11 8 -5 -6z"/>
<path d="M8056 3257 c3 -10 9 -15 12 -12 3 3 0 11 -7 18 -10 9 -11 8 -5 -6z"/>
<path d="M5070 3251 c0 -6 4 -13 10 -16 6 -3 7 1 4 9 -7 18 -14 21 -14 7z"/>
<path d="M5180 3251 c0 -6 4 -13 10 -16 6 -3 7 1 4 9 -7 18 -14 21 -14 7z"/>
<path d="M6470 3251 c0 -6 4 -13 10 -16 6 -3 7 1 4 9 -7 18 -14 21 -14 7z"/>
<path d="M6810 3251 c0 -6 4 -13 10 -16 6 -3 7 1 4 9 -7 18 -14 21 -14 7z"/>
<path d="M6920 3251 c0 -6 4 -13 10 -16 6 -3 7 1 4 9 -7 18 -14 21 -14 7z"/>
<path d="M5316 3238 c3 -5 10 -6 15 -3 13 9 11 12 -6 12 -8 0 -12 -4 -9 -9z"/>
<path d="M7816 3238 c3 -5 10 -6 15 -3 13 9 11 12 -6 12 -8 0 -12 -4 -9 -9z"/>
<path d="M13200 3125 c-7 -9 -11 -18 -8 -20 3 -3 11 1 18 10 7 9 11 18 8 20
-3 3 -11 -1 -18 -10z"/>
<path d="M12933 2962 c-61 -95 -99 -191 -40 -104 20 28 39 62 42 75 4 12 14
33 22 45 8 13 13 25 11 27 -2 3 -18 -17 -35 -43z"/>
<path d="M10590 2908 c0 -4 4 -18 10 -32 5 -14 5 -28 1 -31 -5 -3 -12 2 -15
11 -10 26 -18 10 -10 -20 8 -35 18 -33 50 9 20 27 24 39 16 47 -9 9 -12 8 -12
-6 0 -16 -3 -15 -20 5 -10 13 -19 21 -20 17z"/>
<path d="M13983 2879 c12 -75 36 -147 66 -202 18 -31 35 -57 37 -57 2 0 4 40
4 88 l0 88 -56 58 -56 58 5 -33z"/>
<path d="M12530 2883 c0 -6 -35 -55 -77 -110 -66 -83 -170 -228 -196 -270 -5
-8 -3 -11 5 -8 7 3 43 46 78 96 36 51 79 108 95 128 62 74 112 158 101 169 -3
3 -6 1 -6 -5z"/>
<path d="M11323 2873 c9 -2 25 -2 35 0 9 3 1 5 -18 5 -19 0 -27 -2 -17 -5z"/>
<path d="M5392 2844 c-7 -8 -8 -14 -2 -14 5 0 10 -15 10 -34 0 -19 3 -37 8
-40 4 -2 6 13 4 35 -3 32 -1 39 14 40 15 0 15 2 4 6 -8 3 -17 9 -20 13 -3 4
-11 2 -18 -6z"/>
<path d="M6388 2848 c-2 -7 -1 -29 3 -48 l6 -35 2 33 c1 23 6 32 19 33 13 0
14 2 2 6 -8 3 -18 10 -21 15 -3 5 -8 4 -11 -4z"/>
<path d="M8122 2844 c-7 -8 -8 -14 -2 -14 5 0 10 -15 10 -34 0 -19 3 -37 8
-40 4 -2 6 13 4 35 -3 32 -1 39 14 40 15 0 15 2 4 6 -8 3 -17 9 -20 13 -3 4
-11 2 -18 -6z"/>
<path d="M9390 2770 l0 -80 69 0 69 0 4 68 c2 37 2 73 0 80 -3 8 -27 12 -73
12 l-69 0 0 -80z"/>
<path d="M4912 2810 c0 -19 2 -27 5 -17 2 9 2 25 0 35 -3 9 -5 1 -5 -18z"/>
<path d="M4802 2810 c0 -14 2 -19 5 -12 2 6 2 18 0 25 -3 6 -5 1 -5 -13z"/>
<path d="M5079 2823 c-3 -22 1 -107 6 -111 3 -3 5 22 5 56 0 34 -2 62 -5 62
-3 0 -5 -3 -6 -7z"/>
<path d="M5193 2790 c0 -25 2 -35 4 -22 2 12 2 32 0 45 -2 12 -4 2 -4 -23z"/>
<path d="M5573 2790 c0 -25 2 -35 4 -22 2 12 2 32 0 45 -2 12 -4 2 -4 -23z"/>
<path d="M5630 2814 c0 -8 5 -12 10 -9 6 4 8 11 5 16 -9 14 -15 11 -15 -7z"/>
<path d="M5745 2819 c-4 -6 -5 -12 -2 -15 2 -3 7 2 10 11 7 17 1 20 -8 4z"/>
<path d="M6005 2819 c-4 -6 -5 -12 -2 -15 2 -3 7 2 10 11 7 17 1 20 -8 4z"/>
<path d="M6073 2770 c0 -36 2 -50 4 -32 2 17 2 47 0 65 -2 17 -4 3 -4 -33z"/>
<path d="M6123 2795 c0 -22 2 -30 4 -17 2 12 2 30 0 40 -3 9 -5 -1 -4 -23z"/>
<path d="M6560 2791 c0 -23 2 -41 4 -41 8 0 12 71 4 76 -4 3 -8 -13 -8 -35z"/>
<path d="M6893 2790 c0 -25 2 -35 4 -22 2 12 2 32 0 45 -2 12 -4 2 -4 -23z"/>
<path d="M7013 2790 c0 -25 2 -35 4 -22 2 12 2 32 0 45 -2 12 -4 2 -4 -23z"/>
<path d="M7060 2769 c0 -34 2 -60 5 -58 8 9 11 110 3 115 -4 3 -8 -23 -8 -57z"/>
<path d="M7513 2790 c0 -25 2 -35 4 -22 2 12 2 32 0 45 -2 12 -4 2 -4 -23z"/>
<path d="M7570 2814 c0 -8 5 -12 10 -9 6 4 8 11 5 16 -9 14 -15 11 -15 -7z"/>
<path d="M7796 2817 c3 -10 9 -15 12 -12 3 3 0 11 -7 18 -10 9 -11 8 -5 -6z"/>
<path d="M8013 2790 c0 -25 2 -35 4 -22 2 12 2 32 0 45 -2 12 -4 2 -4 -23z"/>
<path d="M8515 2819 c-4 -6 -5 -12 -2 -15 2 -3 7 2 10 11 7 17 1 20 -8 4z"/>
<path d="M8583 2770 c0 -36 2 -50 4 -32 2 17 2 47 0 65 -2 17 -4 3 -4 -33z"/>
<path d="M8693 2790 c0 -25 2 -35 4 -22 2 12 2 32 0 45 -2 12 -4 2 -4 -23z"/>
<path d="M5850 2811 c0 -6 4 -13 10 -16 6 -3 7 1 4 9 -7 18 -14 21 -14 7z"/>
<path d="M6953 2785 c0 -22 2 -30 4 -17 2 12 2 30 0 40 -3 9 -5 -1 -4 -23z"/>
<path d="M5462 2790 c0 -14 2 -19 5 -12 2 6 2 18 0 25 -3 6 -5 1 -5 -13z"/>
<path d="M5812 2790 c0 -14 2 -19 5 -12 2 6 2 18 0 25 -3 6 -5 1 -5 -13z"/>
<path d="M6450 2791 c0 -25 6 -27 13 -6 4 8 2 17 -3 20 -6 4 -10 -3 -10 -14z"/>
<path d="M6782 2790 c0 -14 2 -19 5 -12 2 6 2 18 0 25 -3 6 -5 1 -5 -13z"/>
<path d="M7240 2791 c0 -25 6 -27 13 -6 4 8 2 17 -3 20 -6 4 -10 -3 -10 -14z"/>
<path d="M7400 2791 c0 -25 6 -27 13 -6 4 8 2 17 -3 20 -6 4 -10 -3 -10 -14z"/>
<path d="M7862 2780 c0 -19 2 -27 5 -17 2 9 2 25 0 35 -3 9 -5 1 -5 -18z"/>
<path d="M7900 2791 c0 -25 6 -27 13 -6 4 8 2 17 -3 20 -6 4 -10 -3 -10 -14z"/>
<path d="M8082 2780 c0 -19 2 -27 5 -17 2 9 2 25 0 35 -3 9 -5 1 -5 -18z"/>
<path d="M8192 2790 c0 -14 2 -19 5 -12 2 6 2 18 0 25 -3 6 -5 1 -5 -13z"/>
<path d="M8352 2790 c0 -14 2 -19 5 -12 2 6 2 18 0 25 -3 6 -5 1 -5 -13z"/>
<path d="M5230 2789 c0 -5 5 -7 10 -4 6 3 10 8 10 11 0 2 -4 4 -10 4 -5 0 -10
-5 -10 -11z"/>
<path d="M6220 2789 c0 -5 5 -7 10 -4 6 3 10 8 10 11 0 2 -4 4 -10 4 -5 0 -10
-5 -10 -11z"/>
<path d="M8730 2789 c0 -5 5 -7 10 -4 6 3 10 8 10 11 0 2 -4 4 -10 4 -5 0 -10
-5 -10 -11z"/>
<path d="M12810 2748 c-19 -29 -53 -72 -74 -97 -41 -47 -129 -165 -160 -213
-18 -27 -18 -28 3 -28 14 0 30 14 47 43 15 23 30 44 33 47 12 10 49 67 70 108
12 24 28 45 36 48 20 8 94 120 86 132 -4 6 -21 -11 -41 -40z"/>
<path d="M5906 2777 c3 -10 9 -15 12 -12 3 3 0 11 -7 18 -10 9 -11 8 -5 -6z"/>
<path d="M6736 2777 c3 -10 9 -15 12 -12 3 3 0 11 -7 18 -10 9 -11 8 -5 -6z"/>
<path d="M5740 2771 c0 -6 4 -13 10 -16 6 -3 7 1 4 9 -7 18 -14 21 -14 7z"/>
<path d="M6000 2771 c0 -6 4 -13 10 -16 6 -3 7 1 4 9 -7 18 -14 21 -14 7z"/>
<path d="M8510 2771 c0 -6 4 -13 10 -16 6 -3 7 1 4 9 -7 18 -14 21 -14 7z"/>
<path d="M8890 2771 c0 -6 4 -13 10 -16 6 -3 7 1 4 9 -7 18 -14 21 -14 7z"/>
<path d="M11251 2651 c-14 -4 -26 -12 -28 -18 -3 -9 4 -9 29 -2 18 5 34 9 35
9 2 0 3 5 3 10 0 11 -4 11 -39 1z"/>
<path d="M9583 2643 c-7 -3 -13 -11 -13 -18 0 -7 6 -16 13 -18 10 -4 10 -6 0
-6 -16 -1 -17 -47 -3 -56 6 -4 8 -15 5 -26 -8 -23 14 -245 26 -274 8 -19 5
323 -3 372 -5 27 -9 32 -25 26z"/>
<path d="M4873 2535 c0 -33 2 -45 4 -27 2 18 2 45 0 60 -2 15 -4 0 -4 -33z"/>
<path d="M6163 2540 c0 -30 2 -43 4 -27 2 15 2 39 0 55 -2 15 -4 2 -4 -28z"/>
<path d="M6629 2568 c0 -13 -1 -38 -2 -56 -1 -19 1 -36 5 -39 5 -2 8 23 8 56
0 34 -2 61 -5 61 -3 0 -5 -10 -6 -22z"/>
<path d="M6940 2531 c0 -34 4 -60 8 -57 8 5 5 106 -3 115 -3 2 -5 -24 -5 -58z"/>
<path d="M5022 2564 c-7 -8 -8 -14 -2 -14 5 0 10 -15 10 -34 0 -19 3 -37 8
-40 4 -2 6 13 4 35 -3 32 -1 39 14 40 15 0 15 2 4 6 -8 3 -17 9 -20 13 -3 4
-11 2 -18 -6z"/>
<path d="M7212 2564 c-7 -8 -8 -14 -3 -14 5 0 12 -17 14 -37 l4 -38 1 38 c2
28 6 37 20 38 13 0 14 2 2 6 -8 3 -17 9 -20 13 -3 4 -11 2 -18 -6z"/>
<path d="M7968 2568 c-2 -7 -1 -29 3 -48 l6 -35 2 33 c1 23 6 32 19 33 13 0
14 2 2 6 -8 3 -18 10 -21 15 -3 5 -8 4 -11 -4z"/>
<path d="M7803 2553 c9 -2 23 -2 30 0 6 3 -1 5 -18 5 -16 0 -22 -2 -12 -5z"/>
<path d="M4807 2543 c-9 -9 -9 -61 1 -66 4 -3 7 12 7 34 0 21 0 39 -1 39 0 0
-4 -3 -7 -7z"/>
<path d="M5200 2511 c0 -23 2 -41 4 -41 8 0 12 71 4 76 -4 3 -8 -13 -8 -35z"/>
<path d="M5336 2537 c3 -10 9 -15 12 -12 3 3 0 11 -7 18 -10 9 -11 8 -5 -6z"/>
<path d="M5443 2510 c0 -25 2 -35 4 -22 2 12 2 32 0 45 -2 12 -4 2 -4 -23z"/>
<path d="M5493 2510 c0 -25 2 -35 4 -22 2 12 2 32 0 45 -2 12 -4 2 -4 -23z"/>
<path d="M5715 2539 c-4 -6 -5 -12 -2 -15 2 -3 7 2 10 11 7 17 1 20 -8 4z"/>
<path d="M6075 2539 c-4 -6 -5 -12 -2 -15 2 -3 7 2 10 11 7 17 1 20 -8 4z"/>
<path d="M6330 2511 c0 -23 2 -41 4 -41 8 0 12 71 4 76 -4 3 -8 -13 -8 -35z"/>
<path d="M6895 2510 c0 -21 3 -36 8 -33 4 2 7 17 7 33 0 16 -3 31 -7 33 -5 3
-8 -12 -8 -33z"/>
<path d="M7063 2495 c0 -33 2 -45 4 -27 2 18 2 45 0 60 -2 15 -4 0 -4 -33z"/>
<path d="M7495 2510 c0 -21 3 -36 8 -33 4 2 7 17 7 33 0 16 -3 31 -7 33 -5 3
-8 -12 -8 -33z"/>
<path d="M6458 2528 c-3 -7 -1 -24 3 -38 6 -22 7 -20 8 13 1 38 -3 47 -11 25z"/>
<path d="M7018 2513 c5 -21 7 -23 10 -9 2 10 0 22 -6 28 -6 6 -7 0 -4 -19z"/>
<path d="M7540 2531 c0 -6 4 -13 10 -16 6 -3 7 1 4 9 -7 18 -14 21 -14 7z"/>
<path d="M7748 2528 c-3 -7 -1 -24 3 -38 6 -22 7 -20 8 13 1 38 -3 47 -11 25z"/>
<path d="M9669 2523 c-1 -10 -2 -25 -3 -33 -1 -8 -5 -21 -9 -27 -15 -23 -21
-413 -8 -549 13 -141 38 -307 51 -339 9 -22 26 -87 34 -125 3 -14 12 -50 20
-80 l14 -55 2 110 c8 449 1 657 -29 875 -6 41 -13 96 -16 122 -4 29 -11 47
-18 45 -7 -1 -13 9 -14 23 0 14 -1 31 -2 38 -2 19 -21 14 -22 -5z"/>
<path d="M11030 2530 c0 -5 5 -10 10 -10 6 0 10 5 10 10 0 6 -4 10 -10 10 -5
0 -10 -4 -10 -10z"/>
<path d="M5090 2511 c0 -25 6 -27 13 -6 4 8 2 17 -3 20 -6 4 -10 -3 -10 -14z"/>
<path d="M5402 2500 c0 -19 2 -27 5 -17 2 9 2 25 0 35 -3 9 -5 1 -5 -18z"/>
<path d="M5562 2500 c0 -19 2 -27 5 -17 2 9 2 25 0 35 -3 9 -5 1 -5 -18z"/>
<path d="M6672 2510 c0 -14 2 -19 5 -12 2 6 2 18 0 25 -3 6 -5 1 -5 -13z"/>
<path d="M6832 2510 c0 -14 2 -19 5 -12 2 6 2 18 0 25 -3 6 -5 1 -5 -13z"/>
<path d="M7432 2510 c0 -14 2 -19 5 -12 2 6 2 18 0 25 -3 6 -5 1 -5 -13z"/>
<path d="M8097 2523 c-2 -5 -1 -19 4 -33 7 -23 7 -23 8 8 1 31 -3 40 -12 25z"/>
<path d="M5662 2500 c0 -14 2 -19 5 -12 2 6 2 18 0 25 -3 6 -5 1 -5 -13z"/>
<path d="M5862 2500 c0 -14 2 -19 5 -12 2 6 2 18 0 25 -3 6 -5 1 -5 -13z"/>
<path d="M5977 2501 c-4 -17 -3 -21 5 -13 5 5 8 16 6 23 -3 8 -7 3 -11 -10z"/>
<path d="M6282 2500 c0 -14 2 -19 5 -12 2 6 2 18 0 25 -3 6 -5 1 -5 -13z"/>
<path d="M7100 2509 c0 -5 5 -7 10 -4 6 3 10 8 10 11 0 2 -4 4 -10 4 -5 0 -10
-5 -10 -11z"/>
<path d="M6401 2494 c0 -11 3 -14 6 -6 3 7 2 16 -1 19 -3 4 -6 -2 -5 -13z"/>
<path d="M7596 2497 c3 -10 9 -15 12 -12 3 3 0 11 -7 18 -10 9 -11 8 -5 -6z"/>
<path d="M7691 2494 c0 -11 3 -14 6 -6 3 7 2 16 -1 19 -3 4 -6 -2 -5 -13z"/>
<path d="M5710 2491 c0 -6 4 -13 10 -16 6 -3 7 1 4 9 -7 18 -14 21 -14 7z"/>
<path d="M6070 2491 c0 -6 4 -13 10 -16 6 -3 7 1 4 9 -7 18 -14 21 -14 7z"/>
<path d="M8190 2491 c0 -6 4 -13 10 -16 6 -3 7 1 4 9 -7 18 -14 21 -14 7z"/>
<path d="M7356 2478 c3 -5 10 -6 15 -3 13 9 11 12 -6 12 -8 0 -12 -4 -9 -9z"/>
<path d="M10922 2317 c6 -17 48 -22 48 -5 0 8 -12 15 -26 16 -17 1 -24 -2 -22
-11z"/>
<path d="M7773 2250 c0 -36 2 -50 4 -32 2 17 2 47 0 65 -2 17 -4 3 -4 -33z"/>
<path d="M5172 2284 c-7 -8 -8 -14 -3 -14 5 0 12 -17 14 -37 l4 -38 1 38 c2
28 6 37 20 38 13 0 14 2 2 6 -8 3 -17 9 -20 13 -3 4 -11 2 -18 -6z"/>
<path d="M6662 2284 c-7 -8 -8 -14 -2 -14 5 0 10 -15 10 -34 0 -19 3 -37 8
-40 4 -2 6 13 4 35 -3 32 -1 39 14 40 15 0 15 2 4 6 -8 3 -17 9 -20 13 -3 4
-11 2 -18 -6z"/>
<path d="M11566 2258 c-8 -18 -19 -58 -26 -88 -7 -30 -23 -76 -37 -102 l-23
-48 32 0 c18 0 42 -3 53 -6 19 -5 20 0 20 135 0 78 -1 141 -3 141 -2 0 -9 -15
-16 -32z"/>
<path d="M5833 2273 c9 -2 23 -2 30 0 6 3 -1 5 -18 5 -16 0 -22 -2 -12 -5z"/>
<path d="M4800 2209 c0 -34 2 -60 5 -58 8 9 11 110 3 115 -4 3 -8 -23 -8 -57z"/>
<path d="M4925 2259 c-4 -6 -5 -12 -2 -15 2 -3 7 2 10 11 7 17 1 20 -8 4z"/>
<path d="M5133 2230 c0 -25 2 -35 4 -22 2 12 2 32 0 45 -2 12 -4 2 -4 -23z"/>
<path d="M5393 2230 c0 -25 2 -35 4 -22 2 12 2 32 0 45 -2 12 -4 2 -4 -23z"/>
<path d="M5443 2230 c0 -25 2 -35 4 -22 2 12 2 32 0 45 -2 12 -4 2 -4 -23z"/>
<path d="M5500 2254 c0 -8 5 -12 10 -9 6 4 8 11 5 16 -9 14 -15 11 -15 -7z"/>
<path d="M5723 2230 c0 -25 2 -35 4 -22 2 12 2 32 0 45 -2 12 -4 2 -4 -23z"/>
<path d="M6423 2230 c0 -25 2 -35 4 -22 2 12 2 32 0 45 -2 12 -4 2 -4 -23z"/>
<path d="M6490 2231 c0 -23 2 -41 4 -41 8 0 12 71 4 76 -4 3 -8 -13 -8 -35z"/>
<path d="M6890 2209 c0 -34 2 -60 5 -58 8 9 11 110 3 115 -4 3 -8 -23 -8 -57z"/>
<path d="M7010 2231 c0 -23 2 -41 4 -41 8 0 12 71 4 76 -4 3 -8 -13 -8 -35z"/>
<path d="M7293 2230 c0 -25 2 -35 4 -22 2 12 2 32 0 45 -2 12 -4 2 -4 -23z"/>
<path d="M7705 2259 c-4 -6 -5 -12 -2 -15 2 -3 7 2 10 11 7 17 1 20 -8 4z"/>
<path d="M8075 2259 c-4 -6 -5 -12 -2 -15 2 -3 7 2 10 11 7 17 1 20 -8 4z"/>
<path d="M8165 2259 c-4 -6 -5 -12 -2 -15 2 -3 7 2 10 11 7 17 1 20 -8 4z"/>
<path d="M8270 2231 c0 -23 2 -41 4 -41 8 0 12 71 4 76 -4 3 -8 -13 -8 -35z"/>
<path d="M8503 2230 c0 -25 2 -35 4 -22 2 12 2 32 0 45 -2 12 -4 2 -4 -23z"/>
<path d="M8645 2259 c-4 -6 -5 -12 -2 -15 2 -3 7 2 10 11 7 17 1 20 -8 4z"/>
<path d="M5030 2251 c0 -6 4 -13 10 -16 6 -3 7 1 4 9 -7 18 -14 21 -14 7z"/>
<path d="M7488 2248 c-3 -7 -1 -24 3 -38 6 -22 7 -20 8 13 1 38 -3 47 -11 25z"/>
<path d="M7920 2251 c0 -6 4 -13 10 -16 6 -3 7 1 4 9 -7 18 -14 21 -14 7z"/>
<path d="M8343 2225 c0 -22 2 -30 4 -17 2 12 2 30 0 40 -3 9 -5 -1 -4 -23z"/>
<path d="M10889 2250 c-30 -4 -64 -12 -75 -19 -16 -9 -12 -11 23 -8 24 2 46 6
50 10 3 4 19 7 34 7 15 0 31 5 34 10 3 6 3 9 -2 9 -4 -1 -33 -5 -64 -9z"/>
<path d="M4882 2230 c0 -14 2 -19 5 -12 2 6 2 18 0 25 -3 6 -5 1 -5 -13z"/>
<path d="M4992 2230 c0 -14 2 -19 5 -12 2 6 2 18 0 25 -3 6 -5 1 -5 -13z"/>
<path d="M6117 2243 c-2 -5 -1 -19 4 -33 7 -23 7 -23 8 8 1 31 -3 40 -12 25z"/>
<path d="M6212 2230 c0 -14 2 -19 5 -12 2 6 2 18 0 25 -3 6 -5 1 -5 -13z"/>
<path d="M6972 2230 c0 -14 2 -19 5 -12 2 6 2 18 0 25 -3 6 -5 1 -5 -13z"/>
<path d="M7877 2243 c-2 -5 -1 -19 4 -33 7 -23 7 -23 8 8 1 31 -3 40 -12 25z"/>
<path d="M8232 2230 c0 -14 2 -19 5 -12 2 6 2 18 0 25 -3 6 -5 1 -5 -13z"/>
<path d="M8382 2230 c0 -14 2 -19 5 -12 2 6 2 18 0 25 -3 6 -5 1 -5 -13z"/>
<path d="M8712 2230 c0 -14 2 -19 5 -12 2 6 2 18 0 25 -3 6 -5 1 -5 -13z"/>
<path d="M6377 2221 c-4 -17 -3 -21 5 -13 5 5 8 16 6 23 -3 8 -7 3 -11 -10z"/>
<path d="M7607 2221 c-4 -17 -3 -21 5 -13 5 5 8 16 6 23 -3 8 -7 3 -11 -10z"/>
<path d="M9397 2229 c7 -7 24 -8 54 -1 l44 10 -54 1 c-40 1 -52 -2 -44 -10z"/>
<path d="M11044 2231 c4 -6 1 -11 -8 -11 -9 0 -16 -5 -16 -11 0 -6 10 -9 23
-7 24 3 30 29 8 36 -8 3 -11 0 -7 -7z"/>
<path d="M7386 2217 c3 -10 9 -15 12 -12 3 3 0 11 -7 18 -10 9 -11 8 -5 -6z"/>
<path d="M7431 2214 c0 -11 3 -14 6 -6 3 7 2 16 -1 19 -3 4 -6 -2 -5 -13z"/>
<path d="M7976 2217 c3 -10 9 -15 12 -12 3 3 0 11 -7 18 -10 9 -11 8 -5 -6z"/>
<path d="M4920 2211 c0 -6 4 -13 10 -16 6 -3 7 1 4 9 -7 18 -14 21 -14 7z"/>
<path d="M6730 2211 c0 -6 4 -13 10 -16 6 -3 7 1 4 9 -7 18 -14 21 -14 7z"/>
<path d="M7700 2211 c0 -6 4 -13 10 -16 6 -3 7 1 4 9 -7 18 -14 21 -14 7z"/>
<path d="M8070 2211 c0 -6 4 -13 10 -16 6 -3 7 1 4 9 -7 18 -14 21 -14 7z"/>
<path d="M8160 2211 c0 -6 4 -13 10 -16 6 -3 7 1 4 9 -7 18 -14 21 -14 7z"/>
<path d="M8640 2211 c0 -6 4 -13 10 -16 6 -3 7 1 4 9 -7 18 -14 21 -14 7z"/>
<path d="M11091 2208 c-1 -15 -11 -18 -60 -18 -48 0 -64 -4 -87 -25 -100 -86
-99 -85 -79 -85 11 0 35 9 53 20 39 24 42 24 42 5 0 -8 -5 -15 -10 -15 -6 0
-16 -11 -22 -25 -12 -26 -34 -29 -57 -7 -12 11 -18 9 -37 -12 -31 -32 -30 -51
1 -78 28 -24 32 -38 10 -38 -9 0 -12 -6 -8 -17 5 -12 2 -15 -10 -10 -20 7 -24
-17 -5 -29 7 -4 8 -3 4 4 -11 17 9 15 24 -3 10 -12 10 -18 0 -30 -10 -13 -9
-15 11 -16 103 -6 162 20 134 58 -8 10 -15 25 -15 34 0 11 -12 16 -42 18 -24
1 -47 6 -53 12 -6 6 8 7 38 3 40 -6 47 -4 47 10 0 9 16 26 35 37 19 12 35 27
35 35 0 8 9 14 21 14 16 0 19 4 14 23 -4 12 -18 32 -32 45 -19 17 -23 26 -14
35 8 8 17 6 33 -9 13 -11 37 -21 53 -22 17 -1 25 1 18 4 -9 4 -7 11 7 26 14
15 26 19 45 14 24 -6 26 -5 20 16 -10 30 -7 29 -46 18 -47 -14 -57 -13 -62 8
-4 16 -5 16 -6 0z m-124 -154 c-3 -3 -12 -4 -19 -1 -8 3 -5 6 6 6 11 1 17 -2
13 -5z m-17 -85 c0 -6 -4 -7 -10 -4 -5 3 -10 11 -10 16 0 6 5 7 10 4 6 -3 10
-11 10 -16z"/>
<path d="M5316 2198 c3 -5 10 -6 15 -3 13 9 11 12 -6 12 -8 0 -12 -4 -9 -9z"/>
<path d="M10781 2181 c-8 -5 -10 -14 -5 -22 4 -7 7 -27 6 -44 -2 -27 0 -28 12
-12 7 9 17 17 22 17 5 0 17 12 27 25 17 24 17 25 -3 25 -11 0 -20 5 -20 10 0
12 -20 13 -39 1z"/>
<path d="M10920 2170 c-9 -16 -8 -18 5 -14 8 4 15 12 15 20 0 20 -7 17 -20 -6z"/>
<path d="M11138 2091 c-16 -14 -16 -15 0 -29 16 -13 16 -13 0 -8 -25 8 -22 -1
8 -29 18 -16 34 -23 48 -19 29 7 51 -28 35 -58 -9 -17 -13 -18 -21 -7 -8 11
-9 10 -4 -3 3 -10 1 -20 -4 -23 -6 -3 -9 -28 -8 -56 2 -46 10 -60 22 -41 3 5
19 9 36 10 37 1 53 10 46 27 -4 10 16 15 85 21 49 3 89 11 89 16 0 5 -7 22
-15 38 -14 27 -17 28 -46 18 -16 -6 -28 -15 -26 -22 3 -7 -13 -12 -44 -13 -45
-2 -66 9 -36 20 10 4 10 7 0 18 -10 9 -13 10 -13 1 0 -14 -10 -15 -30 -2 -13
8 -13 11 1 22 24 19 33 67 14 74 -16 6 -21 29 -7 37 4 2 0 2 -8 0 -41 -12 -70
-11 -70 1 0 20 -32 24 -52 7z m118 -45 c10 -8 16 -17 12 -21 -8 -8 -48 13 -48
25 0 14 13 12 36 -4z m54 -156 c0 -5 -7 -10 -16 -10 -8 0 -12 5 -9 10 3 6 10
10 16 10 5 0 9 -4 9 -10z"/>
<path d="M5503 1975 c0 -33 2 -45 4 -27 2 18 2 45 0 60 -2 15 -4 0 -4 -33z"/>
<path d="M6993 1970 c0 -36 2 -50 4 -32 2 17 2 47 0 65 -2 17 -4 3 -4 -33z"/>
<path d="M7400 1971 c0 -34 4 -60 8 -57 8 5 5 106 -3 115 -3 2 -5 -24 -5 -58z"/>
<path d="M11084 2019 c-8 -14 18 -31 30 -19 9 9 0 30 -14 30 -5 0 -12 -5 -16
-11z"/>
<path d="M7672 2004 c-7 -8 -8 -14 -3 -14 5 0 12 -17 14 -37 l4 -38 1 38 c2
28 6 37 20 38 13 0 14 2 2 6 -8 3 -17 9 -20 13 -3 4 -11 2 -18 -6z"/>
<path d="M5953 1993 c9 -2 23 -2 30 0 6 3 -1 5 -18 5 -16 0 -22 -2 -12 -5z"/>
<path d="M4803 1950 c0 -25 2 -35 4 -22 2 12 2 32 0 45 -2 12 -4 2 -4 -23z"/>
<path d="M4853 1950 c0 -25 2 -35 4 -22 2 12 2 32 0 45 -2 12 -4 2 -4 -23z"/>
<path d="M5075 1979 c-4 -6 -5 -12 -2 -15 2 -3 7 2 10 11 7 17 1 20 -8 4z"/>
<path d="M5140 1933 c-3 -34 -1 -58 3 -54 5 4 7 32 5 62 l-3 54 -5 -62z"/>
<path d="M5563 1950 c0 -25 2 -35 4 -22 2 12 2 32 0 45 -2 12 -4 2 -4 -23z"/>
<path d="M5683 1950 c0 -25 2 -35 4 -22 2 12 2 32 0 45 -2 12 -4 2 -4 -23z"/>
<path d="M5901 1974 c0 -11 3 -14 6 -6 3 7 2 16 -1 19 -3 4 -6 -2 -5 -13z"/>
<path d="M6280 1929 c0 -34 2 -60 5 -58 8 9 11 110 3 115 -4 3 -8 -23 -8 -57z"/>
<path d="M6400 1951 c0 -23 2 -41 4 -41 8 0 12 71 4 76 -4 3 -8 -13 -8 -35z"/>
<path d="M6475 1979 c-4 -6 -5 -12 -2 -15 2 -3 7 2 10 11 7 17 1 20 -8 4z"/>
<path d="M6580 1929 c0 -34 2 -60 5 -58 8 9 11 110 3 115 -4 3 -8 -23 -8 -57z"/>
<path d="M6703 1950 c0 -25 2 -35 4 -22 2 12 2 32 0 45 -2 12 -4 2 -4 -23z"/>
<path d="M6773 1950 c0 -25 2 -35 4 -22 2 12 2 32 0 45 -2 12 -4 2 -4 -23z"/>
<path d="M6925 1979 c-4 -6 -5 -12 -2 -15 2 -3 7 2 10 11 7 17 1 20 -8 4z"/>
<path d="M7355 1950 c0 -21 3 -36 8 -33 4 2 7 17 7 33 0 16 -3 31 -7 33 -5 3
-8 -12 -8 -33z"/>
<path d="M7523 1935 c0 -33 2 -45 4 -27 2 18 2 45 0 60 -2 15 -4 0 -4 -33z"/>
<path d="M7955 1950 c0 -21 3 -36 8 -33 4 2 7 17 7 33 0 16 -3 31 -7 33 -5 3
-8 -12 -8 -33z"/>
<path d="M5623 1945 c0 -22 2 -30 4 -17 2 12 2 30 0 40 -3 9 -5 -1 -4 -23z"/>
<path d="M7140 1971 c0 -6 4 -13 10 -16 6 -3 7 1 4 9 -7 18 -14 21 -14 7z"/>
<path d="M7478 1953 c5 -21 7 -23 10 -9 2 10 0 22 -6 28 -6 6 -7 0 -4 -19z"/>
<path d="M8000 1971 c0 -6 4 -13 10 -16 6 -3 7 1 4 9 -7 18 -14 21 -14 7z"/>
<path d="M11320 1966 c0 -9 7 -16 16 -16 9 0 14 5 12 12 -6 18 -28 21 -28 4z"/>
<path d="M4922 1940 c0 -19 2 -27 5 -17 2 9 2 25 0 35 -3 9 -5 1 -5 -18z"/>
<path d="M4962 1950 c0 -14 2 -19 5 -12 2 6 2 18 0 25 -3 6 -5 1 -5 -13z"/>
<path d="M5392 1950 c0 -14 2 -19 5 -12 2 6 2 18 0 25 -3 6 -5 1 -5 -13z"/>
<path d="M6237 1963 c-2 -5 -1 -19 4 -33 7 -23 7 -23 8 8 1 31 -3 40 -12 25z"/>
<path d="M6362 1950 c0 -14 2 -19 5 -12 2 6 2 18 0 25 -3 6 -5 1 -5 -13z"/>
<path d="M6542 1950 c0 -14 2 -19 5 -12 2 6 2 18 0 25 -3 6 -5 1 -5 -13z"/>
<path d="M7097 1963 c-2 -5 -1 -19 4 -33 7 -23 7 -23 8 8 1 31 -3 40 -12 25z"/>
<path d="M7292 1950 c0 -14 2 -19 5 -12 2 6 2 18 0 25 -3 6 -5 1 -5 -13z"/>
<path d="M7892 1950 c0 -14 2 -19 5 -12 2 6 2 18 0 25 -3 6 -5 1 -5 -13z"/>
<path d="M6010 1949 c0 -5 5 -7 10 -4 6 3 10 8 10 11 0 2 -4 4 -10 4 -5 0 -10
-5 -10 -11z"/>
<path d="M7560 1949 c0 -5 5 -7 10 -4 6 3 10 8 10 11 0 2 -4 4 -10 4 -5 0 -10
-5 -10 -11z"/>
<path d="M7196 1937 c3 -10 9 -15 12 -12 3 3 0 11 -7 18 -10 9 -11 8 -5 -6z"/>
<path d="M8056 1937 c3 -10 9 -15 12 -12 3 3 0 11 -7 18 -10 9 -11 8 -5 -6z"/>
<path d="M5070 1931 c0 -6 4 -13 10 -16 6 -3 7 1 4 9 -7 18 -14 21 -14 7z"/>
<path d="M5180 1931 c0 -6 4 -13 10 -16 6 -3 7 1 4 9 -7 18 -14 21 -14 7z"/>
<path d="M6470 1931 c0 -6 4 -13 10 -16 6 -3 7 1 4 9 -7 18 -14 21 -14 7z"/>
<path d="M6810 1931 c0 -6 4 -13 10 -16 6 -3 7 1 4 9 -7 18 -14 21 -14 7z"/>
<path d="M6920 1931 c0 -6 4 -13 10 -16 6 -3 7 1 4 9 -7 18 -14 21 -14 7z"/>
<path d="M11516 1920 c-10 -10 -15 -24 -11 -30 4 -7 2 -23 -6 -36 -16 -31 -6
-41 49 -50 l42 -7 0 72 c0 71 0 71 -27 70 -16 0 -36 -9 -47 -19z"/>
<path d="M5316 1918 c3 -5 10 -6 15 -3 13 9 11 12 -6 12 -8 0 -12 -4 -9 -9z"/>
<path d="M7816 1918 c3 -5 10 -6 15 -3 13 9 11 12 -6 12 -8 0 -12 -4 -9 -9z"/>
<path d="M10990 1839 c0 -5 5 -7 10 -4 6 3 10 8 10 11 0 2 -4 4 -10 4 -5 0
-10 -5 -10 -11z"/>
<path d="M9423 1313 c9 -2 23 -2 30 0 6 3 -1 5 -18 5 -16 0 -22 -2 -12 -5z"/>
<path d="M9750 1096 c0 -9 5 -16 10 -16 6 0 10 4 10 9 0 6 -4 13 -10 16 -5 3
-10 -1 -10 -9z"/>
</g>
</svg>
