<?xml version="1.0" standalone="no"?>
<!DOCTYPE svg PUBLIC "-//W3C//DTD SVG 20010904//EN"
 "http://www.w3.org/TR/2001/REC-SVG-20010904/DTD/svg10.dtd">
<svg version="1.0" xmlns="http://www.w3.org/2000/svg"
 width="844.000000pt" height="811.000000pt" viewBox="0 0 844.000000 811.000000"
 preserveAspectRatio="xMidYMid meet">

<g transform="translate(0.000000,811.000000) scale(0.100000,-0.100000)"
fill="#000000" stroke="none">
<path d="M0 4055 l0 -4055 4220 0 4220 0 0 4055 0 4055 -4220 0 -4220 0 0
-4055z m8380 35 l0 -4010 -4150 0 -4150 0 0 4010 0 4010 4150 0 4150 0 0
-4010z"/>
<path d="M3032 7010 c-101 -27 -163 -63 -232 -137 -52 -55 -63 -74 -86 -149
-23 -72 -26 -97 -21 -162 10 -145 75 -274 170 -336 28 -19 65 -38 80 -42 18
-4 37 -21 54 -48 14 -22 36 -50 49 -61 l23 -20 -57 -92 c-41 -67 -63 -92 -78
-92 -38 -1 -55 -24 -61 -83 -6 -62 -8 -60 61 -70 32 -5 29 -24 -8 -49 -29 -19
-38 -34 -47 -75 -18 -81 17 -129 111 -149 112 -24 250 25 250 89 0 12 4 27 9
35 11 16 41 8 41 -12 0 -44 100 -87 202 -87 116 0 168 35 170 113 1 67 -27
106 -104 147 -33 18 -38 25 -38 56 0 27 5 37 20 41 30 8 30 45 -2 111 l-20 42
36 44 c27 33 44 45 73 49 22 4 49 16 62 28 20 19 22 28 17 66 -3 24 -13 57
-21 74 -15 28 -19 30 -59 24 -27 -4 -46 -3 -50 4 -12 18 -34 1 -50 -39 -13
-33 -40 -60 -60 -60 -3 0 -6 9 -6 21 0 13 27 48 66 88 36 36 80 93 97 126 30
57 32 66 32 170 0 107 -1 112 -37 186 -104 212 -341 313 -586 249z m374 -70
c33 -15 80 -46 104 -69 l44 -41 -31 -33 c-48 -50 -66 -95 -67 -162 -1 -90 20
-151 71 -204 50 -52 50 -64 -9 -117 -38 -34 -42 -36 -49 -18 -4 10 -8 41 -8
68 -1 42 -6 53 -37 82 -103 97 -341 79 -434 -34 -29 -36 -30 -38 -23 -120 l6
-84 -24 7 c-25 8 -119 64 -119 72 0 2 13 21 29 41 37 48 51 92 51 162 0 103
-49 197 -115 221 -38 14 -42 26 -21 67 28 55 184 177 202 159 2 -2 -5 -24 -16
-48 -46 -103 -7 -220 91 -269 46 -24 156 -27 197 -6 68 36 112 111 112 191 0
62 -17 111 -49 139 -49 44 -7 43 95 -4z m-50 -481 c47 -22 63 -50 74 -132 22
-154 -56 -242 -223 -254 -62 -4 -78 -1 -117 19 -62 32 -92 93 -97 196 -5 96 6
118 75 155 92 50 204 56 288 16z m218 -241 c4 -15 9 -19 13 -12 8 11 47 34 57
34 3 0 6 -6 6 -14 0 -8 6 -16 13 -19 8 -3 13 -21 12 -48 l-1 -44 -52 -10 c-38
-7 -61 -20 -90 -47 -21 -21 -42 -38 -48 -38 -18 0 -77 68 -69 80 4 6 32 23 63
38 44 21 58 33 60 52 7 54 25 68 36 28z m-248 -213 c9 -25 15 -47 13 -50 -3
-2 -35 -7 -72 -11 l-68 -7 3 49 c3 45 5 49 33 55 66 14 72 12 91 -36z m49 -25
c4 -19 16 -53 26 -77 17 -40 20 -42 44 -33 32 12 45 13 45 2 0 -4 -18 -13 -40
-19 -35 -9 -42 -8 -49 6 -10 17 -39 119 -47 161 -8 39 12 2 21 -40z m-204 -75
c3 -89 3 -90 -21 -93 -22 -2 -23 -1 -7 8 14 9 17 26 17 97 0 112 7 104 11 -12z
m-152 -41 c-16 -53 -19 -72 -10 -86 9 -14 9 -24 0 -40 -11 -20 -12 -21 -24 -4
-9 12 -24 16 -46 14 -28 -3 -35 1 -43 24 -15 41 6 78 44 78 21 0 34 7 47 28
22 36 45 63 50 59 2 -2 -6 -35 -18 -73z m328 54 c4 -7 15 -33 23 -58 16 -47
19 -49 83 -36 26 5 27 4 27 -38 0 -62 -33 -106 -100 -133 -70 -29 -179 -31
-230 -5 -40 20 -80 74 -80 108 0 21 5 24 34 24 18 0 48 3 65 6 30 6 31 8 31
65 0 64 -5 60 95 72 17 2 33 5 37 6 4 0 10 -5 15 -11z"/>
<path d="M3272 6383 c3 -47 23 -69 34 -39 10 26 -5 86 -22 86 -12 0 -14 -10
-12 -47z"/>
<path d="M3097 6380 c-7 -33 6 -80 23 -80 15 0 24 50 14 78 -13 37 -30 38 -37
2z"/>
<path d="M3270 6260 c-8 -5 -41 -10 -72 -10 -46 0 -58 -3 -58 -16 0 -26 32
-72 58 -84 21 -9 30 -8 51 8 47 35 67 131 21 102z"/>
<path d="M4593 7010 c-95 -25 -139 -49 -207 -111 -63 -58 -97 -115 -120 -206
-28 -108 -13 -219 44 -333 40 -79 95 -131 175 -166 36 -16 65 -34 65 -41 0 -8
18 -33 41 -58 l41 -44 -26 -34 c-14 -19 -39 -58 -55 -88 -25 -44 -36 -55 -68
-64 -35 -10 -39 -14 -47 -59 -12 -60 -1 -80 48 -84 45 -4 46 -22 2 -55 -46
-35 -66 -104 -43 -151 35 -75 196 -103 296 -52 37 20 58 46 66 84 8 38 32 42
45 8 22 -58 115 -91 238 -84 65 3 75 7 104 35 26 27 32 40 32 80 1 62 -22 96
-91 135 -48 27 -53 33 -53 64 0 28 5 36 26 44 23 9 25 14 19 43 -4 17 -16 49
-27 70 l-19 37 32 40 c24 30 45 43 85 55 34 10 58 23 65 37 15 28 6 97 -16
132 -16 24 -22 26 -60 20 -26 -3 -45 -2 -49 5 -12 19 -34 0 -51 -42 -17 -43
-30 -57 -52 -57 -32 0 -8 46 56 109 76 77 117 149 130 232 18 112 -25 257
-105 354 -109 134 -332 196 -521 145z m373 -70 c60 -27 144 -93 144 -112 0 -6
-12 -19 -26 -31 -93 -73 -84 -296 15 -380 40 -33 36 -51 -22 -103 l-41 -38 -7
25 c-4 13 -7 45 -8 70 -1 40 -6 51 -36 78 -108 95 -353 72 -435 -40 -27 -37
-28 -43 -23 -119 3 -44 3 -80 -1 -80 -15 0 -102 49 -119 67 -16 18 -16 21 -2
33 9 7 28 33 42 58 65 111 5 325 -98 347 -19 4 -29 13 -29 24 0 23 47 87 94
128 39 35 115 78 123 70 2 -3 -2 -19 -11 -35 -54 -104 -13 -233 91 -286 52
-26 157 -22 209 9 104 61 131 220 53 310 -16 18 -29 36 -29 39 0 11 51 -4 116
-34z m-48 -480 c45 -20 56 -38 74 -126 7 -36 7 -67 -1 -106 -20 -93 -92 -144
-221 -155 -117 -10 -186 41 -211 156 -12 59 -7 154 10 175 20 24 112 68 159
76 61 11 136 3 190 -20z m217 -240 l6 -20 26 20 c30 23 43 25 43 6 0 -8 6 -16
13 -19 8 -3 13 -22 12 -48 l0 -44 -52 -10 c-39 -7 -62 -20 -90 -47 -22 -21
-43 -38 -49 -38 -17 0 -77 67 -70 78 4 6 31 22 61 36 31 14 57 31 59 38 3 7 7
25 10 41 7 32 22 35 31 7z m-247 -218 c8 -24 12 -45 10 -47 -2 -2 -34 -7 -71
-11 l-68 -7 3 49 c3 45 5 49 33 55 62 14 77 7 93 -39z m95 -134 c6 -4 19 -2
28 3 22 11 39 12 39 0 0 -5 -18 -13 -41 -19 -46 -12 -43 -16 -78 100 -32 104
-24 114 11 13 17 -49 36 -93 41 -97z m-249 -50 c-3 -4 -24 -7 -47 -7 l-42 2
35 6 35 6 4 90 4 90 8 -90 c4 -49 5 -93 3 -97z m-152 46 c-14 -51 -17 -75 -9
-91 7 -16 6 -27 -3 -38 -12 -15 -14 -15 -23 0 -6 11 -19 15 -43 13 -23 -2 -38
3 -44 12 -13 20 -13 60 0 60 5 0 7 7 4 15 -5 12 2 15 32 15 35 1 42 5 67 47
15 25 30 43 33 41 3 -3 -4 -36 -14 -74z m325 54 c4 -7 15 -33 24 -58 17 -47
20 -48 82 -36 26 5 27 5 27 -43 0 -91 -70 -141 -206 -149 -68 -4 -87 -1 -122
17 -23 12 -49 32 -57 45 -22 33 -24 80 -5 82 8 2 36 6 63 9 l47 6 0 54 c0 62
5 67 75 76 28 3 53 7 57 8 4 0 10 -5 15 -11z"/>
<path d="M4830 6386 c0 -47 22 -80 34 -50 15 38 3 94 -20 94 -10 0 -14 -13
-14 -44z"/>
<path d="M4662 6358 c2 -39 7 -53 18 -53 19 0 26 56 10 85 -19 36 -31 22 -28
-32z"/>
<path d="M4830 6260 c-8 -5 -41 -10 -72 -10 -65 0 -71 -10 -41 -60 39 -66 100
-59 128 15 19 48 12 72 -15 55z"/>
<path d="M1642 6951 c-8 -4 -21 -20 -30 -36 -19 -31 -83 -57 -122 -49 -24 4
-24 4 -2 -6 28 -12 38 -36 22 -55 -10 -12 -10 -15 2 -15 14 0 38 -52 38 -84 0
-9 -7 -19 -15 -22 -24 -9 -18 -22 8 -17 14 3 29 -2 36 -11 20 -24 31 -19 31
15 0 17 -4 28 -10 24 -6 -4 -10 6 -10 23 0 24 5 31 28 35 17 4 31 1 38 -9 6
-8 14 -14 18 -14 10 0 76 -68 76 -78 0 -5 -11 -21 -26 -37 -29 -32 -28 -59 4
-63 12 -2 22 -8 22 -13 0 -6 5 -7 11 -3 6 3 9 15 6 25 -3 10 2 24 10 31 12 10
18 8 32 -11 15 -20 19 -21 30 -7 8 9 16 35 18 59 4 35 1 48 -19 72 -16 19 -28
49 -32 82 -8 61 -26 107 -56 146 -16 21 -30 27 -58 27 -20 0 -43 -4 -50 -9z
m123 -109 c8 -26 18 -71 22 -100 4 -37 11 -56 24 -63 12 -6 19 -21 19 -40 0
-26 -2 -28 -19 -19 -11 5 -25 27 -31 47 -7 21 -25 61 -41 90 -16 29 -26 59
-23 68 3 8 2 15 -4 15 -6 0 -12 -5 -14 -11 -2 -6 -19 3 -37 20 -28 26 -31 34
-21 46 15 18 56 20 63 3 3 -7 6 -5 6 6 1 18 2 18 20 2 11 -10 27 -39 36 -64z
m-148 -17 c10 -22 9 -25 -7 -25 -10 0 -24 -10 -33 -22 -15 -23 -15 -23 -22 14
-4 20 -4 41 0 47 12 20 50 12 62 -14z"/>
<path d="M5996 6934 c-3 -9 -6 -28 -6 -44 0 -24 -5 -29 -27 -32 -25 -3 -28 -8
-31 -45 -3 -37 -6 -42 -30 -45 l-27 -3 0 -535 0 -534 25 -6 c20 -5 26 -13 30
-45 4 -35 9 -40 33 -43 22 -3 27 -8 27 -32 0 -64 -22 -60 366 -60 l354 0 0 23
c0 46 12 66 39 69 23 3 26 8 29 45 3 37 6 42 30 45 l27 3 0 535 0 535 -27 3
c-24 3 -27 8 -30 45 -3 36 -6 42 -28 46 -31 4 -40 17 -40 59 l0 32 -354 0
c-313 0 -355 -2 -360 -16z m641 -89 c6 -2 13 -19 15 -37 2 -25 8 -34 26 -36
12 -2 27 -12 32 -22 7 -12 9 -188 8 -492 l-3 -473 -30 -5 c-27 -5 -30 -9 -33
-48 l-3 -42 -318 0 c-233 0 -320 3 -329 12 -7 7 -12 27 -12 45 0 27 -4 33 -20
33 -11 0 -22 6 -25 13 -2 6 -6 229 -9 495 l-6 482 30 0 c28 0 30 2 30 38 0 21
3 41 6 45 6 6 620 -2 641 -8z"/>
<path d="M6145 6771 c-27 -5 -31 -11 -35 -51 -3 -25 -7 -43 -10 -41 -3 3 -15
2 -27 -1 -19 -5 -23 -13 -23 -46 0 -37 -3 -41 -27 -44 l-28 -3 0 -90 0 -90 28
-3 c23 -3 27 -8 27 -36 0 -44 16 -56 72 -56 l47 0 3 -87 c3 -88 3 -88 31 -91
24 -3 27 -7 27 -42 0 -35 -3 -39 -27 -42 -28 -3 -28 -4 -31 -81 -3 -83 6 -107
39 -107 14 0 19 -9 21 -42 l3 -43 86 -3 c83 -3 87 -2 93 20 3 13 6 33 6 45 0
15 7 23 23 25 21 3 22 8 25 96 l3 92 -26 0 c-23 0 -25 4 -25 40 l0 39 58 3 57
3 3 43 c3 37 6 42 28 42 22 0 24 4 24 44 0 42 1 44 35 50 l36 7 -3 132 -3 132
-27 3 c-28 3 -34 13 -40 72 -2 16 -11 26 -28 30 -21 5 -25 12 -28 48 l-3 42
-177 -1 c-97 -1 -190 -4 -207 -8z m387 -133 c3 -39 6 -43 31 -46 l27 -3 0
-134 c0 -131 0 -134 -22 -137 -19 -2 -24 -11 -28 -48 l-5 -45 -60 -5 -60 -5
-5 -40 -5 -40 -85 0 -85 0 0 90 0 90 88 3 87 3 0 90 0 90 -87 -3 -88 -3 -3
-43 -3 -43 -87 3 -87 3 -3 65 c-4 88 2 110 33 110 20 0 25 5 26 28 1 15 2 32
4 37 1 6 3 13 3 18 1 4 94 7 206 7 l205 0 3 -42z m-122 -678 l0 -90 -90 0 -90
0 0 83 c0 46 3 87 7 90 3 4 44 7 90 7 l83 0 0 -90z"/>
<path d="M1470 6780 c0 -5 5 -10 10 -10 6 0 10 5 10 10 0 6 -4 10 -10 10 -5 0
-10 -4 -10 -10z"/>
<path d="M1460 6715 c-17 -21 -8 -28 15 -11 11 8 14 15 8 19 -6 4 -16 0 -23
-8z"/>
<path d="M1663 6668 c-16 -20 -24 -66 -14 -72 16 -10 41 24 41 55 0 31 -11 37
-27 17z"/>
<path d="M1495 6591 c-3 -6 -18 -11 -32 -11 -16 0 -23 -5 -20 -12 2 -7 21 -66
42 -130 30 -94 35 -121 25 -133 -6 -7 -9 -23 -5 -33 3 -12 -1 -26 -11 -36 -10
-11 -18 -42 -23 -89 l-6 -72 -40 -1 c-69 -1 -75 -3 -94 -35 -24 -40 -35 -126
-21 -165 18 -47 129 -154 161 -154 28 0 64 38 86 92 7 16 17 27 22 24 27 -17
102 -159 114 -217 16 -77 30 -106 57 -114 28 -9 88 13 101 36 13 25 5 238 -10
266 -6 11 -28 28 -49 36 -55 22 -80 78 -62 141 9 32 10 74 5 141 l-7 95 45 0
c27 0 49 -6 57 -15 7 -8 17 -15 23 -15 5 0 3 8 -6 18 -22 24 -21 69 2 114 l18
37 -61 6 c-34 4 -65 6 -71 5 -21 -5 -45 0 -45 9 0 5 10 11 23 13 18 2 23 10
25 41 2 27 8 37 21 37 20 0 61 40 61 59 0 7 -11 -1 -25 -17 -18 -21 -31 -28
-48 -25 -20 4 -27 -4 -52 -59 -38 -80 -58 -85 -103 -27 -32 43 -42 92 -21 105
8 4 9 -1 4 -15 -7 -23 17 -71 35 -71 6 0 16 12 22 28 6 15 20 46 30 69 11 23
17 46 14 51 -6 10 -58 9 -99 -3 -22 -6 -33 -3 -51 15 -16 14 -26 18 -31 11z
m17 -78 c9 -21 19 -49 23 -63 4 -14 13 -35 21 -47 9 -15 10 -24 3 -29 -16 -10
-24 4 -49 81 -13 39 -25 76 -28 83 -2 6 0 12 5 12 5 0 16 -17 25 -37z m103
-33 c-3 -5 -11 -10 -16 -10 -6 0 -7 5 -4 10 3 6 11 10 16 10 6 0 7 -4 4 -10z
m-5 -160 c-11 -20 -30 -28 -30 -12 0 11 22 32 32 32 5 0 4 -9 -2 -20z m193 14
c12 -4 13 -13 5 -45 -10 -36 -13 -39 -44 -39 -18 0 -44 -4 -58 -10 -30 -11
-32 -5 -16 49 5 19 15 38 22 43 15 9 70 11 91 2z m-163 -103 c0 -17 -12 -41
-21 -41 -5 0 -9 11 -9 25 0 16 6 25 15 25 8 0 15 -4 15 -9z m-229 -318 c66
-72 69 -113 10 -113 -43 0 -74 26 -92 78 -21 62 36 85 82 35z m73 -156 c-8
-21 -33 -22 -62 -1 -31 21 -28 32 11 36 38 4 60 -11 51 -35z"/>
<path d="M2021 6254 c0 -11 3 -14 6 -6 3 7 2 16 -1 19 -3 4 -6 -2 -5 -13z"/>
<path d="M1993 6170 c-8 -21 -18 -30 -33 -30 -15 0 -20 5 -17 15 10 23 -11 28
-23 5 -7 -13 -17 -19 -26 -16 -9 3 -12 1 -9 -4 3 -6 26 -10 50 -10 37 0 47 5
64 29 22 31 26 41 13 41 -4 0 -13 -13 -19 -30z"/>
<path d="M3067 4916 c-10 -15 -29 -25 -56 -30 -29 -4 -47 -15 -62 -36 -18 -23
-25 -27 -36 -18 -20 16 -61 -26 -69 -70 -4 -22 -14 -36 -25 -39 -12 -3 -19
-14 -19 -28 0 -15 -11 -30 -33 -43 -69 -40 -95 -155 -57 -255 12 -32 32 -64
45 -73 13 -8 29 -28 35 -45 23 -55 60 -57 73 -4 4 19 5 19 6 -1 0 -11 -6 -36
-15 -53 -20 -40 -13 -94 17 -134 11 -16 19 -30 17 -32 -1 -1 -18 -10 -36 -19
-18 -10 -47 -38 -63 -64 -28 -44 -30 -52 -24 -110 6 -63 35 -122 60 -122 6 0
22 11 35 25 25 27 59 32 78 13 9 -9 18 -9 37 0 22 10 25 9 25 -8 0 -10 6 -25
14 -32 7 -8 21 -29 31 -47 l17 -33 -35 -37 c-94 -99 -69 -156 68 -156 65 0 70
-2 73 -22 2 -13 9 -23 16 -23 8 0 19 -7 26 -15 18 -22 87 -28 180 -15 108 14
152 35 164 76 9 30 13 32 66 37 68 6 117 29 132 63 10 20 8 29 -11 54 -12 16
-24 44 -27 62 -11 69 -15 78 -30 78 -8 0 -23 -17 -32 -37 l-16 -38 -8 60 c-3
33 -8 71 -10 85 -2 20 2 25 26 30 41 7 53 31 38 75 -12 30 -11 37 2 51 23 23
19 51 -9 70 -34 22 -31 38 11 70 38 30 57 64 48 89 -3 8 -32 24 -64 36 -34 12
-60 28 -62 38 -2 9 3 37 11 63 12 39 12 50 1 63 -7 9 -21 13 -31 10 -22 -7
-23 1 -8 65 12 52 5 90 -17 90 -9 0 -33 -13 -54 -30 -21 -16 -41 -30 -44 -30
-3 0 -6 27 -6 59 0 112 -26 121 -89 31 -23 -33 -46 -60 -51 -60 -5 0 -12 12
-16 28 -9 39 -44 135 -54 147 -5 6 -10 26 -12 45 -2 29 -8 36 -28 38 -30 4
-90 59 -90 83 0 51 -28 64 -53 25z m14 -84 c-6 -2 -14 -21 -17 -43 -4 -22 -10
-42 -15 -45 -5 -2 -31 -2 -59 2 -56 7 -62 19 -30 64 14 20 32 30 59 35 22 4
46 14 53 22 12 15 13 14 16 -8 2 -13 -1 -25 -7 -27z m108 -62 c9 0 11 -9 7
-28 -5 -22 -2 -29 16 -37 15 -7 23 -18 22 -34 0 -13 7 -32 18 -43 10 -10 18
-26 17 -35 0 -14 -2 -13 -9 5 -8 19 -17 22 -59 22 -56 0 -62 7 -47 62 8 31 7
49 -6 84 l-16 46 22 -21 c12 -12 28 -21 35 -21z m-59 -51 c0 -88 -55 -131 -81
-62 -7 19 -5 32 10 57 10 17 22 45 26 61 l7 30 19 -24 c11 -14 19 -39 19 -62z
m-227 34 c4 -30 0 -43 -19 -63 l-24 -25 0 37 c0 42 15 88 29 88 5 0 11 -17 14
-37z m67 -60 c-1 -5 -12 -21 -25 -38 -20 -24 -25 -26 -25 -12 0 27 19 57 35
57 8 0 15 -3 15 -7z m24 -69 c3 -9 6 -22 6 -29 0 -15 -27 -45 -39 -45 -10 0
-22 70 -15 82 9 14 42 9 48 -8z m-97 -49 l52 -56 46 36 c62 47 104 48 150 2
68 -68 69 -174 3 -241 -21 -22 -38 -46 -38 -55 0 -9 -17 -47 -38 -86 -35 -66
-39 -70 -75 -73 -21 -2 -44 1 -51 7 -6 6 -21 8 -32 5 -26 -7 -47 19 -47 57 0
40 15 49 85 49 55 0 58 2 74 33 9 17 28 44 42 59 l25 27 -28 36 c-15 20 -33
39 -41 42 -8 3 -32 -11 -54 -31 -46 -41 -75 -51 -128 -42 -20 3 -47 6 -60 6
-46 0 -80 140 -52 214 15 40 47 66 82 66 26 0 42 -11 85 -55z m534 -46 c-2
-104 -11 -129 -46 -129 -44 0 -69 64 -44 113 20 39 81 118 87 113 2 -3 4 -47
3 -97z m-204 46 c22 -15 46 -78 59 -149 4 -26 21 -54 45 -81 49 -53 69 -101
68 -162 l0 -48 -20 52 c-22 56 -57 91 -101 100 -46 9 -62 37 -69 124 -4 49
-15 94 -28 119 -12 22 -21 45 -21 50 0 15 43 12 67 -5z m333 -51 c0 -8 -5 -35
-11 -59 l-11 -44 -35 27 -34 27 37 33 c41 36 54 40 54 16z m-263 -46 c-3 -8
-6 -5 -6 6 -1 11 2 17 5 13 3 -3 4 -12 1 -19z m189 -90 c-42 -24 -56 -47 -56
-95 0 -56 15 -88 51 -116 35 -25 59 -16 88 31 l22 37 -7 -35 c-4 -19 -13 -40
-22 -46 -8 -6 -12 -16 -8 -22 5 -8 -3 -12 -23 -12 -32 0 -45 -15 -67 -75 -6
-16 -18 -31 -27 -33 -15 -3 -17 10 -17 113 0 124 -8 154 -57 206 l-24 26 25
-4 c47 -9 74 4 86 43 l12 36 22 -21 c20 -21 20 -22 2 -33z m-480 -25 c-10 -10
-19 5 -10 18 6 11 8 11 12 0 2 -7 1 -15 -2 -18z m590 0 c-4 -16 -20 -56 -36
-90 -31 -68 -52 -79 -84 -44 -12 13 -16 32 -14 62 3 42 5 45 57 72 30 15 61
27 69 27 10 0 12 -7 8 -27z m-656 -57 c0 -31 -14 -40 -30 -21 -15 18 -6 45 15
45 9 0 15 -9 15 -24z m-103 -2 c10 -28 -13 -37 -25 -9 -10 21 -9 25 4 25 8 0
17 -7 21 -16z m345 -26 c-7 -7 -12 -8 -12 -2 0 6 3 14 7 17 3 4 9 5 12 2 2 -3
-1 -11 -7 -17z m-172 -23 c0 -8 -4 -17 -10 -20 -6 -4 -10 5 -10 20 0 15 4 24
10 20 6 -3 10 -12 10 -20z m140 4 c0 -5 -7 -9 -15 -9 -15 0 -20 12 -9 23 8 8
24 -1 24 -14z m-240 -5 c0 -8 -4 -12 -10 -9 -5 3 -10 10 -10 16 0 5 5 9 10 9
6 0 10 -7 10 -16z m335 -33 c0 -33 -3 -40 -21 -44 -32 -6 -40 48 -10 69 29 20
31 18 31 -25z m55 -2 c0 -20 -24 -26 -35 -9 -8 13 14 42 26 34 5 -3 9 -14 9
-25z m374 -4 c20 -8 36 -19 36 -24 0 -14 -64 -61 -72 -53 -5 6 -12 63 -9 85 1
10 3 9 45 -8z m-508 -42 c-11 -11 -19 6 -11 24 8 17 8 17 12 0 3 -10 2 -21 -1
-24z m-27 -21 c5 -10 6 -24 1 -32 -6 -9 -3 -18 8 -27 16 -12 15 -14 -6 -31
-13 -10 -29 -29 -35 -42 -10 -19 -20 -25 -47 -25 -33 0 -35 2 -38 36 -3 36 -3
37 42 43 25 4 48 12 52 18 4 7 -4 8 -25 3 -36 -8 -36 -9 -16 39 17 40 48 49
64 18z m148 -27 c23 -16 48 -75 32 -75 -5 0 -9 5 -9 11 0 5 -5 7 -11 3 -8 -4
-9 -30 -5 -78 l6 -71 -19 45 c-10 24 -37 61 -60 81 -36 33 -40 40 -32 62 15
38 60 49 98 22z m103 -25 c0 -11 -4 -20 -10 -20 -5 0 -10 9 -10 20 0 11 5 20
10 20 6 0 10 -9 10 -20z m215 -41 c37 -17 64 -36 63 -42 -2 -7 -34 -28 -71
-47 -62 -33 -67 -34 -83 -18 -32 32 -18 138 17 138 5 0 38 -14 74 -31z m-665
1 c0 -5 -4 -10 -10 -10 -5 0 -10 5 -10 10 0 6 5 10 10 10 6 0 10 -4 10 -10z
m460 -43 c0 -80 89 -191 155 -193 28 -1 30 -4 33 -42 3 -35 -1 -43 -23 -58
-22 -14 -32 -15 -64 -5 -52 15 -124 81 -152 137 -20 42 -21 51 -10 98 19 86
61 129 61 63z m-264 -4 c-10 -10 -19 5 -10 18 6 11 8 11 12 0 2 -7 1 -15 -2
-18z m-207 -24 c14 -40 14 -68 0 -108 -15 -43 -44 -58 -59 -30 -14 25 -6 36
13 21 27 -22 25 0 -4 55 -31 58 -30 69 5 83 32 13 33 12 45 -21z m274 25 c3
-3 1 -17 -5 -29 -9 -20 -13 -22 -24 -10 -8 7 -11 21 -8 29 6 16 25 21 37 10z
m-203 -54 c0 -11 -4 -20 -10 -20 -5 0 -10 9 -10 20 0 11 5 20 10 20 6 0 10 -9
10 -20z m243 7 c3 -8 1 -20 -4 -28 -8 -12 -10 -12 -18 0 -10 15 -4 41 9 41 4
0 10 -6 13 -13z m-104 -12 c64 -33 81 -157 25 -179 -19 -7 -54 19 -54 41 0 7
-7 13 -15 13 -8 0 -17 12 -21 28 -3 15 -10 37 -16 49 -9 19 -7 26 13 42 29 25
33 25 68 6z m-99 -5 c0 -5 -5 -10 -11 -10 -5 0 -7 5 -4 10 3 6 8 10 11 10 2 0
4 -4 4 -10z m-185 -31 c0 -18 -5 -24 -22 -23 -13 0 -23 -3 -23 -8 0 -4 -7 -8
-15 -8 -18 0 -19 14 -4 41 6 12 17 18 25 15 8 -3 14 -1 14 5 0 6 6 9 13 7 6
-3 12 -16 12 -29z m793 19 c18 -18 14 -35 -10 -41 -28 -8 -27 -8 -21 26 6 30
13 33 31 15z m-608 -51 c0 -13 -9 -32 -20 -42 -19 -18 -20 -17 -20 4 0 27 17
61 30 61 6 0 10 -11 10 -23z m293 -47 c24 -52 85 -113 136 -136 31 -13 40 -22
36 -35 -3 -10 1 -44 10 -77 30 -117 22 -134 -70 -147 -27 -4 -57 -9 -66 -11
-11 -3 -22 9 -35 36 -16 34 -23 40 -41 35 -13 -3 -23 -1 -23 5 0 5 -10 10 -22
10 -20 0 -19 3 12 35 30 31 33 38 22 55 -10 17 -9 23 8 40 25 25 26 49 3 52
-50 4 -73 17 -73 39 0 11 8 23 18 26 22 9 32 23 32 51 0 22 20 62 30 62 3 0
13 -18 23 -40z m-498 9 c0 -8 6 -19 13 -24 16 -13 6 -45 -14 -45 -8 0 -14 9
-14 20 0 11 -4 20 -10 20 -11 0 -14 33 -3 44 10 10 28 1 28 -15z m235 -32 c0
-23 -17 -47 -32 -47 -10 0 -11 54 -1 63 14 15 33 6 33 -16z m-100 4 c0 -6 -4
-13 -10 -16 -5 -3 -10 1 -10 9 0 9 5 16 10 16 6 0 10 -4 10 -9z m286 -18 c-10
-10 -19 5 -10 18 6 11 8 11 12 0 2 -7 1 -15 -2 -18z m-144 -78 c-23 -50 -46
-10 -27 44 5 12 8 12 22 -2 14 -13 15 -21 5 -42z m96 8 c-3 -24 -8 -28 -40
-31 -49 -4 -52 22 -5 42 45 20 49 19 45 -11z m399 -38 c-7 -16 -37 -21 -37 -5
0 10 32 31 39 25 2 -2 1 -11 -2 -20z m83 -30 c0 -33 -4 -45 -14 -45 -23 0 -28
18 -16 55 16 48 30 44 30 -10z m-460 5 c14 -27 5 -40 -29 -40 -28 0 -77 41
-64 53 3 4 23 7 44 7 28 0 41 -5 49 -20z m354 -20 c11 0 37 -16 58 -37 30 -29
40 -34 52 -24 16 14 29 1 17 -17 -10 -16 -66 -32 -112 -32 -35 0 -36 1 -52 57
-16 58 -14 84 6 64 6 -6 20 -11 31 -11z m-416 -43 c40 -41 42 -46 31 -70 -10
-21 -19 -27 -45 -27 -28 0 -34 5 -45 35 -8 22 -20 35 -31 35 -27 0 -22 26 10
49 15 11 29 21 32 21 3 0 25 -20 48 -43z m100 -5 c3 -9 -3 -13 -19 -10 -12 1
-24 9 -27 16 -3 9 3 13 19 10 12 -1 24 -9 27 -16z m-231 -54 c15 -6 33 -10 39
-9 14 2 27 -27 18 -40 -7 -12 -34 -11 -34 1 0 6 -7 10 -16 10 -18 0 -44 23
-44 39 0 14 2 14 37 -1z m193 -68 c0 -17 -27 -36 -38 -25 -3 3 0 16 6 31 13
27 32 24 32 -6z m45 -30 c-9 -27 -41 -23 -37 5 2 11 9 23 15 27 18 11 30 -7
22 -32z m60 0 c9 -27 -1 -40 -31 -40 -26 0 -30 11 -14 41 14 25 37 24 45 -1z"/>
<path d="M2801 4576 c-16 -19 -11 -29 8 -17 7 5 12 14 9 21 -3 9 -8 7 -17 -4z"/>
<path d="M1308 4828 c-3 -38 -6 -43 -30 -46 -24 -3 -27 -8 -30 -45 -3 -38 -6
-42 -31 -45 l-27 -3 2 -537 3 -536 25 -6 c20 -5 26 -13 30 -45 4 -32 10 -40
30 -45 20 -5 26 -13 28 -40 2 -19 9 -38 15 -42 14 -9 668 -11 691 -2 11 4 16
19 16 44 0 35 3 39 28 42 23 3 28 8 32 43 4 32 10 40 30 45 l25 6 3 536 2 537
-27 3 c-25 3 -28 7 -31 45 -3 37 -6 42 -30 45 -23 3 -28 9 -32 43 l-5 40 -357
3 -357 2 -3 -42z m649 -63 c6 -2 13 -19 15 -37 2 -25 9 -34 28 -38 l25 -6 3
-487 2 -487 -30 -6 c-26 -6 -30 -11 -30 -39 0 -18 -6 -38 -14 -44 -9 -8 -104
-11 -327 -9 l-314 3 -3 38 c-3 30 -9 40 -28 47 l-24 10 0 187 c0 104 -3 324
-6 490 l-6 301 28 4 c26 3 29 7 32 45 l3 42 317 -5 c174 -3 322 -7 329 -9z"/>
<path d="M1470 4701 c-33 -6 -35 -9 -38 -48 -3 -37 -6 -42 -30 -45 -23 -3 -28
-9 -32 -43 -4 -32 -10 -40 -30 -45 -23 -5 -26 -11 -33 -89 -9 -91 -2 -111 39
-111 21 0 24 -5 24 -40 l0 -39 58 -3 57 -3 3 -87 c3 -86 3 -86 32 -97 20 -6
30 -17 30 -30 0 -23 -25 -51 -46 -51 -11 0 -14 -19 -14 -90 0 -89 0 -90 25
-90 20 0 25 -6 30 -37 11 -66 8 -64 97 -61 l83 3 3 47 c3 42 6 47 30 50 27 3
27 3 27 88 0 82 -1 84 -25 90 -20 5 -26 13 -28 43 l-3 37 48 0 c61 0 71 7 75
50 2 27 8 35 28 40 22 5 25 12 28 53 3 45 4 47 33 47 l30 0 -3 138 -3 137 -27
3 c-24 3 -27 8 -30 45 -3 37 -6 42 -30 45 -24 3 -27 8 -30 50 l-3 47 -170 1
c-93 1 -186 -1 -205 -5z m363 -103 c9 -7 17 -29 19 -48 3 -30 7 -35 31 -38
l28 -3 -3 -132 c-3 -131 -3 -131 -28 -137 -21 -5 -26 -13 -30 -50 l-5 -45 -45
-1 c-25 -1 -51 -2 -57 -3 -8 -1 -13 -16 -13 -41 l0 -40 -90 0 -90 0 0 90 0 89
88 3 87 3 0 90 0 90 -85 0 -85 0 -5 -45 -5 -45 -87 -3 -88 -3 0 90 0 90 28 3
c24 3 27 8 30 43 2 22 9 43 15 47 21 14 371 9 390 -4z m-103 -718 l0 -90 -90
0 -90 0 0 90 0 90 90 0 90 0 0 -90z"/>
<path d="M5997 4863 c-4 -3 -7 -23 -7 -44 0 -34 -3 -38 -27 -41 -24 -3 -29 -8
-33 -43 -4 -32 -10 -40 -30 -45 l-25 -6 0 -534 0 -535 27 -3 c24 -3 27 -8 30
-45 3 -37 6 -42 31 -45 23 -3 27 -8 27 -36 0 -17 5 -37 12 -44 9 -9 99 -12
344 -12 183 0 339 3 348 6 9 3 16 17 16 29 0 36 10 55 29 55 26 0 41 21 41 56
0 27 4 32 30 38 l30 6 -2 532 -3 532 -25 6 c-20 5 -26 13 -30 45 -4 30 -10 41
-25 43 -27 5 -45 30 -45 64 l0 28 -353 0 c-195 0 -357 -3 -360 -7z m465 -93
l188 0 0 -24 c0 -39 11 -56 35 -56 13 0 26 -7 29 -16 9 -23 7 -937 -2 -951 -4
-6 -19 -16 -34 -22 -22 -8 -27 -17 -30 -48 l-3 -38 -314 -3 c-223 -2 -318 1
-327 9 -8 6 -14 27 -14 45 0 28 -4 34 -20 34 -11 0 -22 6 -25 13 -2 6 -6 229
-9 494 l-6 482 27 3 c23 2 29 9 31 33 6 61 0 59 149 52 75 -4 221 -7 325 -7z"/>
<path d="M6155 4703 c-36 -6 -45 -17 -45 -60 0 -28 -4 -33 -24 -33 -26 0 -36
-16 -36 -61 0 -24 -4 -29 -25 -29 -31 0 -37 -21 -33 -120 3 -73 4 -75 30 -78
23 -3 27 -8 30 -40 l3 -37 55 -5 55 -5 3 -80 c3 -83 12 -105 44 -105 16 0 19
-6 16 -37 -3 -33 -7 -38 -31 -41 l-28 -3 3 -87 c3 -86 3 -87 30 -90 24 -3 27
-8 30 -50 l3 -47 78 -3 c92 -3 107 5 107 59 0 35 3 39 25 39 25 0 25 1 25 89
0 86 -1 89 -25 95 -21 5 -25 12 -25 41 l0 35 48 0 c56 0 72 12 72 56 0 26 4
33 23 36 18 2 23 11 27 48 5 41 8 45 35 50 l30 5 0 135 0 135 -30 5 c-27 5
-30 9 -33 47 -3 37 -6 42 -30 45 -24 3 -28 8 -32 48 l-5 45 -170 1 c-93 1
-183 -1 -200 -3z m359 -99 c11 -4 16 -19 16 -45 0 -36 3 -40 30 -45 l30 -6 0
-134 0 -134 -25 0 c-23 0 -25 -4 -25 -45 l0 -45 -53 0 c-62 0 -77 -11 -77 -57
l0 -33 -90 0 -91 0 3 88 3 87 88 3 88 3 -3 92 -3 92 -79 3 c-89 3 -96 -1 -96
-60 l0 -38 -85 0 c-98 0 -98 0 -93 110 3 59 5 65 28 70 19 4 27 15 35 45 5 22
14 43 20 47 12 9 357 11 379 2z m-104 -724 l0 -90 -90 0 -90 0 0 90 0 90 90 0
90 0 0 -90z"/>
<path d="M4440 4820 c0 -37 -3 -41 -30 -46 -27 -6 -30 -10 -30 -44 0 -34 -3
-38 -30 -43 l-30 -6 0 -531 0 -530 25 0 c24 0 29 -7 37 -65 2 -11 14 -22 28
-25 20 -5 26 -13 28 -43 l3 -37 352 2 352 3 3 37 c3 32 7 37 30 40 24 3 27 8
30 45 3 37 6 42 30 45 l27 3 3 528 2 527 -30 6 c-26 6 -30 11 -30 41 0 29 -5
36 -29 44 -25 9 -30 17 -33 47 l-3 37 -352 3 -353 2 0 -40z m638 -66 c6 -2 12
-16 12 -31 0 -23 6 -31 30 -40 l30 -11 0 -429 c0 -235 -3 -452 -6 -480 -6 -47
-9 -53 -30 -53 -20 0 -24 -5 -24 -32 0 -61 12 -59 -331 -56 l-314 3 -5 40 c-4
30 -10 41 -25 44 -11 2 -23 8 -27 15 -4 6 -8 224 -8 484 l0 472 24 0 c26 0 36
16 36 60 l0 29 313 -5 c171 -3 318 -7 325 -10z"/>
<path d="M4595 4693 c-36 -6 -45 -17 -45 -60 0 -28 -4 -33 -24 -33 -24 0 -36
-21 -36 -67 0 -17 -6 -23 -24 -23 -22 0 -24 -4 -31 -85 -4 -46 -4 -89 0 -95 3
-5 17 -10 30 -10 21 0 26 -6 31 -40 l6 -39 52 -3 51 -3 3 -84 c3 -82 3 -83 32
-94 25 -9 30 -17 30 -44 0 -28 -4 -33 -24 -33 -30 0 -36 -16 -36 -95 0 -79 6
-95 35 -95 21 0 24 -6 27 -42 l3 -43 88 -3 87 -3 0 45 c0 41 2 45 28 48 27 3
27 4 32 86 4 72 3 82 -12 82 -43 0 -48 -10 -48 -85 0 -82 -3 -85 -90 -85 -89
0 -90 1 -90 96 l0 84 80 0 c44 0 80 2 80 5 0 3 -7 16 -16 29 -15 24 -5 44 16
31 6 -4 10 7 9 27 -1 18 -3 25 -6 16 -4 -15 -17 -18 -84 -18 l-80 0 3 88 3 87
88 3 87 3 0 90 0 90 -87 -3 -88 -3 -3 -42 -3 -43 -85 0 -84 0 0 90 c0 88 0 90
24 90 26 0 36 16 36 61 l0 29 203 -2 202 -3 3 -42 c3 -37 6 -42 30 -45 l27 -3
0 -130 0 -129 -25 -6 c-21 -5 -25 -12 -28 -47 l-3 -41 -55 -4 c-29 -3 -57 -7
-60 -11 -3 -3 -2 -23 3 -44 10 -43 39 -56 86 -39 19 8 27 17 27 36 0 32 10 47
35 51 16 3 21 13 23 52 3 45 5 47 33 47 l29 0 0 135 0 135 -29 0 c-28 0 -30 3
-33 42 -3 36 -7 43 -28 48 -21 5 -26 13 -30 50 l-5 45 -170 1 c-93 1 -183 -1
-200 -3z"/>
<path d="M1317 2793 c-4 -3 -7 -23 -7 -44 0 -34 -3 -38 -27 -41 -25 -3 -28 -8
-31 -45 -3 -37 -6 -42 -30 -45 l-27 -3 -3 -537 -2 -538 24 0 c26 0 36 -16 36
-60 0 -24 5 -29 28 -32 24 -3 27 -7 30 -46 l3 -42 357 2 357 3 5 40 c4 34 9
40 32 43 24 3 27 8 30 45 3 38 6 42 31 45 l27 3 -2 537 -3 536 -25 6 c-20 5
-26 13 -30 45 -4 34 -9 40 -32 43 -24 3 -27 8 -30 45 l-3 42 -351 3 c-193 1
-353 -1 -357 -5z m641 -106 c6 -5 12 -22 12 -38 0 -22 5 -29 19 -29 41 0 41
-9 39 -506 l-3 -479 -27 -3 c-24 -3 -27 -8 -30 -45 l-3 -42 -325 0 -325 0 -5
40 c-4 32 -9 41 -27 43 -23 3 -23 4 -23 195 -1 106 -3 328 -6 494 l-6 301 29
4 c25 3 28 7 31 45 l3 42 317 -6 c185 -3 322 -10 330 -16z"/>
<path d="M1463 2623 c-30 -4 -32 -7 -35 -46 -3 -37 -6 -42 -30 -45 -24 -3 -27
-8 -30 -45 -3 -35 -7 -42 -28 -47 -23 -5 -26 -12 -33 -75 -11 -97 -8 -109 28
-115 26 -4 31 -10 35 -45 l5 -40 55 -5 55 -5 3 -87 c3 -86 3 -88 27 -88 24 0
28 -6 28 -45 0 -30 -3 -34 -25 -37 -22 -3 -23 -7 -23 -93 0 -82 2 -90 20 -94
26 -4 35 -19 35 -59 l0 -33 88 3 87 3 3 42 c3 37 6 42 30 45 l27 3 0 90 0 90
-27 3 c-25 3 -28 7 -28 43 l0 39 60 0 60 0 0 33 c0 39 9 54 35 58 16 3 21 13
23 46 3 37 6 42 30 45 l27 3 3 138 3 137 -31 0 c-29 0 -30 2 -30 44 0 41 -2
45 -27 48 -25 3 -29 8 -33 48 l-5 45 -175 1 c-96 1 -189 -1 -207 -3z m381
-109 c3 -9 6 -28 6 -44 0 -24 5 -29 28 -32 l27 -3 3 -131 3 -131 -31 -6 c-28
-6 -30 -9 -30 -52 l0 -45 -59 0 -60 0 -3 -42 -3 -43 -88 -3 -88 -3 3 93 3 93
85 5 85 5 0 85 0 85 -87 3 -88 3 0 -38 c0 -60 -7 -64 -96 -61 l-79 3 0 90 c0
87 1 89 25 95 21 5 25 12 28 48 l3 42 204 0 c176 0 204 -2 209 -16z m-141
-621 l28 -5 -3 -86 -3 -87 -85 0 -85 0 -3 87 c-2 76 -1 87 15 91 24 7 101 7
136 0z"/>
<path d="M2877 2793 c-4 -3 -7 -23 -7 -44 0 -34 -3 -38 -27 -41 -25 -3 -28 -8
-31 -45 -3 -37 -6 -42 -30 -45 l-27 -3 -3 -537 -2 -537 27 -3 c25 -3 28 -7 31
-45 3 -37 6 -42 30 -45 23 -3 28 -9 32 -43 l5 -40 357 -3 357 -2 3 42 c3 39 6
43 31 46 22 3 27 8 27 32 0 43 10 60 36 60 30 0 30 -10 24 585 l-5 490 -22 3
c-22 3 -27 14 -35 67 -2 11 -14 22 -28 25 -20 5 -26 13 -30 45 l-5 40 -351 3
c-193 1 -353 -1 -357 -5z m641 -98 c6 -3 12 -20 12 -39 0 -30 3 -35 28 -38
l27 -3 3 -492 2 -492 -27 -3 c-24 -3 -29 -8 -33 -43 l-5 -40 -325 0 -325 0 -5
40 c-4 32 -9 41 -27 43 -23 3 -23 4 -23 195 -1 106 -3 328 -6 495 l-6 302 31
0 c30 0 31 1 31 44 l0 45 318 -6 c174 -2 323 -6 330 -8z"/>
<path d="M3023 2623 c-29 -4 -32 -7 -35 -46 -3 -35 -7 -42 -28 -47 -20 -5 -26
-13 -30 -45 -4 -32 -10 -40 -30 -45 -23 -5 -26 -12 -33 -75 -10 -91 -4 -113
31 -117 23 -3 28 -8 32 -43 l5 -40 55 -5 55 -5 3 -87 3 -88 29 0 c28 0 30 -2
30 -39 0 -46 5 -49 91 -49 35 -1 70 -1 77 -1 9 -1 12 -26 12 -91 l0 -91 -87 3
-88 3 -3 93 -3 93 -27 -3 -27 -3 0 -90 0 -90 28 -3 c25 -3 27 -7 27 -48 l0
-44 90 0 90 0 0 44 c0 41 2 45 28 48 l27 3 0 90 0 90 -27 3 c-25 3 -28 7 -28
43 l0 39 60 0 c64 0 62 -1 72 65 2 12 12 21 26 23 19 3 22 9 22 47 0 40 2 44
28 47 l27 3 3 138 3 137 -31 0 c-29 0 -30 2 -30 44 0 41 -2 45 -27 48 -25 3
-29 8 -33 48 l-5 45 -175 1 c-96 1 -189 -1 -207 -3z m385 -140 c3 -40 5 -43
33 -43 l29 0 0 -135 c0 -123 -2 -135 -18 -135 -28 0 -42 -21 -42 -62 l0 -37
-57 -3 -58 -3 -3 -42 -3 -43 -90 0 -90 0 3 93 3 92 88 3 87 3 0 89 0 90 -89 0
-90 0 -3 -47 -3 -48 -85 0 -85 0 0 90 0 90 28 3 c25 3 27 7 27 48 l0 44 208
-2 207 -3 3 -42z"/>
<path d="M4437 2793 c-4 -3 -7 -23 -7 -44 0 -34 -3 -38 -27 -41 -25 -3 -28 -8
-31 -45 -3 -37 -6 -42 -30 -45 l-27 -3 -3 -537 -2 -537 27 -3 c25 -3 28 -7 31
-45 3 -40 5 -43 32 -43 27 0 29 -3 32 -42 l3 -43 357 -3 357 -2 3 42 c3 39 6
43 30 46 27 3 32 11 40 67 2 11 14 22 28 25 l25 6 3 523 c1 379 -1 528 -9 537
-6 8 -20 14 -30 14 -15 0 -19 7 -19 34 0 36 -12 52 -45 58 -15 2 -21 13 -25
43 l-5 40 -351 3 c-193 1 -353 -1 -357 -5z m641 -98 c6 -3 12 -20 12 -39 0
-30 3 -35 28 -38 l27 -3 3 -492 2 -492 -27 -3 c-25 -3 -28 -7 -31 -46 l-3 -42
-327 2 -327 3 -3 43 c-3 37 -6 42 -28 42 l-24 0 0 208 c-1 114 -3 336 -6 495
l-6 287 31 0 c29 0 31 2 31 38 0 21 3 41 6 44 6 7 620 -1 642 -7z"/>
<path d="M4585 2621 c-27 -5 -30 -10 -33 -48 -3 -37 -6 -42 -30 -45 -24 -3
-27 -8 -30 -45 -3 -37 -6 -42 -30 -45 -27 -3 -27 -3 -30 -95 l-3 -93 30 0 c28
0 30 -3 33 -42 l3 -43 57 -3 57 -3 3 -87 c3 -87 3 -87 31 -90 24 -3 27 -7 27
-42 0 -35 -3 -39 -27 -42 l-28 -3 0 -90 0 -90 28 -3 c25 -3 27 -7 27 -48 l0
-44 90 0 90 0 0 45 c0 43 1 45 30 45 l31 0 -3 93 c-3 92 -3 92 -30 95 l-27 3
-3 -93 -3 -93 -88 -3 -88 -3 3 93 3 93 85 1 85 2 3 40 3 41 62 3 62 3 5 40 c4
32 9 41 28 43 19 3 22 9 22 48 0 42 1 44 29 44 17 0 31 6 35 16 8 20 8 228 0
248 -4 10 -18 16 -35 16 -28 0 -29 2 -29 44 0 40 -2 44 -30 50 -28 5 -30 8
-30 51 l0 45 -177 -1 c-98 -1 -191 -4 -208 -8z m385 -136 c0 -43 1 -45 30 -45
l30 0 0 -135 c0 -123 -2 -135 -18 -135 -28 0 -42 -21 -42 -62 l0 -37 -57 -3
-58 -3 -3 -42 -3 -43 -90 0 -90 0 3 93 3 92 88 3 87 3 0 90 0 90 -87 -3 -88
-3 -5 -45 -5 -45 -85 0 -85 0 0 90 0 90 28 3 c25 3 27 7 27 48 l0 44 210 0
210 0 0 -45z"/>
<path d="M5996 2784 c-3 -8 -6 -28 -6 -44 0 -24 -5 -29 -27 -32 -25 -3 -28 -8
-31 -45 -3 -37 -6 -42 -30 -45 l-27 -3 0 -535 0 -534 25 -6 c20 -5 26 -13 30
-45 4 -34 9 -40 32 -43 24 -3 27 -8 30 -45 l3 -42 358 -3 357 -2 0 32 c0 42 9
55 40 59 21 3 26 11 30 44 4 32 10 40 30 45 l25 6 3 532 2 532 -30 6 c-26 6
-30 11 -30 38 0 40 -9 53 -40 57 -21 3 -26 11 -30 44 l-5 40 -351 3 c-314 2
-352 1 -358 -14z m641 -89 c6 -2 13 -19 15 -37 2 -24 9 -34 23 -36 45 -8 45
-11 45 -498 0 -254 -3 -469 -6 -478 -3 -9 -16 -16 -29 -16 -25 0 -35 -17 -35
-61 l0 -29 -324 0 c-355 0 -336 -3 -336 60 0 22 -5 29 -22 32 l-23 3 -5 305
c-3 168 -5 388 -5 490 l0 185 28 3 c24 3 27 7 27 41 0 21 3 40 6 44 6 6 620
-2 641 -8z"/>
<path d="M6145 2621 c-27 -5 -30 -10 -33 -48 -3 -37 -6 -42 -30 -45 -24 -3
-27 -8 -30 -45 -3 -38 -6 -43 -27 -43 -31 0 -37 -22 -33 -115 3 -68 4 -70 31
-73 23 -3 27 -8 27 -36 0 -44 16 -56 72 -56 l47 0 3 -87 c3 -88 3 -88 31 -91
24 -3 27 -7 27 -42 0 -35 -3 -39 -27 -42 l-28 -3 0 -90 0 -90 27 -3 c24 -3 27
-8 30 -45 l3 -42 86 -3 c83 -3 87 -2 93 20 3 13 6 33 6 46 0 17 6 22 25 22 25
0 25 0 25 95 0 95 0 95 -25 95 -22 0 -25 4 -25 40 l0 39 58 3 57 3 3 43 c3 37
6 42 27 42 21 0 24 5 27 42 3 38 6 43 36 50 l33 9 -3 132 -3 132 -30 5 c-27 5
-30 9 -33 48 -2 32 -7 42 -21 42 -27 0 -41 21 -41 62 l0 38 -177 -1 c-98 -1
-191 -4 -208 -8z m387 -133 c3 -39 6 -43 31 -46 l27 -3 0 -134 0 -133 -25 -6
c-22 -6 -25 -12 -25 -51 l0 -45 -59 0 c-64 0 -71 -6 -71 -61 l0 -30 -87 3 -88
3 -3 78 c-2 50 1 84 9 93 8 10 35 14 90 14 l79 0 0 90 0 91 -87 -3 -88 -3 -5
-45 -5 -45 -79 -3 c-57 -2 -82 1 -87 10 -10 15 -12 139 -3 162 3 9 17 16 30
16 18 0 24 5 24 23 0 12 3 32 6 45 6 22 7 22 210 22 l203 0 3 -42z m-124 -683
l-3 -90 -85 0 -85 0 -3 87 c-3 99 -10 93 105 93 l74 0 -3 -90z"/>
</g>
</svg>
